<?xml version="1.0" encoding="utf-8"?>
<!-- Generator: Adobe Illustrator 19.1.0, SVG Export Plug-In . SVG Version: 6.00 Build 0)  -->
<svg version="1.1" id="Layer_1" xmlns="http://www.w3.org/2000/svg" xmlns:xlink="http://www.w3.org/1999/xlink" x="0px" y="0px"
	 viewBox="0 0 455 71.1" style="enable-background:new 0 0 455 71.1;" xml:space="preserve">
<style type="text/css">
	.st0{clip-path:url(#SVGID_2_);fill:#FFFFFF;}
	.st1{clip-path:url(#SVGID_4_);}
	.st2{font-family:'SignericaFat';}
	.st3{font-size:60px;}
</style>
<g>
	<defs>
		<rect id="SVGID_1_" x="0.6" y="-0.9" width="67" height="67"/>
	</defs>
	<clipPath id="SVGID_2_">
		<use xlink:href="#SVGID_1_"  style="overflow:visible;"/>
	</clipPath>
	<path class="st0" d="M51.9,48H35.5V35.4c0-4.7,1-8.3,2.9-11c1.9-2.7,5.3-5.1,10-7.1l3.5,6.7c-2.9,1.4-4.9,2.7-6,4.1
		c-1.1,1.3-1.7,2.9-1.8,4.8h7.9V48z M32.8,48H16.4V35.4c0-4.7,1-8.3,2.9-11c1.9-2.7,5.3-5.1,10-7.1l3.5,6.7c-2.9,1.4-4.9,2.7-6,4.1
		c-1.1,1.3-1.7,2.9-1.8,4.8h7.9V48z M67.6,32.6c0-18.5-15-33.5-33.5-33.5S0.6,14.1,0.6,32.6s15,33.5,33.5,33.5S67.6,51.1,67.6,32.6"
		/>
</g>
<g>
	<defs>
		<rect id="SVGID_3_" x="-15.4" y="-6.2" width="602.3" height="123.6"/>
	</defs>
	<clipPath id="SVGID_4_">
		<use xlink:href="#SVGID_3_"  style="overflow:visible;"/>
	</clipPath>
	<g class="st1">
		<text transform="matrix(1 0 0 1 0.6299 58.8654)" class="st2 st3">hi there!</text>
	</g>
</g>
</svg>
