<?xml version="1.0" encoding="utf-8"?>
<!-- Generator: Adobe Illustrator 19.1.0, SVG Export Plug-In . SVG Version: 6.00 Build 0)  -->
<svg version="1.1" id="Layer_1" xmlns="http://www.w3.org/2000/svg" xmlns:xlink="http://www.w3.org/1999/xlink" x="0px" y="0px"
	 viewBox="-175 224.3 491 148" style="enable-background:new -175 224.3 491 148;" xml:space="preserve">
<style type="text/css">
	.st0{fill:#FFFFFF;}
</style>
<g>
	<path class="st0" d="M-115,294c0.8,0,1.4,0.3,1.7,0.8l0,0c0.2,0.3,0.2,0.6,0.2,0.9c0,0.3-0.1,0.7-0.3,1.1c-0.2,0.4-0.5,0.7-0.9,1.1
		c-0.4,0.4-0.8,0.7-1.3,1c-0.2,0.1-0.3,0.2-0.5,0.3c-0.2,0.1-0.4,0.2-0.7,0.4c-0.1,0-0.2,0.1-0.4,0.2c-0.1,0.1-0.3,0.2-0.4,0.2
		c-0.6,0.3-1.3,0.6-2.2,1c-0.9,0.4-2.2,0.9-3.7,1.6s-3.4,1.4-5.6,2.3c-2.2,0.9-4.9,1.9-8,3c-1.5,0.5-3.2,1.1-5.1,1.7
		c-1.9,0.6-3.8,1.2-5.9,1.8c-1,0.3-2.1,0.6-3.2,0.9c-1.1,0.3-2.3,0.6-3.5,0.9c-1.3,0.3-2.6,0.6-3.9,0.9c-1.4,0.3-2.7,0.6-3.9,0.8
		c-0.3,0-0.5,0.1-0.7,0.1c-0.2,0-0.5,0-0.7,0.1c-0.1,0-0.1,0-0.2,0.1c-0.1,0-0.2,0-0.3,0c0,0-0.1,0-0.2,0c-0.1,0-0.1,0-0.2,0h-0.7
		c0,0-0.1,0-0.1,0c0,0-0.1,0-0.2,0c-0.2,0-0.4,0-0.5,0c-0.2,0-0.4-0.1-0.6-0.2c-0.6-0.4-1-0.8-1.3-1.2c-0.3-0.4-0.5-0.7-0.7-1.1
		c-0.1-0.3-0.3-0.7-0.3-1c-0.1-0.3-0.2-0.7-0.2-1c0-0.4-0.1-0.7-0.1-1.1c0-0.4,0-0.8,0-1.2c0-0.8,0-1.6,0.1-2.3
		c0.1-0.7,0.2-1.4,0.2-2c0.1-0.7,0.2-1.2,0.2-1.6s0.1-0.8,0.2-1.1c0.1-0.3,0.1-0.6,0.2-1c0.1-0.3,0.2-0.8,0.3-1.3
		c-0.4,0-0.8-0.1-1-0.2c-0.3-0.2-0.5-0.4-0.6-0.7c-0.3-0.6-0.2-1.3,0.2-2c0.4-0.7,1-1.4,1.7-2l0,0.1c0.1-0.1,0.2-0.2,0.3-0.3l0.1,0
		c0,0,0,0,0,0c0.1,0,0.1-0.1,0.2-0.1s0.2-0.1,0.3-0.2c0,0,0,0,0.1,0c0.7-2.5,1.3-4.7,1.9-6.7c0.6-1.9,1.1-3.7,1.7-5.3
		c0.5-1.6,1.1-3.2,1.6-4.8c0.5-1.6,1.2-3.2,1.9-5c0.7-1.7,1.5-3.7,2.5-6c1-2.2,2.2-4.9,3.7-7.9c1-2,2-3.8,3-5.5s1.9-3.1,3-4.5
		l0.2-0.2l-0.1,0c0.2-0.3,0.4-0.5,0.8-0.9c0.3-0.3,0.7-0.6,1-0.8l0.1,0c0,0,0,0,0,0c0.2-0.1,0.4-0.2,0.6-0.3
		c0.2-0.1,0.4-0.1,0.6-0.2c0.3,0,0.5,0,0.8,0c0.3,0.1,0.5,0.1,0.7,0.3c0.5,0.3,0.8,0.5,1,0.9c0.2,0.3,0.3,0.6,0.4,0.9
		c0.1,0.5,0.2,0.9,0.3,1.3c0,0.4,0,0.8,0,1.2c0,0.4,0,0.7,0,1.1c0,0.3-0.1,0.6-0.1,0.9c-0.1,1.1-0.3,2.2-0.6,3.4
		c-0.3,1.2-0.6,2.3-0.9,3.4c-0.3,1-0.6,2.1-1,3.3c-0.3,1.1-0.7,2.3-1.2,3.5c-1.4,3.8-2.8,7.1-4.3,10c-1.4,2.9-2.8,5.4-4,7.5
		c-1.3,2.1-2.4,3.9-3.3,5.3c-1,1.4-1.8,2.5-2.5,3.3c-0.6,0.7-1.2,1.4-1.8,2c-0.6,0.6-1.1,1.2-1.7,1.7c-0.3,0.3-0.7,0.7-0.9,0.9
		c-0.3,0.3-0.6,0.5-0.9,0.8c0,0.1-0.1,0.2-0.1,0.3c0,0,0,0.1,0,0.1c0,0,0,0.1,0,0.1v0c-0.3,1-0.5,2.3-0.8,3.7
		c-0.3,1.4-0.5,3-0.7,4.6c0,0.3-0.1,0.7-0.1,1.1c0,0.4,0,0.8,0,1.1c0,0.5,0,1,0.1,1.5c0,0.5,0.1,1,0.2,1.5c0,0.1,0.1,0.3,0.2,0.5
		c0.4,0,0.8,0,1.3-0.1c0.4-0.1,0.9-0.1,1.4-0.2h0c2.2-0.4,4.4-0.9,6.4-1.4s3.9-1,5.5-1.5c1.8-0.5,3.5-1.1,5.1-1.6
		c1.6-0.5,3.2-1.1,4.6-1.6c3-1,5.6-2,7.9-2.9c2.2-0.9,4.2-1.7,5.8-2.4c2.8-1.2,4.9-2.2,6.4-3c1.5-0.8,2.5-1.4,3.1-1.7c0,0,0,0,0.1,0
		c0,0,0.1,0,0.1-0.1c0,0,0.1-0.1,0.1-0.1c0,0,0,0,0,0.1c0.6-0.3,1.1-0.6,1.7-0.7C-115.8,294.1-115.4,294-115,294z M-161.5,286.9
		c-0.1,0.3-0.2,0.5-0.2,0.6c0,0,0,0.1-0.1,0.1c0,0,0,0-0.1,0.1c0,0.1-0.1,0.3-0.2,0.7c0.6-0.7,1.2-1.5,1.9-2.4
		c0.7-0.9,1.4-1.9,2.2-3.1c0.6-1,1.4-2.2,2.2-3.5c0.8-1.4,1.6-2.8,2.4-4.5c0.8-1.6,1.7-3.4,2.5-5.2c0.8-1.9,1.7-3.8,2.4-5.8
		c0.5-1.3,0.9-2.5,1.3-3.9c0.4-1.3,0.8-2.6,1.1-3.9v0c0.1-0.6,0.3-1.3,0.4-2c0.1-0.7,0.2-1.5,0.3-2.3c0.1-0.4,0.1-0.8,0.1-1.3
		c-0.1,0.2-0.2,0.4-0.4,0.6c-0.1,0.2-0.2,0.4-0.4,0.6c-0.4,0.7-0.9,1.5-1.3,2.3c-0.5,0.8-0.9,1.6-1.3,2.4c-0.9,1.7-1.7,3.4-2.6,5.2
		c-0.9,1.8-1.7,3.7-2.6,5.6c-0.9,2.1-1.8,4.1-2.5,5.9c-0.7,1.8-1.4,3.4-1.9,4.7c0,0.1-0.1,0.3-0.2,0.4c-0.1,0.2-0.1,0.3-0.2,0.4
		c0,0.1-0.1,0.2-0.1,0.3c0,0.1-0.1,0.2-0.1,0.3c-0.1,0.3-0.2,0.6-0.4,0.9c-0.1,0.3-0.2,0.6-0.4,0.9l0,0c-0.4,1-0.8,1.9-1.1,2.9
		C-160.8,284.9-161.1,285.9-161.5,286.9z"/>
	<path class="st0" d="M-118.7,294.6c0.3-0.1,0.7-0.3,0.9-0.3c0.3-0.1,0.5-0.2,0.7-0.2c0.2-0.1,0.5-0.1,0.8-0.2l0.1,0
		c0.7-0.2,1.4-0.1,1.9,0.3c0.6,0.4,0.9,0.9,1,1.5c0,0.6-0.1,1.1-0.5,1.6c-0.4,0.5-0.8,0.8-1.4,1h0c-0.2,0-0.3,0.1-0.4,0.1
		c-0.1,0-0.2,0-0.3,0c-0.1,0-0.3,0-0.5,0c-0.2,0-0.6,0.1-1.1,0.2c-0.2,0-0.3,0.1-0.4,0.1c-0.4,0.1-0.9,0.3-1.4,0.5
		c-0.6,0.2-1.2,0.5-1.8,1v0c-0.3,0.2-0.7,0.5-1,0.9c-0.3,0.3-0.6,0.8-0.8,1.2c0,0.2-0.1,0.4-0.1,0.5s-0.1,0.3-0.1,0.5
		c0,0.4,0.1,0.9,0.2,1.4c0.1,0.5,0.3,1,0.6,1.5c0.3,0.7,0.9,1.3,1.8,1.9c0.5,0.3,1,0.6,1.6,0.9c0.6,0.3,1.1,0.5,1.7,0.7
		c2.6,0.8,5.6,1.3,9.2,1.4c1,0,1.9,0,2.7-0.1c0.8-0.1,1.5-0.1,2.1-0.2h0.4c0.7,0,1.3-0.1,1.8-0.2c0.6-0.1,1.2-0.1,1.8-0.3
		c0.7-0.1,1.5-0.2,2.2-0.4c0.8-0.2,1.6-0.4,2.5-0.6h0c1-0.3,2.2-0.7,3.5-1.2c1.3-0.5,2.8-1.1,4.6-1.9h0c1.7-0.9,3.3-1.7,4.7-2.5
		c1.4-0.8,2.7-1.6,3.8-2.3c1.2-0.8,2.2-1.4,3-2.1c0.8-0.6,1.6-1.1,2.1-1.6c1-0.8,1.9-1.4,2.4-1.9c0.6-0.5,1-0.8,1.3-1
		c0.1,0,0.1-0.1,0.2-0.1c0.5-0.4,1.1-0.6,1.6-0.6c0.3,0,0.7,0.1,1,0.2c0.3,0.1,0.6,0.3,0.8,0.6c0.3,0.4,0.5,0.9,0.5,1.4
		c0,0.4-0.1,0.7-0.3,1.1c-0.2,0.4-0.4,0.7-0.7,0.9c0,0,0,0-0.1,0c0,0,0,0,0,0c-0.1,0.1-0.3,0.2-0.5,0.4c-0.2,0.2-0.5,0.4-0.9,0.6
		c-0.1,0-0.2,0.1-0.3,0.2c-0.1,0.1-0.2,0.2-0.3,0.2c-0.2,0.1-0.3,0.2-0.5,0.3c-0.2,0.1-0.4,0.2-0.6,0.4c-0.1,0.1-0.3,0.2-0.4,0.3
		c-0.1,0.1-0.3,0.2-0.5,0.3c-0.1,0-0.2,0.1-0.3,0.2s-0.2,0.1-0.3,0.2h0c-0.5,0.3-1.1,0.7-1.8,1.1c-0.7,0.4-1.4,0.9-2.2,1.4
		c-1.3,0.7-2.7,1.6-4.4,2.5s-3.6,1.9-5.9,2.9c-2.2,1-4,1.7-5.6,2.2c-1.6,0.5-2.9,1-4.1,1.4c-1.2,0.3-2.2,0.6-3.2,0.9
		c-0.9,0.2-1.8,0.4-2.5,0.6c-0.7,0.1-1.4,0.3-2.1,0.4c-0.8,0.1-1.6,0.2-2.4,0.3c-0.3,0-0.7,0.1-1.1,0.1c-0.4,0-0.8,0-1.2,0
		c-0.7,0-1.4,0-2.2-0.1c-0.8-0.1-1.6-0.2-2.5-0.3c-1.8-0.3-3.4-0.7-4.9-1.2c-1.5-0.5-2.7-1-3.6-1.5c-0.4-0.2-0.9-0.5-1.4-0.8
		c-0.5-0.3-1-0.6-1.3-1c-0.5-0.4-0.9-0.8-1.3-1.3c-0.4-0.5-0.7-1-1-1.7v0c-0.4-0.7-0.7-1.5-0.9-2.2c-0.2-0.7-0.3-1.5-0.3-2.2
		c0-0.5,0-1,0.1-1.3c0.2-0.9,0.5-1.7,0.9-2.3c0.4-0.6,0.9-1.2,1.4-1.6c0.8-0.7,1.6-1.3,2.3-1.7s1.4-0.8,1.8-1l0,0
		C-119.5,294.9-119.1,294.8-118.7,294.6z"/>
	<path class="st0" d="M-16.4,295.1c0.1,0.3,0.1,0.6,0,0.9c-0.1,0.3-0.3,0.7-0.5,1c-0.2,0.3-0.6,0.6-0.9,1c-0.4,0.3-0.8,0.6-1.3,0.8
		c0,0-0.1,0-0.1,0.1s-0.1,0-0.1,0.1c-0.2,0.1-0.4,0.2-0.6,0.2c-0.2,0.1-0.5,0.2-0.9,0.3c-0.2,0.1-0.5,0.2-0.8,0.3
		c-0.3,0.1-0.7,0.2-1.1,0.4c-0.2,0.1-0.4,0.1-0.6,0.2c-0.2,0.1-0.5,0.2-0.7,0.3l-0.3,0.1h0c-1,0.3-2.3,0.8-4,1.3
		c-1.7,0.5-3.8,1.1-6.2,1.7c-2.6,0.6-5.7,1.3-9.4,2c-3.7,0.7-7.8,1.1-12.4,1.4c-0.5,0-1,0-1.5,0.1c-0.4,0-0.9,0-1.3,0.1
		c-0.4,0-0.9,0-1.4,0.1c-0.5,0-1,0-1.6,0c0,0,0,0.1,0,0.1c0,0,0,0.1,0,0.1c-0.2,0.5-0.4,1-0.5,1.4c-0.2,0.4-0.3,0.9-0.5,1.5
		c0.7,0.9,1.4,1.8,2.1,2.8c0.7,1,1.4,2.1,2.2,3.4c0,0.1,0.1,0.2,0.2,0.3c0.1,0.1,0.1,0.2,0.2,0.3c0.2,0.4,0.4,0.7,0.6,1.1
		c0.2,0.4,0.4,0.8,0.5,1.2c0,0.1,0,0.2,0,0.2c0.1,0.3,0.2,0.6,0.3,1c0.1,0.3,0.1,0.7,0.1,1.1c0,0.3-0.1,0.6-0.2,1
		c-0.1,0.4-0.4,0.8-0.7,1.3c-0.4,0.4-0.9,0.7-1.3,0.8s-0.8,0.1-1.2,0.1c-0.5,0-1-0.1-1.3-0.3c-0.3-0.1-0.7-0.3-1-0.5
		c-0.2-0.1-0.4-0.2-0.7-0.5c-0.3-0.2-0.6-0.4-0.9-0.6c-0.5-0.4-1-0.8-1.4-1.3c-0.5-0.4-0.9-0.9-1.3-1.4c-0.2-0.3-0.4-0.6-0.6-1
		c-0.2-0.4-0.4-0.8-0.6-1.3c-0.3-0.6-0.4-1.1-0.4-1.6c0-0.5,0-0.9,0-1.2c0,0,0-0.1,0-0.1s0-0.1,0-0.1c0.1-0.7,0.2-1.3,0.3-1.9
		c0.1-0.6,0.3-1.2,0.5-1.8v0c0-0.1,0-0.2,0.1-0.2l0.1-0.1c0-0.1,0-0.2,0.1-0.3s0-0.2,0.1-0.4c-0.1-0.1-0.1-0.2-0.2-0.3
		c-0.1-0.1-0.1-0.1-0.2-0.3l0,0c-0.2-0.2-0.4-0.4-0.5-0.6c0,0-0.1-0.1-0.1-0.1s0-0.1-0.1-0.1c0,0-0.1-0.1-0.1-0.1c0,0,0-0.1-0.1-0.1
		l0.1,0.1l-0.5-0.6c-0.1-0.2-0.2-0.3-0.3-0.4c-0.1-0.1-0.2-0.2-0.2-0.3l-0.1-0.2c0,0-0.1-0.1-0.2-0.2c-0.1-0.1-0.1-0.1-0.2-0.2
		l-1.6-3.5l7,0.3c0.3-0.6,0.5-1.2,0.8-1.8c0.3-0.6,0.5-1.2,0.8-1.8c0.1-0.3,0.2-0.5,0.4-0.8c0.1-0.3,0.3-0.6,0.4-0.8
		c0,0,0-0.1,0-0.1c0,0,0-0.1,0-0.1c0-0.1,0.1-0.2,0.1-0.2c0.2-0.5,0.4-0.9,0.5-1.2c0.1-0.3,0.2-0.5,0.4-0.8c0.1-0.3,0.3-0.6,0.5-1
		c0.2-0.4,0.5-1,0.9-1.8c-0.4,0.4-0.8,0.7-1.1,0.9c-0.3,0.3-0.6,0.5-1,0.8c-0.3,0.2-0.5,0.4-0.7,0.5c-0.2,0.2-0.4,0.3-0.6,0.4
		c-0.1,0.1-0.2,0.2-0.4,0.3c-0.1,0.1-0.2,0.2-0.3,0.2c-0.1,0.1-0.2,0.1-0.3,0.2c-0.1,0.1-0.2,0.1-0.2,0.1c0,0-0.1,0.1-0.1,0.1
		c0,0-0.1,0.1-0.1,0.1c-0.5,0.4-1,0.6-1.5,0.8c-0.5,0.2-1,0.3-1.4,0.3c-0.8,0-1.3-0.3-1.6-0.8v0c-0.2-0.3-0.3-0.6-0.2-0.9
		c0-0.3,0.1-0.7,0.3-1.1c0.2-0.4,0.4-0.7,0.7-1.1c0.3-0.4,0.7-0.7,1.1-1c0.2-0.1,0.3-0.2,0.4-0.3c0.1-0.1,0.2-0.2,0.4-0.3
		c0.1-0.1,0.3-0.2,0.5-0.3c0.2-0.1,0.4-0.2,0.6-0.4l0.2-0.2c0.1,0,0.2-0.1,0.2-0.2c0,0,0.1-0.1,0.1-0.1c0,0,0.1-0.1,0.1-0.1
		c0.5-0.3,1.1-0.8,1.8-1.3c0.7-0.5,1.5-1.1,2.5-1.9c0.8-0.6,1.7-1.4,2.6-2.2s2-1.8,3.1-2.9c1-1.9,2.1-3.9,3.2-6.2
		c1.2-2.3,2.6-4.8,4.1-7.6c0,0,0.1-0.1,0.1-0.2c0.1-0.1,0.1-0.2,0.2-0.3c0.5-0.9,1.1-1.8,1.6-2.7c0.5-0.9,1.1-1.8,1.7-2.5
		c0-0.1,0.1-0.2,0.2-0.3c0.1-0.1,0.2-0.3,0.3-0.4l0.1-0.1c0-0.1,0.1-0.2,0.2-0.2c0.1-0.1,0.2-0.2,0.3-0.2l0.1,0c0,0,0,0-0.1,0
		l0.3-0.3c0,0,0.1,0,0.1,0c0,0,0.1,0,0.1-0.1c0.1,0,0.2-0.1,0.5-0.2h0.4c0.1,0,0.2,0,0.2,0c0.1,0,0.2,0.1,0.3,0.1l0,0
		c0.6,0.3,0.9,0.5,1.1,0.8c0.2,0.3,0.3,0.6,0.5,1l0,0.2c0,0.1,0,0.2,0,0.3c0,0.1,0,0.2,0,0.2c0,0.2,0,0.4,0,0.6c0,0.2,0,0.3-0.1,0.5
		c-0.1,0.5-0.2,1-0.3,1.5c-0.2,0.5-0.3,1-0.4,1.4l-0.1,0.3c-0.7,1.9-1.6,3.6-2.5,5.1c-1,1.6-1.9,3-2.8,4.3c-1.3,1.8-2.6,3.5-3.9,4.9
		c-1.3,1.4-2.5,2.8-3.7,3.9c-0.4,0.9-0.8,1.7-1.2,2.5c-0.4,0.8-0.7,1.5-1.1,2.2v0c-1.2,2.5-2.2,4.8-3,6.7c-0.8,1.9-1.5,3.6-2.1,5.2
		l0,0c0,0,0,0,0,0.1c0,0,0,0,0,0.1c0.8,0,1.6-0.1,2.3-0.1c0.8,0,1.6-0.1,2.5-0.1c3.9-0.3,7.5-0.7,10.6-1.3s5.7-1.1,7.8-1.7
		c2.1-0.5,3.9-1.1,5.5-1.6c1.5-0.5,2.9-1,4-1.5c1.3-0.5,2.2-0.9,3-1.2c0.7-0.3,1.4-0.6,1.9-0.9c0.1,0,0.2-0.1,0.3-0.1
		c0.1,0,0.2-0.1,0.3-0.1c0.1,0,0.3-0.1,0.4-0.2c0.1-0.1,0.3-0.1,0.5-0.2h0c0.2-0.1,0.3-0.2,0.5-0.2c0.2-0.1,0.3-0.1,0.5-0.2l0,0
		c0.9-0.4,1.7-0.6,2.5-0.6c0.5,0,0.9,0.1,1.3,0.3C-16.9,294.5-16.6,294.8-16.4,295.1L-16.4,295.1z M-62.3,319
		c-0.3-0.5-0.5-0.9-0.7-1.3s-0.4-0.7-0.6-1.1l0,0c-0.1-0.1-0.2-0.3-0.3-0.4c-0.1-0.1-0.2-0.2-0.3-0.4c-0.1-0.2-0.2-0.3-0.2-0.4
		c0,0-0.1-0.2-0.2-0.3c0,0.1,0,0.2,0,0.4c0,0.1,0,0.2,0,0.4c0,0.1,0,0.3,0,0.5c0,0.1,0,0.2,0,0.2c0.1,0.1,0.2,0.3,0.3,0.5
		c0.1,0.2,0.3,0.4,0.5,0.7c0.5,0.7,1.2,1.4,2,2c0,0,0-0.1-0.1-0.1c0,0,0-0.1-0.1-0.1c0-0.1-0.1-0.2-0.1-0.3
		C-62.2,319.2-62.2,319.1-62.3,319L-62.3,319z M-42.1,266.8c0,0,0,0.1-0.1,0.1c0,0,0,0.1-0.1,0.1C-42.2,266.9-42.1,266.8-42.1,266.8
		z"/>
	<path class="st0" d="M-20.7,296.9c-0.6,0.4-1.1,0.6-1.6,0.6c-0.6,0-0.9-0.2-1-0.6c-0.1-0.4,0-0.9,0.2-1.6s0.6-1.4,1-2.3
		c0.5-0.9,1-1.8,1.5-2.8l0,0c0.1-0.3,0.2-0.5,0.4-0.7c0.2-0.2,0.3-0.5,0.4-0.7c0.5-0.9,0.9-1.8,1.4-2.7c0.4-0.9,0.8-1.6,1-2.2
		c0.1-0.3,0.2-0.6,0.3-0.9c0.1-0.3,0.2-0.5,0.2-0.7h0c0.1-0.5,0.2-0.8,0.3-1l0-0.1c0,0,0,0,0-0.1c0-0.1,0.1-0.2,0.1-0.3
		c0-0.1,0.1-0.2,0.1-0.3l0.5-0.5c0.4-0.3,0.9-0.4,1.4-0.3c0.6,0.1,1,0.3,1.4,0.8v0c0.3,0.3,0.5,0.7,0.6,1.1c0.1,0.4,0.1,0.9,0,1.4
		c-0.1,0.4-0.2,0.8-0.5,1.1c-0.2,0.3-0.5,0.7-0.9,0.9c-0.2,0.2-0.4,0.4-0.7,0.8c-0.3,0.4-0.6,0.9-0.9,1.4c-0.4,0.6-0.7,1.2-1.1,1.9
		c-0.4,0.6-0.8,1.3-1.2,2s-0.8,1.3-1.1,2c-0.4,0.6-0.7,1.2-0.9,1.7c-0.3,0.6-0.6,1.2-0.9,1.7L-20.7,296.9z"/>
	<path class="st0" d="M38.5,295c0.1,0.3,0.2,0.6,0.1,0.9c0,0.3-0.1,0.6-0.3,1c-0.2,0.3-0.4,0.6-0.6,0.9c-0.3,0.3-0.6,0.6-0.9,0.8
		c-0.1,0-0.2,0.1-0.3,0.2c-0.1,0.1-0.2,0.1-0.3,0.2l-0.1,0.1c0,0-0.1,0-0.1,0.1s-0.1,0-0.1,0.1c-0.2,0.1-0.6,0.3-1,0.5
		c-0.4,0.2-0.9,0.5-1.5,0.9c-0.7,0.4-1.6,1-2.7,1.6c-1.1,0.7-2.4,1.5-4,2.6c-1.6,1-3.5,2.3-5.7,3.7c-2.2,1.5-4.8,3.2-7.7,5.1
		c-1.6,1.1-3.3,2.2-5,3.5c-1.7,1.3-3.6,2.7-5.6,4.2c-1.7,1.3-3.7,2.8-5.8,4.5c-2.1,1.7-4.2,3.3-6.4,5c-0.1,0.4-0.2,0.8-0.3,1.1
		c-0.1,0.4-0.2,0.8-0.3,1.2c-0.6,1.9-1.2,3.6-2,5.2c-0.8,1.6-1.6,3-2.7,4.2c-0.5,0.6-1.1,1.1-1.7,1.6c-0.6,0.5-1.2,0.8-1.9,1.1
		c-0.6,0.3-1.3,0.5-2,0.6c-0.7,0.2-1.3,0.3-1.9,0.3c-0.3,0-0.6,0-1,0c-0.3,0-0.6-0.1-0.9-0.1c-0.5-0.1-0.9-0.3-1.3-0.5
		c-0.4-0.3-0.7-0.7-0.9-1.2l0,0c-0.2-0.5-0.3-0.9-0.2-1.3c0-0.4,0.1-0.7,0.2-1.1c0.1-0.3,0.2-0.6,0.3-0.8c0.1-0.2,0.2-0.4,0.3-0.6
		c0.4-0.6,0.8-1.2,1.3-1.7s0.9-1.1,1.3-1.5l-0.1,0.1c0,0,0.1-0.1,0.2-0.2c0.1-0.1,0.1-0.1,0.2-0.2c0.8-0.9,1.7-1.7,2.6-2.6
		c0.9-0.9,2-1.8,3-2.7c0.7-0.6,1.4-1.2,2.1-1.8c0.7-0.6,1.6-1.3,2.6-2c0.2-0.8,0.3-1.6,0.4-2.3c0.1-0.7,0.2-1.4,0.4-2.2
		c0.2-1.3,0.4-2.6,0.5-3.9c0.2-1.3,0.3-2.5,0.4-3.6c0-0.2,0-0.3,0.1-0.5c0-0.2,0-0.4,0.1-0.5c0-0.2,0-0.3,0.1-0.5
		c0-0.2,0-0.3,0.1-0.4c0-0.3,0.1-0.7,0.1-1c0-0.3,0.1-0.7,0.1-1c0.2-1.4,0.3-2.7,0.4-3.8c0.1-1.1,0.3-2.2,0.4-3.2
		c0.2-1.3,0.5-2.5,0.7-3.6c0.3-1.1,0.5-2,0.8-2.7c0.3-0.6,0.5-1.2,0.8-1.7c0.3-0.5,0.5-0.8,0.6-1c0.3-0.3,0.6-0.6,0.9-0.9
		c0.4-0.3,0.7-0.4,1.1-0.6c0.6-0.1,1.1-0.1,1.5,0.1s0.7,0.5,0.9,0.9c0.2,0.3,0.2,0.6,0.2,1c0,0.3-0.1,0.7-0.2,1l-0.1,0.2
		c-0.1,0.1-0.2,0.3-0.2,0.4c-0.1,0.2-0.2,0.3-0.3,0.5l-0.1,0.1c-0.1,0.1-0.2,0.2-0.3,0.4c-0.1,0.2-0.2,0.4-0.3,0.6
		c-0.2,0.4-0.4,0.9-0.7,1.5c-0.3,0.6-0.5,1.5-0.8,2.5c-0.3,1-0.5,2.4-0.8,4s-0.6,3.8-0.9,6.3c-0.1,0.7-0.2,1.5-0.3,2.3
		c0,0.4-0.1,0.8-0.2,1.2c-0.1,0.4-0.1,0.8-0.2,1.3c-0.1,0.6-0.2,1.2-0.3,1.9c-0.1,0.6-0.2,1.3-0.3,1.9c0,0.1,0,0.2-0.1,0.3
		c0,0.1,0,0.2-0.1,0.2c0,0,0,0.1,0,0.2c0,0.1,0,0.1,0,0.2c-0.1,0.1-0.2,0.3-0.2,0.6s0,0.5,0,0.8c0.2-0.1,0.3-0.3,0.5-0.3l0,0
		c1.5-1.1,2.9-2.1,4.1-3c1.2-0.9,2.3-1.7,3.4-2.4c0.3-0.3,0.7-0.5,1-0.7c0.3-0.2,0.7-0.5,1-0.7c0.3-0.2,0.5-0.4,0.8-0.5
		c0.3-0.2,0.5-0.4,0.7-0.5c0.7-0.5,1.4-1,2.1-1.5c0.3-0.2,0.5-0.4,0.9-0.6c0.3-0.2,0.6-0.4,0.9-0.6c0.4-0.3,0.8-0.6,1.3-0.9
		c0.4-0.3,0.9-0.6,1.4-0.9h0c0.3-0.2,0.6-0.4,0.9-0.6c0.3-0.2,0.6-0.4,1-0.7v0c2.4-1.7,4.5-3.1,6.3-4.4c1.8-1.3,3.4-2.4,4.8-3.3
		c1.5-1,2.7-1.9,3.8-2.7c1.1-0.8,2-1.4,2.6-1.9c0.5-0.3,1-0.7,1.4-1c0.4-0.3,0.8-0.6,1.1-0.8l0.1,0c0.5-0.4,0.9-0.7,1.3-0.9
		c0.4-0.3,0.8-0.5,1.2-0.8c0.7-0.5,1.5-0.7,2.2-0.7C37.4,294,38,294.3,38.5,295z M-16.4,339.4c0.5-0.6,0.9-1.4,1.3-2.3
		c0.4-0.9,0.8-1.8,1.1-2.7c-0.7,0.6-1.3,1.1-1.9,1.6s-1.1,1-1.7,1.4c0,0-0.1,0.1-0.2,0.2c-0.1,0.1-0.1,0.1-0.2,0.1
		c-0.7,0.7-1.4,1.3-2.1,2s-1.3,1.4-2,2.2l0,0.1c-0.1,0.1-0.1,0.2-0.2,0.3c-0.1,0.1-0.1,0.2-0.2,0.3c0.7,0,1.3,0,2-0.2
		c0.6-0.2,1.3-0.6,2.1-1.1C-17.6,340.9-17,340.2-16.4,339.4z M-7.8,323.1L-7.8,323.1L-7.8,323.1L-7.8,323.1z"/>
	<path class="st0" d="M127.9,294.5c0.5-0.4,1.1-0.6,1.6-0.6c0.7,0,1.3,0.3,1.8,0.8c0.3,0.4,0.5,0.8,0.5,1.4c0,0.3-0.1,0.7-0.3,1.1
		c-0.2,0.4-0.4,0.7-0.7,0.9c-0.1,0.1-0.2,0.2-0.3,0.2c0,0-0.1,0-0.1,0.1c0,0,0,0-0.1,0.1l-0.3,0.2c-0.2,0.1-0.6,0.3-1,0.6
		c-0.5,0.3-1.1,0.7-1.9,1.3v0l-0.3,0.2c0,0-0.1,0-0.1,0.1c0,0-0.1,0-0.1,0.1c-0.1,0-0.2,0.1-0.2,0.2c-0.1,0.1-0.2,0.1-0.2,0.2
		c-0.8,0.6-1.8,1.2-3.1,2c-1.2,0.8-2.8,1.6-4.6,2.6h0c-1,0.6-2.2,1.1-3.5,1.8c-1.3,0.6-2.8,1.3-4.4,1.9c-1.6,0.6-3.3,1.3-5.2,1.9
		c-1.9,0.6-3.9,1.2-6.1,1.7c-2.2,0.5-4.2,0.9-6.3,1.1s-4,0.4-6,0.4c-1.9,0-3.8-0.1-5.5-0.4c-1.7-0.2-3.3-0.7-4.7-1.3l0,0
		c-0.8-0.3-1.6-0.7-2.3-1.2c-0.7-0.5-1.3-1-1.8-1.6c-0.5-0.6-0.9-1.4-1.1-2.3v0.1c-0.1-0.4-0.2-0.8-0.3-1.2c0-0.4,0-0.8,0-1.2
		c0-1.2,0.2-2.4,0.5-3.5c0.3-1.1,0.7-2.1,1.1-2.9c0.4-0.8,0.9-1.6,1.5-2.3s1-1.3,1.5-1.7c0.4-0.4,0.8-0.7,1.3-1
		c0.5-0.3,1-0.6,1.4-0.9c0.6-0.3,1.1-0.6,1.5-0.8c0.4-0.2,0.7-0.3,0.9-0.4c0.1-0.1,0.2-0.2,0.5-0.2c0.3-0.1,0.7-0.1,1-0.1
		c0.3,0,0.7,0.1,0.9,0.3c0.3,0.2,0.5,0.4,0.7,0.6s0.3,0.5,0.4,0.8c0.1,0.6,0,1.1-0.3,1.7c-0.3,0.5-0.8,0.9-1.4,1.1l0.1-0.1
		c0,0-0.1,0.1-0.2,0.1c-0.1,0-0.2,0.1-0.2,0.1c0,0-0.1,0-0.2,0.1c-0.1,0-0.2,0.1-0.3,0.1c-0.1,0-0.1,0-0.2,0.1
		c-0.1,0-0.2,0.1-0.3,0.1c-0.2,0.1-0.4,0.2-0.6,0.2c-0.2,0.1-0.5,0.2-0.7,0.4h0c-0.3,0.2-0.7,0.5-1.1,0.7s-0.8,0.7-1.2,1.1
		c-0.4,0.5-0.9,1-1.3,1.7s-0.7,1.4-1,2.2c-0.3,0.9-0.4,2-0.5,3.1c0,0.4,0.1,0.8,0.3,1.2c0.2,0.4,0.5,0.8,0.9,1.1
		c0.5,0.4,1,0.8,1.7,1.1c0.6,0.3,1.3,0.6,2.1,0.8c0.7,0.2,1.6,0.4,2.5,0.6c0.9,0.1,1.8,0.2,2.8,0.3c0.3,0,0.7,0,1.1,0.1
		c0.4,0,0.8,0,1.1,0c1.7,0,3.5-0.1,5.4-0.3c1.9-0.2,3.8-0.6,5.8-1c1.9-0.4,3.7-0.9,5.4-1.5c1.7-0.6,3.2-1.1,4.7-1.7
		c1.3-0.5,2.6-1.1,3.8-1.7c1.2-0.6,2.3-1.2,3.3-1.7l0,0c1.9-1,3.5-2,4.8-2.9c1.3-0.9,2.4-1.6,3.1-2.2c0.7-0.6,1.4-1.1,1.9-1.6
		c0.5-0.4,0.9-0.8,1.3-1.1c0,0,0.1-0.1,0.2-0.1s0.1-0.1,0.2-0.1c0.2-0.2,0.3-0.3,0.5-0.5C127.5,294.7,127.7,294.6,127.9,294.5z"/>
	<path class="st0" d="M210.2,294.7c0.2,0.3,0.3,0.6,0.2,0.9c0,0.4-0.2,0.8-0.4,1.2c-0.2,0.4-0.5,0.8-0.9,1.3
		c-0.4,0.4-0.8,0.8-1.3,1.2c0,0-0.1,0.1-0.2,0.1s-0.2,0.1-0.2,0.1l0,0c0,0-0.1,0.1-0.1,0.1l0,0c-0.2,0.1-0.5,0.3-0.7,0.5
		c-0.3,0.2-0.7,0.4-1.1,0.7c-0.7,0.4-1.6,1-2.8,1.7s-2.6,1.6-4.1,2.5c-0.9,0.5-1.9,1.1-3,1.7c-1.1,0.6-2.4,1.2-3.7,1.9
		c-1.3,0.6-2.8,1.3-4.6,2.1c-1.7,0.7-3.6,1.4-5.6,2.1c-1.1,0.3-2.2,0.6-3.3,0.9c-1.1,0.3-2.3,0.6-3.5,0.8c-0.9,0.1-1.8,0.3-2.8,0.3
		c-1,0.1-2,0.1-3.1,0.1c-0.3,0-0.7,0-1.1,0c-0.4,0-0.8,0-1.1-0.1c-1.5-0.1-3-0.3-4.5-0.7s-3.1-1-4.5-1.7c-1.5-0.8-2.9-1.8-4.3-3
		c-1.4-1.2-2.6-2.6-3.7-4.1c-1-1.5-1.8-2.9-2.4-4.3c-0.1-0.3-0.3-0.7-0.4-1c-0.1-0.3-0.2-0.7-0.4-1c-0.9,0.6-1.8,1.2-2.7,1.7
		c-0.9,0.5-1.7,1.1-2.5,1.6c-2,1.3-3.9,2.5-5.6,3.7c-1.7,1.1-3.3,2.2-4.7,3.2c-0.7,0.5-1.4,1-2.1,1.5c-0.6,0.5-1.3,0.9-1.9,1.4
		c-0.1,0-0.2,0.1-0.4,0.2c-0.1,0.1-0.3,0.2-0.4,0.3c-0.1,0.1-0.3,0.2-0.4,0.3c-0.1,0.1-0.4,0.3-0.7,0.5l-0.1,0.1
		c0,0.1-0.2,0.3-0.4,0.6c-0.2,0.3-0.5,0.5-0.9,0.5c-0.1,0.1-0.2,0.3-0.2,0.4c-0.1,0.1-0.1,0.2-0.1,0.2l-1.9-1.9l0-0.7l0-1.2
		c0,0,0.1,0,0.1,0c0,0,0.1,0,0.2-0.1l0.2-0.3c0.1-0.3,0.2-0.6,0.4-0.9c0.1-0.3,0.3-0.6,0.4-0.8v0c0.3-0.7,0.6-1.5,0.9-2.2
		c0.3-0.7,0.6-1.4,0.9-2l0,0c0.1-0.3,0.3-0.7,0.5-1s0.3-0.7,0.5-1h0c0.2-0.4,0.3-0.8,0.5-1.1c0.2-0.4,0.3-0.7,0.5-1.1
		c0.2-0.4,0.3-0.7,0.4-1c0.1-0.2,0.2-0.5,0.3-0.7c0-0.1,0.1-0.2,0.1-0.2s0-0.1,0-0.1c0,0,0-0.1,0.1-0.2c0-0.1,0.1-0.2,0.2-0.4
		c-0.1-0.1-0.3-0.2-0.5-0.3c-0.2-0.1-0.4-0.2-0.4-0.4c-0.1-0.3-0.2-0.6-0.1-0.9c0.1-0.3,0.2-0.7,0.5-1.1c0.2-0.4,0.5-0.8,0.9-1.2
		c0.4-0.4,0.7-0.8,1.2-1.1c0.1-0.1,0.2-0.2,0.3-0.3c0.1-0.1,0.2-0.2,0.3-0.2c0,0,0.1-0.1,0.2-0.2c0.1-0.1,0.2-0.2,0.3-0.3
		c0.9-2.1,2-4.4,3.2-7.1c1.2-2.6,2.6-5.7,4.2-9.2c0.1-0.2,0.2-0.4,0.3-0.6c0.1-0.2,0.2-0.4,0.3-0.6c0.5-1.1,1-2.2,1.5-3.3
		c0.5-1.1,1-2.1,1.4-3c0.3-0.7,0.6-1.3,0.9-2c0.3-0.6,0.6-1.3,0.9-1.9c1-2.1,1.8-4,2.7-5.8c0.8-1.8,1.6-3.4,2.3-4.8
		c0-0.1,0.1-0.2,0.1-0.3c0,0,0,0,0,0s0-0.1,0.1-0.1c0.1-0.3,0.2-0.5,0.3-0.7c0.1-0.2,0.2-0.4,0.3-0.7c0.2-0.4,0.4-0.8,0.5-1.1
		s0.3-0.7,0.5-1.1v0c0.1-0.3,0.3-0.6,0.4-1c0.2-0.3,0.3-0.6,0.5-0.9l0.2-0.4c0-0.1,0.1-0.2,0.2-0.3s0.1-0.3,0.2-0.3l0.1-0.1l0,0
		c0-0.1,0.1-0.2,0.2-0.2c0.1-0.1,0.1-0.2,0.2-0.2v0.1l0.1,0.1c0.1-0.2,0.2-0.4,0.3-0.5s0.2-0.2,0.3-0.3c0.2-0.1,0.4-0.2,0.7-0.3
		c0.3-0.1,0.6-0.2,0.9-0.1c0.5,0,0.9,0.2,1.2,0.5s0.5,0.6,0.6,0.8c0.1,0.3,0.2,0.6,0.3,0.9c0,0.3,0.1,0.5,0.1,0.7c0,0.3,0,0.7,0,1
		c0,0.4-0.1,0.7-0.1,0.9c0,0,0,0.1,0,0.1s0,0.1,0,0.1v0.3c-0.1,0.6-0.2,1.3-0.4,2.1c-0.2,0.8-0.4,1.7-0.6,2.6
		c-0.7,2.5-1.4,4.9-2.2,7.1c-0.8,2.2-1.5,4.2-2.3,6.1c-0.8,1.8-1.5,3.5-2.2,5.1c-0.7,1.6-1.4,3-2.1,4.3c-1.4,2.6-2.6,4.9-3.8,6.7
		c-1.1,1.8-2.2,3.3-3,4.5c-0.8,1.2-1.6,2.1-2.2,2.9s-1.3,1.4-1.8,2l0,0c-0.3,0.3-0.6,0.7-0.9,0.9c-0.3,0.3-0.6,0.6-0.9,0.9
		c-0.6,1.4-1.2,2.6-1.6,3.6c-0.4,1-0.8,1.8-1.2,2.6c-0.4,0.8-0.7,1.5-1.1,2.3c-0.3,0.7-0.8,1.6-1.3,2.6c0.6-0.4,1.2-0.8,1.8-1.2
		c0.6-0.4,1.3-0.9,2-1.4c1.3-0.9,2.7-1.8,4.2-2.8c1.5-1,3.1-2.1,5-3.2c0.3-0.2,0.7-0.4,1-0.6c0.3-0.2,0.7-0.5,1.1-0.7l0.3-0.2
		c0,0,0.1-0.1,0.2-0.1c0.1,0,0.1-0.1,0.2-0.1c0.3-0.2,0.5-0.3,0.7-0.5c0.2-0.2,0.5-0.3,0.7-0.5l-0.1,0.1c0,0,0,0,0.1,0s0,0,0.1,0
		c0,0,0.1-0.1,0.1-0.2c0-0.1,0.1-0.1,0.2-0.1c0.1,0,0.2-0.1,0.3-0.2c0.1-0.1,0.2-0.1,0.3-0.2l0.1,0.4v-0.4c0.1,0,0.3,0,0.3-0.1
		c0.1,0,0.2-0.1,0.2-0.1c0.2-0.1,0.4-0.2,0.6-0.2c0.2,0,0.3,0,0.5,0.1c0.2,0.1,0.3,0.2,0.5,0.5s0.4,0.6,0.6,1.1l0,0.1l0,0.2l0.1,0.2
		c0.3,1.1,0.7,2.2,1.3,3.3c0.5,1.1,1.2,2.2,1.9,3.3s1.6,2,2.5,2.8c0.9,0.9,1.9,1.6,2.9,2.2c1,0.6,2,1.1,3.1,1.5
		c1.1,0.4,2.2,0.7,3.3,0.9h0c0.7,0.1,1.5,0.2,2.2,0.3c0.7,0.1,1.4,0.1,2,0.1c1.5,0,2.8-0.1,4.2-0.3c1.3-0.2,2.6-0.4,3.8-0.7
		c1.8-0.4,3.5-1,5.1-1.5c1.6-0.6,3.1-1.2,4.5-1.8c0.6-0.3,1.2-0.5,1.8-0.9c0.6-0.3,1.3-0.6,1.9-0.9c0.6-0.3,1.2-0.6,1.8-0.9
		c0.6-0.3,1.1-0.6,1.6-0.9c1.9-1.1,3.5-2.1,4.9-3c1.4-0.9,2.5-1.6,3.4-2.2c0,0,0.1-0.1,0.2-0.1s0.1-0.1,0.2-0.1
		c0.9-0.6,1.6-1.1,2.2-1.5s0.9-0.6,1.1-0.8c0.5-0.3,1-0.6,1.6-0.9c0.5-0.2,1-0.4,1.5-0.5c0.5-0.1,0.9-0.1,1.2,0
		C209.7,294.3,210,294.4,210.2,294.7z M148.8,261.1c-0.2,0.4-0.3,0.7-0.5,1.1c-0.2,0.4-0.3,0.7-0.5,1.1c-0.3,0.5-0.5,1.1-0.7,1.6
		c-0.2,0.6-0.5,1.1-0.7,1.7c-0.3,0.8-0.7,1.5-1,2.3c-0.3,0.8-0.7,1.6-1,2.4s-0.6,1.5-0.9,2c-0.2,0.5-0.4,1-0.6,1.4
		c-0.2,0.4-0.3,0.8-0.5,1.1c-0.2,0.4-0.3,0.8-0.5,1.2c-0.2,0.4-0.4,1-0.7,1.6s-0.6,1.4-1,2.3c0.3-0.4,0.5-0.8,0.6-1.1
		c0.2-0.3,0.4-0.7,0.7-1.1c0.8-1.4,1.6-2.9,2.5-4.7c0.9-1.7,1.8-3.6,2.7-5.5c0.8-1.9,1.7-4.1,2.5-6.4c0.9-2.4,1.7-4.9,2.4-7.5
		c-0.4,0.9-0.8,1.8-1.2,2.7c-0.4,0.9-0.8,1.8-1.2,2.8l0,0c0,0.1-0.1,0.2-0.1,0.3s-0.1,0.2-0.1,0.3L148.8,261.1L148.8,261.1z
		 M152.1,246.2l-0.3,0.3c0.1-0.2,0.2-0.2,0.2-0.2C152,246.3,152.1,246.2,152.1,246.2z"/>
	<path class="st0" d="M206.2,294.6c0.6-0.5,1.2-0.7,1.8-0.7c0.3,0,0.6,0.1,1,0.2c0.3,0.1,0.6,0.3,0.8,0.6c0.4,0.5,0.5,1.1,0.4,1.7
		c-0.1,0.7-0.5,1.2-1.1,1.8c-0.1,0-0.1,0.1-0.2,0.1c0,0-0.1,0.1-0.1,0.1c0,0-0.1,0-0.1,0.1c-0.1,0.1-0.3,0.2-0.6,0.4
		s-0.6,0.5-1.1,0.8l0,0c-0.4,0.4-1,0.9-1.6,1.4c-0.6,0.6-1.4,1.3-2.3,2.2l-0.1,0.1h0c-0.4,0.5-0.9,1-1.3,1.5
		c-0.5,0.6-0.9,1.2-1.4,1.8v0c-0.4,0.6-0.8,1.2-1.3,2c-0.4,0.7-0.8,1.6-1.2,2.5c0.5-0.3,1.1-0.6,1.7-0.9s1.2-0.8,1.8-1.1
		c1.4-0.9,2.9-1.9,4.5-3c0,0,0.1-0.1,0.1-0.1c0,0,0.1,0,0.1-0.1c0.3-0.3,0.7-0.5,1-0.7l0.6-0.5c0,0,0.1-0.1,0.2-0.2
		c0.1-0.1,0.1-0.1,0.2-0.2l0.7-0.1l1.6,0l0.6,0.4c0,0,0.1,0,0.1,0.1s0,0,0.1,0.1c0.1,0,0.2,0.1,0.3,0.2s0.5,0.3,1,0.5
		c0.5,0.3,1.3,0.7,2.3,1.2c1,0.5,2.5,1.2,4.3,2.2c0.6,0.3,1.2,0.5,1.9,0.7c0.7,0.2,1.4,0.5,2.1,0.7c0.6,0.2,1.4,0.4,2.3,0.6
		c0.9,0.2,1.9,0.3,3,0.5c0.2,0,0.5,0,0.7,0c0.3,0,0.5,0,0.8,0c0.3,0,0.7,0,1.1,0c0.4,0,0.9-0.1,1.4-0.1c0.7-0.1,1.6-0.3,2.5-0.6
		c0.9-0.3,1.8-0.6,2.7-1c2.1-1,3.9-2,5.5-3c1.6-1,3-2,4.2-2.8c1.3-0.9,2.4-1.7,3.3-2.5s1.8-1.5,2.5-2.1c0.9-0.8,1.7-1.6,2.3-2.2
		c0.7-0.7,1.2-1.2,1.5-1.5l0.3-0.2c0.3-0.3,0.6-0.5,1-0.6c0.4-0.2,0.7-0.2,1.1-0.2c0.3,0,0.5,0,0.7,0.1c0.2,0.1,0.5,0.2,0.7,0.4
		c0.5,0.4,0.7,0.9,0.7,1.6c0,0.3-0.1,0.7-0.2,1.1s-0.4,0.7-0.7,1c-0.1,0.1-0.2,0.2-0.3,0.3c-0.1,0.1-0.3,0.3-0.5,0.5s-0.6,0.5-1,0.8
		c-0.4,0.3-0.9,0.8-1.6,1.3c-0.6,0.5-1.4,1.2-2.5,2c-1,0.8-2.2,1.6-3.5,2.6c-0.6,0.5-1.4,1-2.3,1.5c-0.9,0.6-1.8,1.1-2.8,1.7
		c-1,0.6-2.1,1.2-3.2,1.8c-1.1,0.6-2.3,1.2-3.5,1.8c-1.2,0.6-2.5,1-3.7,1.3c-1.2,0.3-2.3,0.5-3.3,0.6c-0.3,0-0.7,0.1-1.1,0.1
		c-0.4,0-0.8,0-1.1,0c-0.5,0-1.1,0-1.6-0.1c-0.6,0-1.1-0.1-1.5-0.1c-1.3-0.1-2.5-0.3-3.7-0.6c-1.2-0.2-2.2-0.5-3.1-0.7
		c-0.9-0.3-1.7-0.5-2.5-0.8c-0.8-0.3-1.7-0.6-2.6-1c-0.5-0.2-1-0.4-1.5-0.7c-0.5-0.3-1.1-0.5-1.6-0.9l0,0c0,0-0.1,0-0.1-0.1
		c0,0,0,0-0.1-0.1c-0.3-0.1-0.5-0.3-0.8-0.5c-0.3-0.2-0.6-0.3-0.9-0.5c-0.1-0.1-0.2-0.1-0.2-0.1s-0.1-0.1-0.2-0.2
		c-1.6,1-3.1,1.9-4.5,2.7c-1.4,0.8-2.6,1.4-3.7,2c-0.5,0.3-1,0.5-1.6,0.8c-0.6,0.3-1.2,0.5-1.8,0.7c-0.2,0.1-0.5,0.1-0.7,0.1
		c-0.3,0-0.5,0-0.8,0c-0.3,0-0.6-0.2-1-0.3c-0.3-0.2-0.5-0.4-0.7-0.6s-0.3-0.6-0.3-0.9l0,0.1c0-0.3-0.1-0.5,0-0.8
		c0-0.3,0.1-0.5,0.1-0.8l0,0c0-0.1,0.1-0.3,0.1-0.5s0.1-0.4,0.2-0.6v0c0.3-1.2,0.8-2.2,1.2-3c0.5-0.9,0.9-1.7,1.4-2.3
		c0.5-0.7,0.9-1.3,1.3-1.9c0.4-0.6,0.8-1.1,1.2-1.5c0.7-0.8,1.3-1.6,1.8-2.2c0.6-0.6,1-1.2,1.4-1.6l0.3-0.2c0.2-0.2,0.3-0.3,0.4-0.4
		c0.1-0.1,0.2-0.2,0.3-0.3c0.5-0.6,0.9-1,1.3-1.3C205.5,295.2,205.8,294.9,206.2,294.6z M197,311.5
		C196.9,311.5,196.9,311.5,197,311.5C196.9,311.5,196.9,311.5,197,311.5C196.9,311.5,197,311.5,197,311.5z M197.7,312
		C197.7,312,197.7,312,197.7,312C197.7,312,197.7,312,197.7,312z"/>
	<path class="st0" d="M309.9,295.1c0.1,0.3,0.1,0.6,0,0.9c-0.1,0.3-0.3,0.7-0.5,1c-0.2,0.3-0.6,0.6-0.9,1c-0.4,0.3-0.8,0.6-1.3,0.8
		c0,0-0.1,0-0.1,0.1c0,0-0.1,0-0.1,0.1c-0.2,0.1-0.4,0.2-0.6,0.2c-0.2,0.1-0.5,0.2-0.9,0.3c-0.2,0.1-0.5,0.2-0.8,0.3
		c-0.3,0.1-0.7,0.2-1.1,0.4c-0.2,0.1-0.4,0.1-0.6,0.2c-0.2,0.1-0.5,0.2-0.7,0.3l-0.3,0.1h0c-1,0.3-2.3,0.8-4,1.3
		c-1.7,0.5-3.8,1.1-6.2,1.7c-2.6,0.6-5.7,1.3-9.4,2c-3.7,0.7-7.8,1.1-12.4,1.4c-0.5,0-1,0-1.5,0.1c-0.4,0-0.9,0-1.3,0.1
		c-0.4,0-0.9,0-1.4,0.1s-1,0-1.6,0c0,0,0,0.1,0,0.1c0,0,0,0.1,0,0.1c-0.2,0.5-0.4,1-0.5,1.4s-0.3,0.9-0.5,1.5
		c0.7,0.9,1.4,1.8,2.1,2.8c0.7,1,1.4,2.1,2.2,3.4c0,0.1,0.1,0.2,0.2,0.3c0.1,0.1,0.1,0.2,0.2,0.3c0.2,0.4,0.4,0.7,0.6,1.1
		c0.2,0.4,0.4,0.8,0.5,1.2c0,0.1,0,0.2,0,0.2c0.1,0.3,0.2,0.6,0.3,1c0.1,0.3,0.1,0.7,0.1,1.1c0,0.3-0.1,0.6-0.2,1
		c-0.1,0.4-0.4,0.8-0.7,1.3c-0.4,0.4-0.9,0.7-1.3,0.8s-0.8,0.1-1.2,0.1c-0.5,0-1-0.1-1.3-0.3c-0.3-0.1-0.7-0.3-1-0.5
		c-0.2-0.1-0.4-0.2-0.7-0.5c-0.3-0.2-0.6-0.4-0.9-0.6c-0.5-0.4-1-0.8-1.4-1.3c-0.5-0.4-0.9-0.9-1.3-1.4c-0.2-0.3-0.4-0.6-0.6-1
		c-0.2-0.4-0.4-0.8-0.6-1.3c-0.3-0.6-0.4-1.1-0.4-1.6c0-0.5,0-0.9,0-1.2c0,0,0-0.1,0-0.1c0,0,0-0.1,0-0.1c0.1-0.7,0.2-1.3,0.3-1.9
		c0.1-0.6,0.3-1.2,0.5-1.8v0c0-0.1,0-0.2,0.1-0.2l0.1-0.1c0-0.1,0-0.2,0.1-0.3c0-0.1,0-0.2,0.1-0.4c-0.1-0.1-0.1-0.2-0.2-0.3
		c-0.1-0.1-0.1-0.1-0.2-0.3l0,0c-0.2-0.2-0.4-0.4-0.5-0.6c0,0-0.1-0.1-0.1-0.1s0-0.1-0.1-0.1c0,0-0.1-0.1-0.1-0.1s0-0.1-0.1-0.1
		l0.1,0.1l-0.5-0.6c-0.1-0.2-0.2-0.3-0.3-0.4c-0.1-0.1-0.2-0.2-0.2-0.3l-0.1-0.2c0,0-0.1-0.1-0.2-0.2c-0.1-0.1-0.1-0.1-0.2-0.2
		l-1.6-3.5l7,0.3c0.3-0.6,0.5-1.2,0.8-1.8c0.3-0.6,0.5-1.2,0.8-1.8c0.1-0.3,0.2-0.5,0.4-0.8c0.1-0.3,0.3-0.6,0.4-0.8
		c0,0,0-0.1,0-0.1c0,0,0-0.1,0-0.1c0-0.1,0.1-0.2,0.1-0.2c0.2-0.5,0.4-0.9,0.5-1.2c0.1-0.3,0.2-0.5,0.4-0.8c0.1-0.3,0.3-0.6,0.5-1
		c0.2-0.4,0.5-1,0.9-1.8c-0.4,0.4-0.8,0.7-1.1,0.9c-0.3,0.3-0.6,0.5-1,0.8c-0.3,0.2-0.5,0.4-0.7,0.5c-0.2,0.2-0.4,0.3-0.6,0.4
		c-0.1,0.1-0.2,0.2-0.4,0.3c-0.1,0.1-0.2,0.2-0.3,0.2c-0.1,0.1-0.2,0.1-0.3,0.2c-0.1,0.1-0.2,0.1-0.2,0.1c0,0-0.1,0.1-0.1,0.1
		c0,0-0.1,0.1-0.1,0.1c-0.5,0.4-1,0.6-1.5,0.8s-1,0.3-1.4,0.3c-0.8,0-1.3-0.3-1.6-0.8v0c-0.2-0.3-0.3-0.6-0.2-0.9
		c0-0.3,0.1-0.7,0.3-1.1c0.2-0.4,0.4-0.7,0.7-1.1c0.3-0.4,0.7-0.7,1.1-1c0.2-0.1,0.3-0.2,0.4-0.3c0.1-0.1,0.2-0.2,0.4-0.3
		c0.1-0.1,0.3-0.2,0.5-0.3c0.2-0.1,0.4-0.2,0.6-0.4l0.2-0.2c0.1,0,0.2-0.1,0.2-0.2c0,0,0.1-0.1,0.1-0.1c0,0,0.1-0.1,0.1-0.1
		c0.5-0.3,1.1-0.8,1.8-1.3c0.7-0.5,1.5-1.1,2.5-1.9c0.8-0.6,1.7-1.4,2.6-2.2c1-0.8,2-1.8,3.1-2.9c1-1.9,2.1-3.9,3.2-6.2
		c1.2-2.3,2.6-4.8,4.1-7.6c0,0,0.1-0.1,0.1-0.2c0.1-0.1,0.1-0.2,0.2-0.3c0.5-0.9,1.1-1.8,1.6-2.7c0.5-0.9,1.1-1.8,1.7-2.5
		c0-0.1,0.1-0.2,0.2-0.3c0.1-0.1,0.2-0.3,0.3-0.4l0.1-0.1c0-0.1,0.1-0.2,0.2-0.2c0.1-0.1,0.2-0.2,0.3-0.2l0.1,0c0,0,0,0-0.1,0
		l0.3-0.3c0,0,0.1,0,0.1,0c0,0,0.1,0,0.1-0.1c0.1,0,0.2-0.1,0.5-0.2h0.4c0.1,0,0.2,0,0.2,0c0.1,0,0.2,0.1,0.3,0.1l0,0
		c0.6,0.3,0.9,0.5,1.1,0.8c0.2,0.3,0.3,0.6,0.5,1l0,0.2c0,0.1,0,0.2,0,0.3c0,0.1,0,0.2,0,0.2c0,0.2,0,0.4,0,0.6c0,0.2,0,0.3-0.1,0.5
		c-0.1,0.5-0.2,1-0.3,1.5c-0.2,0.5-0.3,1-0.4,1.4l-0.1,0.3c-0.7,1.9-1.6,3.6-2.5,5.1c-1,1.6-1.9,3-2.8,4.3c-1.3,1.8-2.6,3.5-3.9,4.9
		c-1.3,1.4-2.5,2.8-3.7,3.9c-0.4,0.9-0.8,1.7-1.2,2.5c-0.4,0.8-0.7,1.5-1.1,2.2v0c-1.2,2.5-2.2,4.8-3,6.7c-0.8,1.9-1.5,3.6-2.1,5.2
		l0,0c0,0,0,0,0,0.1c0,0,0,0,0,0.1c0.8,0,1.6-0.1,2.3-0.1c0.8,0,1.6-0.1,2.5-0.1c3.9-0.3,7.5-0.7,10.6-1.3c3.1-0.6,5.7-1.1,7.8-1.7
		c2.1-0.5,3.9-1.1,5.5-1.6c1.5-0.5,2.9-1,4-1.5c1.3-0.5,2.2-0.9,3-1.2c0.7-0.3,1.4-0.6,1.9-0.9c0.1,0,0.2-0.1,0.3-0.1
		c0.1,0,0.2-0.1,0.3-0.1c0.1,0,0.3-0.1,0.4-0.2c0.1-0.1,0.3-0.1,0.5-0.2h0c0.2-0.1,0.3-0.2,0.5-0.2c0.2-0.1,0.3-0.1,0.5-0.2l0,0
		c0.9-0.4,1.7-0.6,2.5-0.6c0.5,0,0.9,0.1,1.3,0.3C309.4,294.5,309.7,294.8,309.9,295.1L309.9,295.1z M264,319
		c-0.3-0.5-0.5-0.9-0.7-1.3c-0.2-0.4-0.4-0.7-0.6-1.1l0,0c-0.1-0.1-0.2-0.3-0.3-0.4c-0.1-0.1-0.2-0.2-0.3-0.4
		c-0.1-0.2-0.2-0.3-0.2-0.4c0,0-0.1-0.2-0.2-0.3c0,0.1,0,0.2,0,0.4c0,0.1,0,0.2,0,0.4c0,0.1,0,0.3,0,0.5c0,0.1,0,0.2,0,0.2
		c0.1,0.1,0.2,0.3,0.3,0.5c0.1,0.2,0.3,0.4,0.5,0.7c0.5,0.7,1.2,1.4,2,2c0,0,0-0.1-0.1-0.1c0,0,0-0.1-0.1-0.1c0-0.1-0.1-0.2-0.1-0.3
		C264.1,319.2,264,319.1,264,319L264,319z M284.1,266.8c0,0,0,0.1-0.1,0.1c0,0,0,0.1-0.1,0.1C284.1,266.9,284.1,266.8,284.1,266.8z"
		/>
</g>
</svg>
