<?xml version="1.0" encoding="utf-8"?>
<!-- Generator: Adobe Illustrator 19.1.0, SVG Export Plug-In . SVG Version: 6.00 Build 0)  -->
<svg version="1.1" id="Layer_1" xmlns="http://www.w3.org/2000/svg" xmlns:xlink="http://www.w3.org/1999/xlink" x="0px" y="0px"
	 viewBox="0 0 60 60" style="enable-background:new 0 0 60 60;" xml:space="preserve">
<style type="text/css">
	.st0{fill:#FFFFFF;}
</style>
<g>
	<g>
		<path d="M55.9,29.4C56,43.9,44.4,55.5,29.7,55.6C15.8,55.7,4.2,43.9,4.1,29.5C4,15.3,15.6,3.4,29.6,3.3
			C44.2,3.2,55.8,14.8,55.9,29.4z M18.5,27.4c0,3.2-0.1,6.3,0,9.4c0.1,1.8,1.6,3.1,3.6,3.1c5.1,0,10.2,0,15.3,0
			c2.1,0,3.6-1.5,3.6-3.6c0-1.6,0-3.3,0-4.9c0-1.3,0-2.7,0-4c-1.6,0-3.1,0-4.5,0c-0.2,5-2.5,7.8-6.4,8c-1.8,0.1-3.4-0.4-4.8-1.6
			c-2-1.7-2.6-3.9-2.4-6.5C21.5,27.4,20.1,27.4,18.5,27.4z M41,24.8c0-1.6,0.1-3,0-4.4c-0.1-1.6-1.6-2.9-3.3-2.9c-5.3,0-10.6,0-16,0
			c-1.6,0-3.1,1.3-3.2,2.9c-0.1,1.5,0,2.9,0,4.5c1.8,0,3.6,0,5.3,0c0.3,0,0.6-0.3,0.8-0.6c2.9-3.1,7.2-3.1,10.2,0
			c0.3,0.3,0.6,0.6,1,0.6C37.5,24.9,39.2,24.8,41,24.8z M29.8,24.5c-2.3,0-4.2,1.8-4.3,4.1c-0.1,2.3,1.8,4.3,4.2,4.3
			c2.3,0,4.2-1.8,4.3-4.1C34.1,26.5,32.2,24.5,29.8,24.5z"/>
		<path class="st0" d="M18.5,27.4c1.6,0,3,0,4.6,0c-0.3,2.6,0.4,4.8,2.4,6.5c1.4,1.2,3,1.6,4.8,1.6c3.9-0.2,6.2-3,6.4-8
			c1.4,0,2.9,0,4.5,0c0,1.3,0,2.7,0,4c0,1.6,0,3.3,0,4.9c0,2.1-1.5,3.6-3.6,3.6c-5.1,0-10.2,0-15.3,0c-1.9,0-3.5-1.3-3.6-3.1
			C18.4,33.8,18.5,30.7,18.5,27.4z"/>
		<path class="st0" d="M41,24.8c-1.8,0-3.5,0-5.2,0c-0.3,0-0.7-0.3-1-0.6c-3-3.1-7.3-3.1-10.2,0c-0.2,0.2-0.5,0.6-0.8,0.6
			c-1.7,0.1-3.5,0-5.3,0c0-1.6-0.1-3.1,0-4.5c0.2-1.6,1.6-2.9,3.2-2.9c5.3,0,10.6,0,16,0c1.7,0,3.1,1.3,3.3,2.9
			C41.1,21.8,41,23.3,41,24.8z M36.1,20.6c0,1.7,0.1,1.8,1.5,1.8c1.5,0,1.5,0,1.6-1.5c0.1-1.1-0.2-1.7-1.5-1.6
			C36.6,19.4,35.9,19.5,36.1,20.6z"/>
		<path class="st0" d="M29.8,24.5c2.4,0,4.2,2,4.2,4.3c-0.1,2.3-2,4.1-4.3,4.1c-2.4,0-4.2-2-4.2-4.3C25.6,26.3,27.5,24.5,29.8,24.5z
			"/>
		<path d="M36.1,20.6c-0.3-1.2,0.5-1.3,1.6-1.3c1.3-0.1,1.5,0.5,1.5,1.6c-0.1,1.5-0.1,1.5-1.6,1.5C36.2,22.4,36.1,22.4,36.1,20.6z"
			/>
	</g>
</g>
</svg>
