<?xml version="1.0" encoding="utf-8"?>
<!-- Generator: Adobe Illustrator 19.1.0, SVG Export Plug-In . SVG Version: 6.00 Build 0)  -->
<svg version="1.1" id="Layer_1" xmlns="http://www.w3.org/2000/svg" xmlns:xlink="http://www.w3.org/1999/xlink" x="0px" y="0px"
	 viewBox="0 0 60 60" style="enable-background:new 0 0 60 60;" xml:space="preserve">
<style type="text/css">
	.st0{fill:#FFFFFF;}
</style>
<g>
	<g>
		<path d="M55.9,29.5c-0.1,14.6-11.7,26.2-26.3,26.1c-14,0-25.6-11.9-25.6-26.1c0.1-14.6,11.7-26.2,26-26.2
			C44.4,3.4,56,15.1,55.9,29.5z M28.8,32.7c0.1,0.1,0.5,0.2,0.7,0.4c1.6,1.2,3.5,1.4,5.4,0.9c3.8-1,5.6-3.8,6.5-7.3
			c1.6-6.3-1.3-11.3-7.5-12.5c-1.9-0.4-4-0.4-5.9-0.1c-5.5,0.9-9.1,5.5-8.7,10.9c0.1,1.8,0.7,3.5,2.4,4.4c0.5,0.3,1.2,0.3,1.8,0.5
			c0.1-0.8,0.2-1.5,0.3-2.3c0-0.3-0.4-0.6-0.5-0.9c-0.2-0.6-0.5-1.3-0.6-1.9c-0.4-5.2,5.2-9.5,10.3-8.1c2.2,0.6,3.8,1.8,4.4,4.1
			c0.8,2.9,0.4,5.7-1.2,8.2c-0.6,0.9-1.7,1.8-2.7,2.2c-2.5,0.9-4.2-0.7-3.6-3.2c0.2-0.9,0.5-1.7,0.7-2.5c0.2-0.8,0.5-1.6,0.6-2.4
			c0.2-1.6-0.2-2.3-1.2-2.8c-1.3-0.5-2.5-0.1-3.4,1.1c-1,1.6-1.2,3.2-0.7,5c0.1,0.5,0.2,1.2,0.1,1.7c-0.5,2.1-1.1,4.2-1.6,6.4
			c-0.5,2.4-0.8,4.9-0.3,7.5c0.3-0.3,0.6-0.4,0.8-0.7c0.4-0.4,0.9-0.9,1.1-1.4C27,37.5,27.9,35.1,28.8,32.7z"/>
		<path class="st0" d="M28.8,32.7c-0.9,2.4-1.8,4.8-2.8,7.1c-0.2,0.5-0.7,1-1.1,1.4c-0.2,0.2-0.5,0.4-0.8,0.7
			c-0.6-2.6-0.2-5,0.3-7.5c0.5-2.1,1.1-4.2,1.6-6.4c0.1-0.5,0.1-1.2-0.1-1.7c-0.5-1.8-0.3-3.5,0.7-5c0.8-1.2,2.1-1.6,3.4-1.1
			c1.1,0.4,1.5,1.2,1.2,2.8c-0.1,0.8-0.4,1.6-0.6,2.4c-0.2,0.8-0.5,1.7-0.7,2.5c-0.6,2.5,1.1,4.2,3.6,3.2c1-0.4,2.1-1.3,2.7-2.2
			c1.6-2.5,2-5.3,1.2-8.2c-0.6-2.3-2.3-3.5-4.4-4.1c-5.2-1.4-10.7,2.9-10.3,8.1c0,0.7,0.3,1.3,0.6,1.9c0.1,0.3,0.5,0.6,0.5,0.9
			c0,0.8-0.2,1.5-0.3,2.3c-0.6-0.1-1.2-0.2-1.8-0.5c-1.7-0.9-2.3-2.6-2.4-4.4c-0.3-5.4,3.3-10,8.7-10.9c1.9-0.3,4-0.3,5.9,0.1
			c6.2,1.2,9.1,6.2,7.5,12.5c-0.9,3.5-2.8,6.3-6.5,7.3c-1.9,0.5-3.7,0.3-5.4-0.9C29.2,32.9,28.9,32.8,28.8,32.7z"/>
	</g>
</g>
</svg>
