<?xml version="1.0" encoding="utf-8"?>
<!-- Generator: Adobe Illustrator 19.1.0, SVG Export Plug-In . SVG Version: 6.00 Build 0)  -->
<svg version="1.1" id="Layer_1" xmlns="http://www.w3.org/2000/svg" xmlns:xlink="http://www.w3.org/1999/xlink" x="0px" y="0px"
	 viewBox="0 0 491 148" style="enable-background:new 0 0 491 148;" xml:space="preserve">
<style type="text/css">
	.st0{clip-path:url(#SVGID_2_);}
	.st1{fill:#FFFFFF;}
</style>
<g>
	<defs>
		<rect id="SVGID_1_" x="-52.7" y="-15.7" width="682.6" height="173.4"/>
	</defs>
	<clipPath id="SVGID_2_">
		<use xlink:href="#SVGID_1_"  style="overflow:visible;"/>
	</clipPath>
	<g class="st0">
		<path class="st1" d="M11.7,62.4c0.4-0.2,0.8-0.3,1.1-0.4c0.3-0.1,0.6-0.2,0.9-0.3c0.3-0.1,0.6-0.2,0.9-0.3l0.1,0
			c0.9-0.2,1.7-0.1,2.4,0.4c0.7,0.5,1.1,1.1,1.3,1.9c0.1,0.7-0.1,1.4-0.6,2c-0.5,0.6-1,1-1.7,1.2h0c-0.2,0.1-0.4,0.1-0.5,0.1
			c-0.1,0-0.2,0-0.4,0c-0.1,0-0.4,0-0.6,0c-0.3,0-0.7,0.1-1.3,0.3c-0.2,0.1-0.4,0.1-0.5,0.1c-0.5,0.1-1.1,0.3-1.7,0.6
			c-0.7,0.3-1.4,0.7-2.2,1.2v0c-0.4,0.3-0.8,0.6-1.2,1.1s-0.7,0.9-1,1.5c-0.1,0.2-0.1,0.4-0.1,0.6c0,0.2-0.1,0.4-0.1,0.6
			c0,0.5,0.1,1.1,0.2,1.7c0.2,0.6,0.4,1.2,0.7,1.9c0.4,0.8,1.1,1.6,2.2,2.3c0.6,0.4,1.2,0.8,1.9,1.1s1.4,0.6,2.1,0.8
			c3.1,1,6.9,1.6,11.2,1.6c1.2,0,2.3,0,3.3-0.1c0.9-0.1,1.8-0.1,2.6-0.2h0.5c0.8-0.1,1.6-0.1,2.2-0.2c0.7-0.1,1.4-0.2,2.2-0.3
			c0.9-0.1,1.8-0.3,2.7-0.5c0.9-0.2,1.9-0.4,3-0.7h0c1.2-0.4,2.7-0.8,4.3-1.4c1.6-0.6,3.5-1.4,5.6-2.3h0c2.1-1,4-2.1,5.7-3
			c1.7-1,3.2-1.9,4.6-2.8c1.4-0.9,2.7-1.8,3.7-2.5c1-0.7,1.9-1.4,2.6-1.9c1.3-1,2.3-1.8,3-2.3c0.7-0.6,1.2-1,1.5-1.3
			c0.1-0.1,0.2-0.1,0.2-0.2c0.6-0.5,1.3-0.7,2-0.7c0.4,0,0.8,0.1,1.2,0.3c0.4,0.2,0.7,0.4,1,0.7c0.4,0.5,0.6,1.1,0.6,1.7
			c0,0.5-0.1,0.9-0.3,1.3s-0.5,0.8-0.9,1.1c0,0-0.1,0-0.1,0c0,0,0,0,0,0c-0.1,0.1-0.3,0.3-0.6,0.4s-0.6,0.4-1.1,0.7
			c-0.1,0.1-0.2,0.1-0.3,0.2c-0.1,0.1-0.2,0.2-0.4,0.3c-0.2,0.1-0.4,0.3-0.6,0.4c-0.2,0.1-0.5,0.3-0.7,0.5c-0.2,0.1-0.3,0.2-0.5,0.3
			c-0.2,0.1-0.4,0.2-0.5,0.4c-0.1,0.1-0.2,0.1-0.3,0.2c-0.1,0.1-0.2,0.2-0.3,0.2h0c-0.6,0.4-1.4,0.8-2.2,1.4
			c-0.8,0.5-1.7,1.1-2.7,1.7c-1.5,0.9-3.3,1.9-5.3,3c-2,1.1-4.4,2.3-7.2,3.6c-2.7,1.2-4.9,2.1-6.8,2.7s-3.6,1.2-5,1.6
			c-1.4,0.4-2.7,0.8-3.8,1.1c-1.1,0.3-2.1,0.5-3,0.8c-0.8,0.2-1.7,0.3-2.6,0.4c-0.9,0.1-1.9,0.2-3,0.4c-0.4,0.1-0.8,0.1-1.3,0.1
			c-0.5,0-1,0-1.5,0c-0.8,0-1.7,0-2.7-0.1c-1-0.1-2-0.2-3-0.4c-2.2-0.3-4.2-0.8-6-1.5c-1.8-0.6-3.2-1.2-4.4-1.8
			c-0.5-0.3-1.1-0.6-1.7-1c-0.6-0.4-1.2-0.8-1.6-1.2c-0.6-0.5-1.1-1-1.6-1.5c-0.5-0.6-0.9-1.2-1.3-2v0c-0.5-0.9-0.8-1.8-1-2.7
			c-0.2-0.9-0.4-1.8-0.4-2.7c0-0.6,0-1.2,0.1-1.6c0.2-1.1,0.6-2,1.1-2.8c0.5-0.8,1.1-1.5,1.6-2c1-0.9,1.9-1.6,2.8-2.1
			s1.6-0.9,2.2-1.2l0,0C10.7,62.8,11.2,62.6,11.7,62.4z"/>
		<path class="st1" d="M131.3,63.3c0.2,0.8,0,1.6-0.7,2.3s-1.5,1.2-2.6,1.4c-0.1,0-0.1,0-0.1,0c0,0-0.1,0-0.1,0c0,0,0,0-0.1,0
			c0,0-0.1,0-0.2,0c-0.1,0-0.1,0-0.1,0c0,0-0.1,0-0.1,0c-0.3,0-0.6,0.1-1,0.1c-0.4,0-1,0.1-1.8,0.2c0,0-0.1,0-0.4,0.1
			c-0.8,0.1-1.9,0.2-3.2,0.3c-1.3,0.1-2.9,0.1-4.8,0.1c-1,0-2.1-0.1-3.3-0.2c-1.2-0.1-2.6-0.4-4-0.7l-0.4-0.1
			c-0.1,0-0.2-0.1-0.3-0.2c0,0,0,0,0,0.1c0,0,0,0,0,0c-0.2,0-0.3,0-0.3,0c-0.2,0.1-0.3,0.1-0.5,0.1c-0.2,0-0.3,0.1-0.4,0.1
			c-0.1,0.1-0.3,0.1-0.4,0.1c-0.1,0-0.2,0.1-0.4,0.1l0.1,0c-0.7,0.3-1.5,0.6-2.2,0.9s-1.6,0.6-2.4,1c-3.4,1.6-7.1,3.5-11.3,5.8
			c0.3,0,0.5,0,0.8,0c0.3,0,0.5,0,0.8,0.1c0.7,0.1,1.4,0.2,2.2,0.4s1.6,0.4,2.4,0.8c0.8,0.4,1.6,0.8,2.5,1.4
			c0.8,0.6,1.6,1.3,2.2,2.1c0.3,0.5,0.6,1,0.9,1.5s0.5,1.1,0.6,1.8v0c0,0.1,0.1,0.2,0.1,0.3c0,0.2,0.1,0.3,0.1,0.3v0.4l0,0.2V85
			c-0.1,0.3-0.2,0.5-0.3,0.8c-0.1,0.3-0.2,0.5-0.4,0.7c-0.3,0.3-0.5,0.5-0.8,0.7c-0.3,0.2-0.6,0.3-0.8,0.3c-0.3,0.1-0.6,0.1-0.9,0
			c-0.3-0.1-0.5-0.1-0.8-0.2c-0.4-0.1-0.8-0.3-1.2-0.4c-0.4-0.2-0.8-0.3-1.1-0.6l0,0c-0.1,0-0.1-0.1-0.3-0.1
			c-0.1-0.1-0.2-0.1-0.3-0.2c-0.3-0.2-0.6-0.4-0.9-0.6c-0.3-0.2-0.6-0.4-0.9-0.7h0c-1.2-0.8-2.3-1.6-3.4-2.4c-1.1-0.8-2.1-1.6-3-2.3
			l0,0c-0.1-0.1-0.1-0.1-0.1-0.1c0,0-0.1,0-0.1-0.1c-0.1-0.1-0.2-0.1-0.3-0.1c-0.1,0-0.2-0.1-0.3-0.3c-0.7,0.1-1.4,0.2-2,0.3
			c-0.6,0.1-1.2,0.3-1.7,0.4h0c-1,0.3-2,0.6-2.9,0.9c-0.9,0.3-1.6,0.6-2.3,0.9h0C78.2,82,78.1,82,78,82c-0.1,0-0.1,0.1-0.2,0.1l0,0
			c-0.1,0.1-0.1,0.1-0.3,0.1c-0.1,0-0.2,0.1-0.3,0.1c-0.1,0.1-0.2,0.2-0.3,0.2c-0.2,0.1-0.3,0.2-0.5,0.3c-0.2,0.1-0.3,0.2-0.5,0.3
			c-0.2,0.1-0.3,0.2-0.5,0.3c-0.2,0.1-0.4,0.2-0.6,0.3l0,0c-0.3,0.1-0.5,0.3-0.7,0.4c-0.2,0.1-0.5,0.3-0.7,0.4
			c-0.6,0.3-1.2,0.7-1.8,1c-0.6,0.4-1.2,0.7-1.6,1h-0.1l-0.1,0.1l-0.9,0.3c-0.1,0-0.1,0-0.1,0.1c0,0,0,0-0.1,0.1h0
			c-0.3,0.1-0.5,0.3-0.7,0.3c-0.4-0.5-0.6-0.9-0.8-1.2c-0.2-0.3-0.4-0.7-0.6-1c-0.1-0.2-0.2-0.3-0.3-0.4c-0.1-0.1-0.1-0.2-0.2-0.4
			c-0.1-0.2-0.1-0.4,0-0.6c0-0.3,0.1-0.5,0.3-0.9c0.2-0.3,0.5-0.7,0.8-1.1c0.1,0,0.1-0.1,0.2-0.1c0.1,0,0.1-0.1,0.2-0.1
			c0.1,0,0.2-0.1,0.2-0.1c0.3-0.1,0.6-0.3,1-0.5s0.6-0.3,0.9-0.5c0.1,0,0.1-0.1,0.3-0.1c0.1,0,0.2-0.1,0.3-0.1l0.2-0.1
			c0.2-0.1,0.5-0.2,0.7-0.4s0.5-0.2,0.7-0.3c0.9-0.5,1.8-1,2.8-1.6s2.1-1.1,3.4-1.8l1.7-0.8c0.3-0.1,0.6-0.3,0.8-0.4
			c0.3-0.1,0.6-0.3,0.8-0.4c-0.4-0.3-0.7-0.6-1-0.8c-0.2-0.1-0.4-0.3-0.5-0.4c-0.2-0.2-0.4-0.3-0.5-0.4l-0.1-0.1
			c-2-1.7-3.6-3.1-4.7-4c-1.1-0.9-1.7-1.5-1.9-1.7c-0.7-0.7-1.2-1.5-1.3-2.3c-0.1-0.9,0.1-1.6,0.6-2.2c0.5-0.5,1.1-0.7,1.9-0.7
			c0.5,0,1,0.1,1.4,0.3c0.5,0.2,0.9,0.5,1.3,0.9l0.6,0.6c0.3,0.3,0.7,0.7,1.3,1.3c0.6,0.6,1.4,1.4,2.6,2.5c0.3,0.3,0.7,0.7,1,1
			s0.7,0.6,1,1c0.4,0.4,0.8,0.7,1.3,1.2c0.5,0.4,1,1,1.7,1.5c0.9-0.4,1.7-0.8,2.5-1.2c0.8-0.4,1.6-0.8,2.2-1.2l0,0
			c0.2-0.1,0.4-0.2,0.6-0.3s0.4-0.2,0.6-0.3c1.4-0.6,2.7-1.3,3.9-1.9c1.3-0.6,2.7-1.3,4.2-2c1.4-0.6,2.7-1.2,3.9-1.8
			c0.3-0.1,0.6-0.3,0.9-0.4c0.3-0.1,0.6-0.3,1-0.4h0c0.1,0,0.2-0.1,0.3-0.1c0.2,0,0.3-0.1,0.4-0.1c0,0,0,0,0,0c0,0,0.2-0.1,0.4-0.2
			l0.6,0c0.1,0,0.2,0,0.4,0.1l0.3,0c0.1,0.1,0.3,0.1,0.5,0.1c0.2,0,0.3,0.1,0.4,0.1l-0.2,0c0.9,0.3,1.8,0.4,2.8,0.5
			c1,0.1,1.9,0.2,2.7,0.2c1.5,0,2.8,0,4-0.1s2.1-0.3,2.9-0.4c1.1-0.2,2-0.4,2.6-0.5c0.6-0.1,1.2-0.3,1.7-0.4
			c0.2-0.1,0.5-0.1,0.7-0.2c0.3-0.1,0.5-0.1,0.8-0.2c0.9-0.2,1.8-0.1,2.6,0.2C130.6,62,131.1,62.5,131.3,63.3L131.3,63.3z M99.2,83
			c-0.1-0.1-0.1-0.1-0.2-0.1c-0.1,0-0.1,0-0.2-0.1C99,82.9,99.1,82.9,99.2,83z"/>
		<path class="st1" d="M124.4,65.6c0.3-0.7,0.7-1.3,1.1-1.9c0.4-0.6,0.8-1,1.3-1.4s0.9-0.6,1.3-0.7c0.4-0.1,0.8-0.1,1.2,0
			c0.8,0.4,1.1,1.2,1.1,2.4c0,1.1-0.3,2.4-0.9,3.8v0.1c-0.2,0.4-0.4,0.9-0.7,1.4c-0.2,0.4-0.6,1-1,1.9s-1.1,2.2-1.9,4
			c-0.1,0.3-0.3,0.5-0.4,0.8s-0.3,0.5-0.4,0.8c-0.2,0.4-0.4,0.8-0.6,1.3c-0.2,0.5-0.4,0.9-0.7,1.4v0c-0.6,1.4-1.4,3-2.2,4.8
			s-1.7,3.8-2.6,6l0-0.1c0,0.1-0.1,0.2-0.1,0.3c0,0.1-0.1,0.2-0.1,0.3l0-0.1c-0.1,0.1-0.1,0.3-0.2,0.4c-0.1,0.1-0.1,0.2-0.2,0.4
			c-1.6,3.6-3.4,7.8-5.4,12.7c-2,4.8-4.3,10.5-6.8,17c-0.1,0.5-0.3,0.9-0.5,1.4c-0.2,0.5-0.4,0.9-0.5,1.4c1.5-3.3,3.2-6.7,4.9-10.3
			c1.8-3.6,3.6-7,5.5-10.4c0.9-1.6,1.9-3.2,2.8-4.8c1-1.6,1.9-3.1,2.8-4.5c0.9-1.4,1.8-2.8,2.6-4c0.8-1.2,1.6-2.3,2.3-3.2
			c1.4-1.9,2.8-3.7,4.4-5.6s3-3.6,4.5-5.1c0.9-0.9,1.8-1.8,2.8-2.7c1-0.9,2-1.8,3.2-2.7l0,0c1.2-1,2.5-1.9,4-3
			c1.5-1,3.1-1.9,4.8-2.8c1-0.5,2-0.9,3.1-1.3c1.1-0.4,2.2-0.7,3.3-1c1.5-0.3,3.3-0.5,5.2-0.5c0.5,0,1,0,1.5,0c0.5,0,1,0,1.4,0.1
			l0.2,0.1c0.2,0,0.4,0,0.7,0.1c0.3,0.1,0.6,0.2,0.9,0.4l0,0c0.3,0.2,0.6,0.4,0.8,0.7c0.2,0.3,0.4,0.6,0.5,0.9v0
			c0.1,0.3,0.2,0.5,0.2,0.7c0,0.2,0,0.4,0,0.7c0,0.5-0.1,1-0.2,1.5c-0.1,0.5-0.3,0.9-0.5,1.4c0,0,0,0,0,0c0,0,0,0,0,0.1
			c-0.4,0.8-0.8,1.6-1.1,2.3c-0.4,0.7-0.7,1.3-1.1,1.9c-0.8,1.3-1.7,2.6-2.7,4c-1,1.4-2,2.7-3,4.1l-1.3,1.6
			c-0.2,0.2-0.3,0.3-0.3,0.4c-0.1,0.1-0.2,0.2-0.3,0.4c0.8-0.1,1.6-0.3,2.4-0.4c0.8-0.1,1.6-0.3,2.3-0.4c2.8-0.5,5.6-1.1,8.2-1.8
			c2.6-0.7,5-1.3,7.1-1.9c4.3-1.4,8.3-2.8,11.9-4.2s6.7-2.7,9.2-3.8c2.7-1.2,4.9-2.3,6.7-3.2c1.8-0.9,3.3-1.7,4.6-2.4l0,0
			c0.5-0.3,0.9-0.5,1.2-0.7c0.4-0.2,0.7-0.4,1-0.5c0.6-0.3,1-0.6,1.3-0.7c0.3-0.2,0.6-0.3,0.7-0.4c0.8-0.5,1.6-0.8,2.3-1
			c0.7-0.2,1.4-0.3,2-0.3c1,0,1.6,0.3,2,0.8c0.2,0.3,0.2,0.7,0.1,1.2c-0.1,0.5-0.3,0.9-0.6,1.4c-0.3,0.5-0.7,1-1.3,1.5
			c-0.5,0.5-1.1,0.9-1.8,1.3c-0.3,0.2-0.7,0.4-1.2,0.7c-0.5,0.3-1.2,0.6-2,1c-0.2,0.1-0.4,0.2-0.6,0.3c-0.1,0-0.1,0.1-0.2,0.1
			c-0.1,0-0.1,0.1-0.2,0.1l0.1,0c-0.8,0.4-1.9,0.9-3.2,1.5c-1.3,0.6-2.9,1.3-4.8,2.2c-2.3,1.1-5.2,2.3-8.6,3.7
			c-3.4,1.4-7.5,2.9-12.4,4.5c-2.6,0.8-5.3,1.6-8.2,2.4s-5.9,1.5-9.1,2.1c-1.5,0.3-3.3,0.6-5.2,0.9c-1.9,0.3-3.8,0.5-5.7,0.8
			c-1.2,0.1-2.3,0.3-3.3,0.4c-1,0.1-1.7,0.1-2.3,0c-0.6-0.1-1-0.3-1.1-0.7c-0.2-0.4,0-0.9,0.4-1.7c0.4-0.8,1.2-1.8,2.2-3
			s2.5-2.8,4.3-4.6c0.7-0.7,1.3-1.4,1.9-2.2c0.6-0.8,1.1-1.6,1.7-2.3c0.5-0.8,1-1.6,1.5-2.3c0.5-0.8,0.9-1.5,1.3-2.1l0,0l0.1-0.3
			c0.1-0.2,0.2-0.4,0.3-0.6c0.1-0.2,0.2-0.4,0.3-0.6c0.1-0.2,0.2-0.5,0.4-0.7c0.1-0.1,0.1-0.3,0.2-0.4c0.1-0.2,0.1-0.3,0.2-0.5l0,0
			h0c-0.1,0-0.1,0-0.1,0c0,0-0.1,0-0.1,0c-0.3,0-0.5,0-0.7-0.1c-0.2,0-0.5,0-0.7,0c-1.4,0-2.7,0.1-4,0.4c-1.3,0.3-2.4,0.6-3.6,1
			c-1.1,0.4-2.1,0.9-3.1,1.4c-1,0.5-1.9,1.1-2.8,1.6c-1.8,1.2-3.3,2.4-4.7,3.6c-1.3,1.2-2.5,2.3-3.6,3.4h0c-1.2,1.3-2.2,2.4-3.2,3.5
			c-0.9,1.1-1.7,2.1-2.4,3c-0.7,0.9-1.4,1.9-2.1,3c-0.7,1-1.5,2.1-2.3,3.2c-0.8,1.1-1.5,2.2-2.3,3.4c-0.7,1.1-1.5,2.3-2.1,3.4
			c-1.5,2.4-3.2,5.3-5.1,8.6c-1.9,3.3-4,7.1-6.2,11.4c-1.4,2.6-2.6,5-3.7,7.2c-1.1,2.2-2.1,4.3-3,6.3l-0.5,1
			c-0.1,0.1-0.2,0.3-0.3,0.5s-0.2,0.4-0.2,0.5c-0.1,0.3-0.3,0.7-0.5,1.1s-0.4,0.8-0.5,1.1c-0.3,0.7-0.7,1.4-1,2.1
			c-0.3,0.7-0.6,1.3-1,1.9c-0.1,0.1-0.1,0.1-0.1,0.2s0,0.1-0.1,0.2c-0.1,0.1-0.1,0.2-0.2,0.3c-0.2,0.3-0.4,0.6-0.6,1
			s-0.4,0.7-0.7,1.1l-0.1,0.1c0,0,0,0.1-0.1,0.1c0,0,0,0.1-0.1,0.1c-0.1,0.1-0.1,0.2-0.3,0.3s-0.3,0.3-0.4,0.4
			c-0.1,0.1-0.3,0.2-0.4,0.3c-0.1,0.1-0.2,0.2-0.3,0.2c-0.1,0.1-0.3,0.1-0.5,0.2l0.1,0c-0.2,0.1-0.5,0-0.9,0
			c-0.4-0.1-0.7-0.2-0.9-0.3c-0.1,0-0.1-0.1-0.2-0.3c-0.1-0.2-0.2-0.3-0.3-0.5c-0.1-0.2-0.2-0.3-0.3-0.5c-0.1-0.2-0.1-0.3-0.2-0.3
			l0.8-7.1c0.1-0.8,0.3-1.6,0.6-2.5c0.3-0.8,0.5-1.7,0.8-2.5c0.5-1.6,1-3.2,1.6-5c0.6-1.8,1.2-3.5,1.9-5.3c2.1-5.5,4-10.4,5.7-14.7
			c1.8-4.3,3.3-8.1,4.6-11.3l0,0c0.1-0.2,0.2-0.5,0.3-0.7c0.1-0.2,0.2-0.5,0.3-0.7c0.3-0.7,0.6-1.4,0.9-2.1c0.3-0.7,0.6-1.3,0.8-2
			c0.3-0.7,0.6-1.4,0.9-2.1c0.3-0.7,0.5-1.3,0.8-1.9l0,0c0.3-0.6,0.5-1.3,0.8-1.9c0.3-0.6,0.5-1.2,0.8-1.8c0.2-0.5,0.4-0.9,0.6-1.4
			c0.2-0.4,0.3-0.9,0.5-1.2c0.3-0.8,0.6-1.5,0.8-2.1s0.5-1.2,0.7-1.8c0.1-0.2,0.2-0.4,0.3-0.7c0.1-0.2,0.2-0.5,0.3-0.7
			c0.5-1.1,0.8-2,1.2-2.7s0.7-1.5,1.1-2.3C124,66.4,124.2,66,124.4,65.6L124.4,65.6z"/>
		<path class="st1" d="M280.1,61.7c1,0,1.7,0.3,2.1,1l0,0c0.2,0.3,0.3,0.7,0.3,1.1c0,0.4-0.2,0.9-0.4,1.3c-0.3,0.4-0.6,0.9-1,1.3
			c-0.4,0.4-1,0.8-1.5,1.2c-0.2,0.1-0.4,0.2-0.7,0.4c-0.2,0.1-0.5,0.3-0.9,0.4c-0.1,0.1-0.3,0.1-0.4,0.2c-0.2,0.1-0.3,0.2-0.5,0.3
			c-0.7,0.3-1.6,0.7-2.7,1.2s-2.6,1.2-4.5,1.9c-1.8,0.8-4.1,1.7-6.8,2.8c-2.7,1.1-6,2.3-9.8,3.6c-1.9,0.6-3.9,1.3-6.2,2.1
			c-2.3,0.7-4.7,1.4-7.2,2.2c-1.3,0.4-2.6,0.7-4,1.1c-1.4,0.4-2.8,0.7-4.3,1.1c-1.5,0.4-3.1,0.7-4.8,1.1c-1.7,0.4-3.3,0.7-4.8,0.9
			c-0.3,0.1-0.6,0.1-0.9,0.1c-0.3,0-0.6,0-0.9,0.1c-0.1,0-0.2,0-0.3,0.1c-0.1,0-0.2,0-0.4,0c-0.1,0-0.1,0-0.2,0c-0.1,0-0.1,0-0.2,0
			h-0.8c-0.1,0-0.1,0-0.1,0c0,0-0.1,0-0.2,0c-0.2,0-0.4,0-0.6,0c-0.2,0-0.4-0.1-0.7-0.2c-0.7-0.5-1.3-1-1.6-1.4s-0.6-0.9-0.8-1.3
			c-0.2-0.4-0.3-0.8-0.4-1.2c-0.1-0.4-0.2-0.8-0.3-1.2c-0.1-0.5-0.1-0.9-0.1-1.4c0-0.5,0-0.9,0-1.5c0-1,0-2,0.1-2.8
			c0.1-0.9,0.2-1.7,0.3-2.5c0.1-0.8,0.2-1.5,0.3-2c0.1-0.5,0.2-0.9,0.2-1.3c0.1-0.4,0.2-0.8,0.3-1.2c0.1-0.4,0.2-0.9,0.4-1.6
			c-0.5,0-1-0.1-1.3-0.3c-0.3-0.2-0.5-0.5-0.7-0.8c-0.3-0.7-0.2-1.5,0.3-2.4c0.5-0.9,1.2-1.7,2.1-2.4l0,0.1c0.1-0.1,0.3-0.2,0.4-0.3
			l0.1,0c0,0,0,0,0,0c0.1-0.1,0.2-0.1,0.3-0.1c0.1,0,0.2-0.1,0.4-0.3c0,0,0.1,0,0.1,0c0.8-3.1,1.6-5.8,2.3-8.1
			c0.7-2.3,1.4-4.5,2-6.4c0.6-2,1.3-3.9,2-5.8c0.7-1.9,1.4-3.9,2.3-6c0.8-2.1,1.9-4.5,3.1-7.3c1.2-2.7,2.7-5.9,4.5-9.6
			c1.3-2.5,2.5-4.7,3.6-6.7s2.3-3.8,3.6-5.4l0.3-0.3l-0.1,0c0.2-0.3,0.5-0.7,1-1c0.4-0.4,0.8-0.7,1.2-1l0.1,0c0,0,0,0,0,0
			c0.2-0.1,0.5-0.3,0.7-0.4c0.2-0.1,0.5-0.2,0.7-0.2c0.3-0.1,0.6,0,1,0c0.3,0.1,0.6,0.2,0.9,0.3c0.6,0.3,1,0.7,1.2,1.1
			c0.2,0.4,0.4,0.8,0.5,1.1c0.2,0.6,0.3,1.1,0.3,1.6c0,0.5,0,1,0,1.5c0,0.5,0,0.9,0,1.3c0,0.4-0.1,0.7-0.1,1.1
			c-0.2,1.3-0.4,2.7-0.7,4.1c-0.3,1.4-0.7,2.8-1.1,4.2c-0.4,1.3-0.8,2.6-1.2,4c-0.4,1.4-0.9,2.8-1.4,4.3c-1.7,4.6-3.4,8.6-5.2,12.1
			c-1.8,3.5-3.4,6.6-4.8,9.1c-1.5,2.6-2.9,4.8-4.1,6.5c-1.2,1.7-2.2,3.1-3,4.1c-0.7,0.9-1.4,1.7-2.1,2.5s-1.4,1.4-2,2.1
			c-0.4,0.4-0.8,0.8-1.1,1.1c-0.3,0.3-0.7,0.6-1.1,1c-0.1,0.2-0.1,0.3-0.1,0.4c0,0.1,0,0.1,0,0.1c0,0,0,0.1,0,0.1v0
			c-0.3,1.3-0.6,2.8-1,4.5c-0.3,1.8-0.6,3.6-0.8,5.6c-0.1,0.4-0.1,0.8-0.1,1.3c0,0.5,0,0.9,0,1.3c0,0.6,0,1.2,0.1,1.8
			c0.1,0.6,0.2,1.2,0.3,1.8c0,0.1,0.1,0.3,0.3,0.6c0.5,0,1,0,1.5-0.1s1.1-0.2,1.6-0.3h0c2.7-0.5,5.3-1,7.8-1.7
			c2.5-0.6,4.8-1.3,6.7-1.8c2.2-0.6,4.3-1.3,6.3-1.9c2-0.6,3.8-1.3,5.6-1.9c3.7-1.3,6.9-2.4,9.6-3.5c2.7-1.1,5.1-2.1,7.1-3
			c3.4-1.5,6-2.7,7.8-3.7c1.8-1,3.1-1.7,3.8-2.1c0,0,0.1,0,0.1,0c0,0,0.1-0.1,0.1-0.1c0.1,0,0.1-0.1,0.1-0.1c0,0,0,0,0,0.1
			c0.7-0.4,1.4-0.7,2-0.9C279,61.8,279.6,61.7,280.1,61.7z M223.5,53c-0.1,0.4-0.2,0.7-0.3,0.7c0,0,0,0.1-0.1,0.1s0,0-0.1,0.1
			c0,0.1-0.1,0.4-0.3,0.9c0.7-0.8,1.5-1.8,2.3-2.9c0.8-1.1,1.7-2.4,2.7-3.8c0.8-1.2,1.7-2.6,2.6-4.3c1-1.7,1.9-3.5,3-5.5
			s2-4.1,3.1-6.4c1-2.3,2-4.6,3-7c0.6-1.5,1.1-3.1,1.6-4.7c0.5-1.6,0.9-3.2,1.3-4.7v0c0.2-0.7,0.3-1.5,0.5-2.4
			c0.2-0.9,0.3-1.8,0.4-2.8c0.1-0.5,0.1-1,0.1-1.5c-0.1,0.2-0.3,0.5-0.4,0.7c-0.2,0.2-0.3,0.5-0.4,0.7c-0.5,0.9-1.1,1.8-1.6,2.8
			s-1.1,1.9-1.5,2.9c-1,2-2.1,4.2-3.1,6.4c-1,2.2-2.1,4.5-3.1,6.9c-1.1,2.6-2.1,5-3,7.2s-1.7,4.1-2.3,5.8c-0.1,0.1-0.1,0.3-0.2,0.5
			c-0.1,0.2-0.2,0.4-0.2,0.5c-0.1,0.1-0.1,0.3-0.1,0.4c0,0.1-0.1,0.2-0.1,0.3c-0.1,0.4-0.3,0.7-0.4,1.1c-0.2,0.4-0.3,0.8-0.4,1.1
			l0,0c-0.5,1.2-0.9,2.4-1.4,3.5C224.3,50.6,223.9,51.8,223.5,53z"/>
		<path class="st1" d="M335.5,61.9c0.8-0.3,1.6-0.3,2.3-0.1c0.7,0.3,1.3,0.7,1.6,1.4c0.3,0.7,0.3,1.4,0,2.2
			c-0.3,0.7-0.9,1.3-1.7,1.7c-0.1,0-0.2,0.1-0.4,0.1c-0.2,0-0.3,0.1-0.3,0.1h-0.1c-0.1,0.1-0.4,0.1-0.6,0.2
			c-0.3,0.1-0.7,0.2-1.3,0.5c-0.6,0.2-1.3,0.5-2.3,0.8c-1,0.3-2.1,0.7-3.3,1.1c-1.4,0.5-3,1-4.8,1.5c-1.9,0.6-4.1,1.2-6.6,1.8
			c-0.3,0.1-0.7,0.2-1,0.3c-0.4,0.1-0.7,0.2-1.1,0.3c-1.1,0.3-2.2,0.6-3.5,0.9c-1.3,0.3-2.6,0.6-4,0.9c-1.8,0.3-3.8,0.6-6,0.9
			c-2.2,0.3-4.5,0.4-6.9,0.3c-1.5,0-2.8-0.1-4-0.1c-1.1-0.1-2.1-0.1-2.9-0.2c-0.1,0-0.2,0-0.3,0c-0.1,0-0.2,0-0.3,0
			c-0.2,0-0.4,0-0.4,0c0,0-0.1,0-0.3,0c0,0,0,0.1-0.1,0.1s0,0.1-0.1,0.1c-0.1,0.1-0.1,0.2-0.2,0.2c-0.1,0.1-0.1,0.2-0.2,0.2
			c-0.1,0.1-0.1,0.1-0.1,0.2c0,0.1-0.1,0.1-0.1,0.2c-0.1,0.1-0.1,0.1-0.2,0.2c-0.1,0.1-0.1,0.2-0.2,0.2c-0.5,0.6-1.1,1.2-1.8,2
			s-1.4,1.5-2.1,2.2v0c-0.5,0.5-1.1,1-1.8,1.6c-0.7,0.6-1.5,1.1-2.3,1.6h0c-0.9,0.6-2,1.1-3.2,1.5h0c-0.3,0.1-0.6,0.2-1,0.3
			s-0.7,0.1-1.1,0.1c-0.1,0-0.3,0-0.4,0c-0.2,0-0.3,0-0.3,0c-0.1,0-0.2,0-0.3,0c-0.1,0-0.2,0-0.3,0c-0.6-0.1-1.1-0.2-1.6-0.5
			c-0.9-0.5-1.7-1.1-2.2-1.9c-0.5-0.8-0.9-1.6-1.2-2.4v0c-0.2-0.7-0.4-1.4-0.4-2c-0.1-0.6-0.1-1.2-0.1-1.8c0-0.6,0-1.3,0.1-1.8
			c0-0.6,0.1-1.1,0.1-1.6c0.1-0.5,0.1-0.9,0.2-1.4c0.1-0.5,0.2-1,0.4-1.5v0c0.3-1,0.6-1.9,1-2.7c0.4-0.8,0.9-1.5,1.3-2.2
			c0.5-0.7,1.1-1.3,1.6-1.8s1-0.9,1.5-1.2l0,0c1-0.7,1.9-1.2,2.7-1.6c0.8-0.3,1.5-0.6,2.1-0.8c0.6-0.2,1.1-0.3,1.4-0.4
			c0.3-0.1,0.5-0.1,0.7-0.1c0.5-0.1,0.9-0.1,1.3,0c0.4,0.1,0.8,0.3,1.1,0.5c0.3,0.3,0.6,0.6,0.8,0.9c0.2,0.4,0.3,0.7,0.3,1.2
			c0,0.7-0.2,1.4-0.7,1.9c-0.5,0.5-1.1,0.9-1.8,1c-0.1,0-0.1,0-0.2,0c-0.1,0-0.2,0-0.2,0h0c-0.1,0-0.1,0-0.2,0c-0.1,0-0.2,0-0.3,0
			c-0.1,0-0.1,0-0.2,0c-0.1,0-0.1,0-0.2,0c0,0,0,0,0,0c0,0,0,0-0.1,0c-0.3,0.1-0.7,0.2-1.1,0.3c-0.4,0.2-0.9,0.3-1.3,0.4l0,0
			c-0.3,0.1-0.7,0.3-1,0.5c-0.4,0.2-0.8,0.5-1.2,0.8c-0.4,0.3-0.8,0.7-1.2,1.1s-0.7,1-1,1.7c-0.4,0.7-0.6,1.5-0.8,2.4
			c-0.2,0.9-0.4,1.9-0.5,3c-0.1,0.6-0.1,1.1-0.1,1.5c0,0.5,0.1,1.1,0.2,1.7c0.1,0.4,0.2,0.8,0.3,1.2c0.2,0.4,0.4,0.7,0.8,0.8
			c0.2,0.1,0.4,0.1,0.7,0.1s0.5,0,0.8-0.1c0.3-0.1,0.6-0.2,0.9-0.3c0.5-0.2,1-0.4,1.4-0.6c0.4-0.2,0.8-0.5,1.2-0.7
			c0.7-0.5,1.3-1,1.9-1.6c0.6-0.6,1.2-1.2,1.7-1.7c0.6-0.7,1.2-1.3,1.6-1.7c0.4-0.4,0.7-0.8,0.8-1.2c0.2-0.5,0.5-1,0.8-1.5
			c0.3-0.6,0.7-1.1,1.2-1.5c0.5-0.4,1.2-0.7,1.9-0.8c0.8-0.1,1.7,0,2.9,0.4h1c0.2,0,0.3,0,0.5,0c0.2,0,0.4,0,0.6,0
			c0.5,0,0.9,0,1.4,0c0.5,0,1,0,1.6,0c0.6,0,1.4,0,2.4,0.1c0.9,0,1.8,0,2.7,0c2.2,0,4.1-0.1,5.7-0.3c1.6-0.2,3.1-0.4,4.3-0.6
			c1.3-0.2,2.5-0.5,3.7-0.7c1.2-0.3,2.3-0.5,3.4-0.8c0.8-0.3,1.7-0.5,2.6-0.8c0.9-0.3,1.8-0.6,2.6-0.9c0.8-0.3,1.6-0.6,2.4-0.8
			c0.7-0.3,1.4-0.5,2-0.7c1-0.4,1.8-0.7,2.5-1c0.7-0.3,1.3-0.6,1.9-0.9c0.1,0,0.1-0.1,0.3-0.1c0.1-0.1,0.2-0.1,0.3-0.2
			c0.5-0.2,0.9-0.4,1.2-0.6c0.4-0.2,0.7-0.3,0.9-0.5h0c0.3-0.1,0.5-0.3,0.8-0.4C334.9,62.2,335.1,62.1,335.5,61.9L335.5,61.9z"/>
		<path class="st1" d="M426.3,61.9c0.6-0.3,1.2-0.4,1.7-0.4c0.6,0,1.1,0.1,1.6,0.4s0.8,0.6,1,1.1c0.4,0.8,0.4,1.5,0,2.3
			c-0.4,0.8-1.1,1.4-2,1.8c-0.1,0-0.1,0-0.1,0s0,0-0.1,0s-0.1,0.1-0.2,0.1c-0.1,0-0.1,0-0.1,0c-0.2,0.1-0.5,0.2-0.8,0.3
			c-0.4,0.2-1,0.4-1.9,0.8c-0.8,0.3-1.8,0.7-3.1,1.2c-1.3,0.5-2.9,1.2-4.8,2.1c-1.2,0.6-2.6,1.2-4.2,1.9c-1.6,0.7-3.3,1.4-5.1,2.2
			c-0.5,0.2-1.1,0.5-1.6,0.7s-1.1,0.5-1.7,0.7c-0.9,0.4-1.9,0.8-2.9,1.3c-1,0.5-2,1-3.1,1.5l-1.9,0.9h0c-0.5,0.3-1.1,0.5-1.7,0.8
			s-1.1,0.5-1.7,0.8c-1.1,0.5-2.2,1-3.3,1.5c-1.2,0.5-2.4,1-3.6,1.5c-1.3,0.5-2.7,0.9-4.1,1.3c-1.4,0.4-3,0.7-4.8,0.8
			c-0.6,0-1.2,0-1.8,0c-0.6,0-1.2-0.2-1.8-0.4c-0.4-0.2-0.8-0.4-1.1-0.6c-0.4-0.2-0.7-0.5-1-0.8c-0.6-0.6-1-1.2-1.2-1.9v0
			c-0.2-0.6-0.3-1.2-0.4-1.7c0-0.5,0-1,0-1.4c0.1-0.4,0.1-0.7,0.1-0.9c0-0.2,0.1-0.3,0.1-0.4c0,0,0-0.1,0-0.1c0,0,0-0.1,0-0.1
			l0.2-0.7c0.4-1.4,0.8-2.5,1.2-3.4c0.4-0.9,0.8-1.8,1.3-2.7c0.2-0.5,0.4-0.8,0.6-1.2c0.2-0.3,0.3-0.7,0.5-1.1s0.4-0.8,0.7-1.2
			c0.3-0.5,0.6-1.1,1-1.8c-0.9,0.2-1.8,0.4-2.7,0.6c-0.9,0.2-1.9,0.4-2.9,0.6c-3.1,0.6-6,0.9-8.7,1.1c-2.7,0.2-5.1,0.3-7.4,0.3
			c-2.3,0-4.3-0.1-6-0.3s-3.3-0.3-4.5-0.6c-2.3-0.4-4.1-0.8-5.3-1.1c-1.3-0.4-2.1-0.6-2.6-0.7c-0.1,0-0.1,0-0.1,0c0,0,0,0-0.1,0
			c0,0,0,0,0,0c-1-0.4-1.7-1-2.1-1.8c-0.4-0.8-0.5-1.6-0.2-2.3c0.3-0.7,0.9-1.1,1.7-1.4c0.8-0.2,1.6-0.2,2.4,0.1h-0.1
			c2.8,0.8,4.7,1.3,5.8,1.5c1,0.2,1,0.3-0.1,0.4c1,0.2,2.2,0.5,3.8,0.7c1.6,0.3,3.4,0.5,5.4,0.7c0.8,0.1,1.6,0.1,2.5,0.1
			c0.9,0,1.8,0.1,2.7,0.1c1.6,0,3.5-0.1,5.6-0.2c2.1-0.2,4.3-0.4,6.7-0.8c1.7-0.3,3.4-0.6,4.8-0.9c1.5-0.3,2.8-0.6,3.8-0.8
			c0,0,0.1,0,0.3,0c0.1,0,0.3-0.1,0.3-0.1c0,0,0.1,0,0.1,0c0.1,0,0.1,0,0.1,0c-0.1,0-0.1,0,0,0l0.1-0.1c0.1,0,0.2,0,0.5,0
			c0.2,0,0.5-0.1,0.7-0.1s0.5-0.1,0.7-0.1c0.2,0,0.4-0.1,0.5-0.1l0.6,2.7c0,0-0.1,0.1-0.1,0.3c-0.1,0.2-0.2,0.4-0.3,0.5
			c-0.1,0.2-0.2,0.4-0.3,0.5c-0.1,0.2-0.1,0.3-0.1,0.3l-0.1,0.3c-0.1,0.1-0.1,0.3-0.2,0.4c-0.1,0.1-0.2,0.2-0.2,0.4l0,0
			c-0.1,0.1-0.1,0.2-0.1,0.3c0,0-0.1,0.2-0.2,0.4c-0.1,0.2-0.3,0.5-0.4,0.8c-0.1,0.3-0.3,0.5-0.4,0.7l0,0c-0.8,1.7-1.5,3.1-2.1,4.4
			c-0.6,1.3-1,2.5-1.4,3.6v0c-0.1,0.5-0.3,1-0.4,1.4c-0.1,0.5-0.3,1-0.4,1.6c-0.1,0.2-0.1,0.5-0.1,0.7c0,0.3,0,0.4,0,0.5
			c0,0.3,0.1,0.6,0.2,0.8c0.1,0.1,0.2,0.2,0.5,0.2s0.7,0,1.1,0c0.8,0,1.6-0.1,2.6-0.3s1.8-0.4,2.8-0.6c1.1-0.3,2.3-0.7,3.6-1.1
			c1.3-0.4,2.5-0.8,3.5-1.2c0.3-0.1,0.6-0.2,0.9-0.3c0.3-0.1,0.6-0.2,0.9-0.4c0.3-0.1,0.6-0.3,0.9-0.4c0.3-0.1,0.6-0.2,0.8-0.3
			c0.1-0.1,0.2-0.1,0.3-0.1c0.1,0,0.2-0.1,0.3-0.1c0.2-0.1,0.3-0.1,0.5-0.2c0.1-0.1,0.3-0.1,0.4-0.2c0.7-0.3,1.4-0.6,2-0.9
			c0.6-0.3,1.3-0.6,1.9-0.9h0c0.4-0.2,0.7-0.3,1.1-0.5s0.7-0.3,1.1-0.5h0c0.4-0.2,0.8-0.4,1.2-0.5s0.9-0.4,1.3-0.5
			c4.8-2.2,8.6-4,11.5-5.5c2.9-1.5,5-2.6,6.4-3.3c0.6-0.3,1.1-0.6,1.5-0.8s0.8-0.4,1.1-0.6c0.1,0,0.1-0.1,0.1-0.1
			c0,0,0.1-0.1,0.1-0.1l0,0c0.3-0.2,0.7-0.4,1-0.5C425.6,62.3,425.9,62.1,426.3,61.9L426.3,61.9z"/>
		<path class="st1" d="M423.8,62.4c0.4-0.2,0.8-0.3,1.1-0.4c0.3-0.1,0.6-0.2,0.9-0.3c0.3-0.1,0.6-0.2,0.9-0.3l0.1,0
			c0.9-0.2,1.7-0.1,2.4,0.4c0.7,0.5,1.1,1.1,1.3,1.9c0.1,0.7-0.1,1.4-0.6,2c-0.5,0.6-1,1-1.7,1.2h0c-0.2,0.1-0.4,0.1-0.5,0.1
			c-0.1,0-0.2,0-0.4,0c-0.1,0-0.4,0-0.6,0c-0.3,0-0.7,0.1-1.3,0.3c-0.2,0.1-0.4,0.1-0.5,0.1c-0.5,0.1-1.1,0.3-1.7,0.6
			c-0.7,0.3-1.4,0.7-2.2,1.2v0c-0.4,0.3-0.8,0.6-1.2,1.1c-0.4,0.4-0.7,0.9-1,1.5c-0.1,0.2-0.1,0.4-0.1,0.6c0,0.2-0.1,0.4-0.1,0.6
			c0,0.5,0.1,1.1,0.2,1.7c0.2,0.6,0.4,1.2,0.7,1.9c0.4,0.8,1.1,1.6,2.2,2.3c0.6,0.4,1.2,0.8,1.9,1.1c0.7,0.3,1.4,0.6,2.1,0.8
			c3.1,1,6.9,1.6,11.2,1.6c1.2,0,2.3,0,3.3-0.1c0.9-0.1,1.8-0.1,2.6-0.2h0.5c0.8-0.1,1.6-0.1,2.2-0.2c0.7-0.1,1.4-0.2,2.2-0.3
			c0.9-0.1,1.8-0.3,2.7-0.5c0.9-0.2,1.9-0.4,3-0.7h0c1.2-0.4,2.7-0.8,4.3-1.4c1.6-0.6,3.5-1.4,5.6-2.3h0c2.1-1,4-2.1,5.7-3
			s3.2-1.9,4.6-2.8c1.4-0.9,2.7-1.8,3.7-2.5s1.9-1.4,2.6-1.9c1.3-1,2.3-1.8,3-2.3c0.7-0.6,1.2-1,1.5-1.3c0.1-0.1,0.2-0.1,0.2-0.2
			c0.6-0.5,1.3-0.7,2-0.7c0.4,0,0.8,0.1,1.2,0.3c0.4,0.2,0.7,0.4,1,0.7c0.4,0.5,0.6,1.1,0.6,1.7c0,0.5-0.1,0.9-0.3,1.3
			c-0.2,0.4-0.5,0.8-0.9,1.1c0,0-0.1,0-0.1,0c0,0,0,0,0,0c-0.1,0.1-0.3,0.3-0.6,0.4c-0.3,0.2-0.6,0.4-1.1,0.7
			c-0.1,0.1-0.2,0.1-0.3,0.2c-0.1,0.1-0.2,0.2-0.4,0.3c-0.2,0.1-0.4,0.3-0.6,0.4c-0.2,0.1-0.5,0.3-0.7,0.5c-0.2,0.1-0.3,0.2-0.5,0.3
			c-0.2,0.1-0.4,0.2-0.5,0.4c-0.1,0.1-0.2,0.1-0.3,0.2s-0.2,0.2-0.3,0.2h0c-0.6,0.4-1.4,0.8-2.2,1.4c-0.8,0.5-1.7,1.1-2.7,1.7
			c-1.5,0.9-3.3,1.9-5.3,3s-4.4,2.3-7.2,3.6c-2.7,1.2-4.9,2.1-6.8,2.7s-3.6,1.2-5,1.6c-1.4,0.4-2.7,0.8-3.8,1.1
			c-1.1,0.3-2.1,0.5-3,0.8c-0.8,0.2-1.7,0.3-2.6,0.4c-0.9,0.1-1.9,0.2-3,0.4c-0.4,0.1-0.8,0.1-1.3,0.1c-0.5,0-1,0-1.5,0
			c-0.8,0-1.7,0-2.7-0.1s-2-0.2-3-0.4c-2.2-0.3-4.2-0.8-6-1.5c-1.8-0.6-3.2-1.2-4.4-1.8c-0.5-0.3-1.1-0.6-1.7-1
			c-0.6-0.4-1.2-0.8-1.6-1.2c-0.6-0.5-1.1-1-1.6-1.5s-0.9-1.2-1.3-2v0c-0.5-0.9-0.8-1.8-1-2.7c-0.2-0.9-0.4-1.8-0.4-2.7
			c0-0.6,0-1.2,0.1-1.6c0.2-1.1,0.6-2,1.1-2.8s1.1-1.5,1.6-2c1-0.9,1.9-1.6,2.8-2.1s1.6-0.9,2.2-1.2l0,0
			C422.8,62.8,423.4,62.6,423.8,62.4z"/>
	</g>
</g>
</svg>
