<?xml version="1.0" encoding="utf-8"?>
<!-- Generator: Adobe Illustrator 19.1.0, SVG Export Plug-In . SVG Version: 6.00 Build 0)  -->
<svg version="1.1" id="Layer_1" xmlns="http://www.w3.org/2000/svg" xmlns:xlink="http://www.w3.org/1999/xlink" x="0px" y="0px"
	 viewBox="-175 254.6 491 87.4" style="enable-background:new -175 254.6 491 87.4;" xml:space="preserve">
<style type="text/css">
	.st0{enable-background:new    ;}
</style>
<g>
	<g>
		<g>
			<g>
				<g class="st0">
					<path d="M-62.6,303.5c0.2,0.2,0.2,0.4,0.2,0.7c0,0.3-0.1,0.6-0.3,0.9c-0.2,0.4-0.4,0.6-0.7,1c-0.3,0.4-0.6,0.6-1.1,0.9
						c0,0-0.1,0.1-0.2,0.1c-0.1,0-0.1,0.1-0.2,0.1l0,0l-0.1,0.1l0,0c-0.2,0.1-0.4,0.3-0.5,0.4c-0.3,0.2-0.5,0.4-0.9,0.5
						c-0.5,0.4-1.2,0.8-2.1,1.3c-0.9,0.5-1.9,1.2-3.2,1.9c-0.7,0.4-1.4,0.8-2.3,1.2s-1.8,1-2.8,1.4c-1,0.4-2.1,1-3.4,1.6
						c-1.3,0.5-2.7,1.1-4.2,1.6c-0.8,0.3-1.7,0.5-2.5,0.7s-1.8,0.4-2.7,0.6c-0.7,0.1-1.4,0.2-2.1,0.3c-0.7,0.1-1.5,0.1-2.4,0.1
						c-0.3,0-0.5,0-0.8,0c-0.4,0-0.6,0-0.8-0.1c-1.1-0.1-2.3-0.3-3.4-0.5c-1.2-0.4-2.3-0.7-3.4-1.3c-1.1-0.6-2.2-1.3-3.3-2.3
						c-1.1-0.9-1.9-1.9-2.8-3.2c-0.7-1.1-1.3-2.2-1.9-3.4c-0.1-0.3-0.2-0.5-0.3-0.8c-0.1-0.3-0.2-0.5-0.3-0.8
						c-0.7,0.4-1.4,0.9-2,1.3s-1.3,0.8-1.9,1.2c-1.6,1-3,1.9-4.2,2.8c-1.3,0.9-2.5,1.7-3.6,2.5c-0.5,0.4-1.1,0.8-1.6,1.1
						c-0.5,0.4-1,0.7-1.4,1.1c-0.1,0-0.2,0.1-0.3,0.2c-0.1,0.1-0.2,0.2-0.3,0.3c-0.1,0.1-0.2,0.2-0.3,0.2c-0.1,0.1-0.3,0.2-0.5,0.4
						l-0.1,0.1c0,0.1-0.2,0.3-0.4,0.4c-0.2,0.3-0.4,0.4-0.7,0.4c-0.1,0.1-0.1,0.2-0.2,0.3c-0.1,0.1-0.1,0.2-0.1,0.2l-1.4-1.5v-0.5
						v-0.9c0,0,0,0,0.1,0c0,0,0.1,0,0.2-0.1l0.2-0.2c0.1-0.3,0.2-0.4,0.3-0.7c0.1-0.2,0.2-0.4,0.3-0.6l0,0c0.3-0.5,0.4-1.1,0.7-1.7
						c0.3-0.5,0.4-1.1,0.7-1.6l0,0c0.1-0.3,0.2-0.5,0.4-0.8c0.1-0.3,0.3-0.5,0.4-0.8l0,0c0.1-0.3,0.3-0.6,0.4-0.9
						c0.1-0.3,0.3-0.5,0.4-0.8c0.2-0.3,0.3-0.5,0.4-0.7c0.1-0.2,0.2-0.4,0.3-0.5c0-0.1,0.1-0.1,0.1-0.2v-0.1c0,0,0-0.1,0.1-0.2
						c0-0.1,0.1-0.2,0.1-0.3c-0.1-0.1-0.3-0.1-0.4-0.3c-0.2-0.1-0.3-0.2-0.3-0.3c-0.1-0.2-0.1-0.4-0.1-0.7c0.1-0.3,0.2-0.5,0.4-0.8
						c0.2-0.3,0.4-0.6,0.7-0.9s0.5-0.6,0.9-0.9c0.1-0.1,0.2-0.1,0.3-0.2s0.2-0.2,0.2-0.2s0.1-0.1,0.2-0.2c0.1-0.1,0.2-0.1,0.3-0.2
						c0.7-1.6,1.5-3.4,2.4-5.4c0.9-2,1.9-4.3,3.3-7.1c0.1-0.1,0.1-0.3,0.2-0.4c0.1-0.2,0.2-0.4,0.2-0.4c0.4-0.9,0.7-1.7,1.1-2.5
						c0.4-0.8,0.7-1.6,1.1-2.3c0.3-0.5,0.4-1,0.7-1.5c0.2-0.5,0.4-1,0.7-1.5c0.7-1.6,1.4-3.1,2-4.4c0.6-1.4,1.2-2.7,1.7-3.7
						c0-0.1,0.1-0.2,0.1-0.2l0,0V272c0.1-0.2,0.2-0.4,0.3-0.5s0.2-0.4,0.3-0.5c0.2-0.3,0.3-0.6,0.4-0.9c0.1-0.3,0.3-0.5,0.4-0.8l0,0
						c0.1-0.3,0.2-0.5,0.4-0.7c0.1-0.3,0.3-0.4,0.4-0.7l0.2-0.4c0-0.1,0.1-0.1,0.2-0.3c0.1-0.1,0.1-0.2,0.2-0.3l0.1-0.1l0,0
						c0-0.1,0.1-0.2,0.1-0.2c0-0.1,0.1-0.1,0.1-0.2v0.1l0.1,0.1c0.1-0.2,0.2-0.3,0.2-0.4c0.1-0.1,0.1-0.2,0.2-0.2
						c0.1-0.1,0.3-0.2,0.5-0.3c0.2-0.1,0.4-0.1,0.7-0.1c0.4,0,0.6,0.2,0.9,0.4s0.4,0.4,0.4,0.6c0.1,0.3,0.2,0.4,0.2,0.7
						c0,0.2,0,0.4,0,0.5c0,0.3,0,0.5,0,0.8c0,0.3,0,0.5-0.1,0.7c0,0,0,0,0,0.1v0.1v0.3c-0.1,0.4-0.2,1-0.3,1.6
						c-0.2,0.6-0.3,1.2-0.4,1.9c-0.5,1.9-1.1,3.7-1.7,5.4s-1.1,3.2-1.8,4.6s-1.1,2.7-1.7,3.9c-0.5,1.1-1.1,2.3-1.6,3.3
						c-1.1,2-2,3.7-2.9,5c-0.9,1.3-1.7,2.5-2.3,3.4c-0.6,0.9-1.2,1.6-1.7,2.2c-0.5,0.6-1,1.1-1.3,1.5l0,0c-0.3,0.3-0.4,0.5-0.7,0.7
						c-0.3,0.2-0.4,0.4-0.7,0.7c-0.5,1.1-0.9,2-1.2,2.7s-0.6,1.4-0.9,1.9c-0.3,0.6-0.5,1.1-0.8,1.8c-0.3,0.5-0.6,1.2-1,1.9
						c0.4-0.4,0.9-0.6,1.4-1c0.5-0.4,1-0.7,1.5-1.1c1-0.7,2-1.4,3.2-2.1c1.1-0.7,2.4-1.6,3.8-2.5c0.3-0.2,0.5-0.4,0.8-0.5
						c0.3-0.2,0.5-0.4,0.8-0.5l0.3-0.2l0.1-0.1c0.1,0,0.1,0,0.1-0.1c0.2-0.1,0.4-0.3,0.5-0.4c0.2-0.1,0.4-0.3,0.5-0.4l-0.1,0.1
						c0,0,0,0,0.1,0c0,0,0,0,0.1,0l0.1-0.1c0,0,0.1-0.1,0.2-0.1c0.1,0,0.2-0.1,0.3-0.1c0.1-0.1,0.2-0.1,0.3-0.2l0.1,0.3v-0.3
						c0.1,0,0.2,0,0.3-0.1c0.1,0,0.1,0,0.2-0.1c0.2-0.1,0.4-0.1,0.4-0.2c0.1,0,0.3,0,0.4,0.1c0.1,0.1,0.3,0.2,0.4,0.4
						c0.1,0.2,0.3,0.4,0.4,0.8v0.1v0.1l0.1,0.2c0.3,0.8,0.5,1.7,1,2.6c0.4,0.9,0.9,1.7,1.4,2.5s1.2,1.5,1.9,2.2
						c0.7,0.6,1.4,1.2,2.2,1.7c0.7,0.4,1.5,0.8,2.4,1.1c0.8,0.3,1.7,0.5,2.5,0.7l0,0c0.5,0.1,1.1,0.2,1.7,0.2
						c0.5,0.1,1.1,0.1,1.5,0.1c1.1,0,2.2-0.1,3.2-0.3c1-0.2,1.9-0.4,2.9-0.5c1.4-0.4,2.7-0.7,3.9-1.1c1.2-0.4,2.4-0.9,3.4-1.4
						c0.4-0.2,0.9-0.4,1.4-0.6c0.4-0.3,1-0.4,1.4-0.7c0.4-0.3,1-0.4,1.4-0.7c0.4-0.3,0.8-0.4,1.2-0.6c1.4-0.8,2.7-1.6,3.7-2.2
						c1.1-0.7,1.9-1.2,2.7-1.7l0.1-0.1l0.1-0.1c0.7-0.4,1.2-0.8,1.7-1.1c0.4-0.3,0.7-0.4,0.9-0.6c0.4-0.3,0.8-0.4,1.2-0.7
						c0.4-0.2,0.8-0.3,1.1-0.4s0.6-0.1,1,0C-63,303.2-62.8,303.2-62.6,303.5z M-109.4,277.8c-0.1,0.3-0.3,0.5-0.4,0.8
						c-0.1,0.3-0.3,0.5-0.4,0.9c-0.2,0.4-0.4,0.8-0.5,1.2c-0.2,0.4-0.4,0.9-0.5,1.2c-0.3,0.6-0.5,1.1-0.8,1.8
						c-0.3,0.6-0.5,1.2-0.8,1.9c-0.3,0.6-0.4,1.1-0.6,1.5c-0.2,0.4-0.4,0.7-0.4,1.1c-0.1,0.3-0.3,0.6-0.4,0.9
						c-0.1,0.3-0.3,0.6-0.4,0.9c-0.2,0.4-0.4,0.7-0.5,1.2c-0.2,0.4-0.4,1.1-0.8,1.8c0.2-0.4,0.4-0.6,0.5-0.8
						c0.2-0.3,0.3-0.5,0.5-0.9c0.6-1.1,1.2-2.2,1.9-3.5c0.7-1.3,1.3-2.7,2-4.2c0.6-1.5,1.2-3.1,1.9-4.9c0.7-1.8,1.3-3.7,1.9-5.7
						c-0.3,0.7-0.6,1.3-0.9,2c-0.3,0.7-0.6,1.4-0.9,2.1l0,0c0,0.1-0.1,0.2-0.1,0.2c0,0.1-0.1,0.1-0.1,0.2L-109.4,277.8L-109.4,277.8
						z M-106.9,266.5l-0.2,0.2C-107,266.6-107,266.6-106.9,266.5C-107,266.5-107,266.5-106.9,266.5z"/>
					<path d="M-13.8,303.6c0.2,0.4,0.2,0.9-0.1,1.4c-0.3,0.4-0.6,0.8-1.1,1.1c-0.1,0.1-0.3,0.1-0.5,0.2l0,0l0,0
						c-0.1,0-0.2,0-0.3,0.1c-0.1,0-0.3,0.1-0.4,0.2c-0.2,0.1-0.4,0.2-0.8,0.3s-0.7,0.3-1.2,0.4c-0.8,0.3-1.8,0.6-2.9,1.1
						c-1.2,0.4-2.7,1-4.5,1.7c-1.9,0.7-4,1.4-6.4,2.4c-2.5,1-5.5,1.9-8.8,2.9c-3.4,1.1-6.6,1.9-9.5,2.5c-2.9,0.6-5.6,0.9-8,1
						c-1.2,0-2.4-0.1-3.5-0.3c-1.1-0.2-2.2-0.5-3.1-1.1c-1.1-0.6-1.8-1.3-2.3-2.2c-0.3-0.4-0.4-0.9-0.6-1.4
						c-0.2-0.5-0.3-0.9-0.3-1.2c-0.1-0.8,0-1.5,0.1-2.2c0.1-0.6,0.3-1.2,0.4-1.8c0.2-0.6,0.4-1.1,0.4-1.5c0.1-0.4,0.3-0.7,0.4-0.9
						c0.2-0.4,0.4-0.9,0.5-1.2s0.4-0.6,0.4-0.8c0.2-0.3,0.4-0.4,0.5-0.6c0.2-0.2,0.4-0.3,0.7-0.4c0.3-0.1,0.4-0.1,0.7-0.1
						c0.3,0,0.4,0.1,0.7,0.3c0.4,0.3,0.6,0.6,0.7,1.1c0.1,0.4,0.1,0.9-0.2,1.3l0,0c-0.1,0.2-0.2,0.4-0.2,0.4s0,0-0.1,0.1
						c-0.1,0.1-0.1,0.2-0.2,0.4c-0.1,0.1-0.2,0.3-0.4,0.4c-0.1,0.1-0.2,0.3-0.3,0.5c-0.1,0.2-0.3,0.4-0.4,0.8l0,0
						c-0.2,0.4-0.3,0.7-0.4,1.1c-0.2,0.4-0.3,0.8-0.4,1.3l0,0c-0.1,0.3-0.1,0.5-0.1,0.8c0,0.3-0.1,0.5-0.1,0.8s0.1,0.5,0.1,0.8
						c0.1,0.3,0.2,0.5,0.3,0.8c0.2,0.3,0.4,0.5,0.6,0.7c0.3,0.3,0.5,0.4,0.9,0.6c0.8,0.4,1.8,0.7,2.7,0.8c0.8,0.1,1.6,0.2,2.4,0.2
						c0.8,0,1.8-0.1,2.7-0.2c1-0.1,2-0.3,3.1-0.4c0.8-0.1,1.6-0.3,2.5-0.4c0.9-0.2,1.8-0.4,2.7-0.6c0.9-0.3,1.9-0.4,2.8-0.7
						c1-0.3,1.9-0.5,2.7-0.8c1.4-0.4,2.7-0.9,4.2-1.3c1.3-0.4,2.7-0.9,3.9-1.3s2.4-0.9,3.4-1.2c1.1-0.4,1.9-0.8,2.7-1.1
						c1.6-0.6,2.9-1.1,4.2-1.7c1.2-0.5,2.2-1,2.9-1.2l0,0c0.9-0.4,1.6-0.7,2-1c0.4-0.3,0.8-0.4,1.1-0.5c0.2-0.1,0.4-0.2,0.6-0.3
						c0.2-0.1,0.4-0.2,0.6-0.3c0.5-0.2,1-0.2,1.5-0.1C-14.4,303-14,303.2-13.8,303.6z M-54.7,290.8c-0.2,0-0.4,0-0.4,0.1
						c-0.2,0-0.4,0-0.4,0.1c-0.1,0-0.2,0-0.4,0c-0.1,0-0.2,0-0.3,0c-1,0.1-1.9,0.2-2.5,0.3c-0.7,0.1-1.2,0.1-1.7,0.1
						c-0.9,0-1.4-0.2-1.8-0.4c-0.4-0.3-0.5-0.7-0.5-1.2c0-0.5,0.1-1,0.4-1.3c0.3-0.4,0.5-0.5,0.9-0.5c0,0,0.1,0,0.2,0
						c0.1,0,0.2,0,0.3,0.1l0,0c0.1,0,0.4,0.1,0.7,0.1c0.4,0,1,0.1,1.9,0.1c0.8,0,1.7,0,2.9-0.1c1.1,0,2.7-0.1,4.4-0.2
						c1.3-0.1,2.5-0.2,3.4-0.3c0.9-0.1,1.6-0.2,2.1-0.3s0.9-0.2,1.1-0.2c0.3-0.1,0.4-0.1,0.5-0.2c0.1,0,0.2-0.1,0.3-0.1
						c0.1,0,0.2,0,0.3,0c0.2-0.1,0.4-0.1,0.6-0.2c0.2,0,0.4,0,0.6,0c0.2,0.1,0.4,0.2,0.4,0.4c0.1,0.2,0.2,0.4,0.3,0.9
						c0,0.4-0.1,0.8-0.3,1.1c-0.3,0.3-0.5,0.4-1.1,0.6c-0.4,0.2-1.1,0.3-1.8,0.4c-0.7,0.1-1.5,0.2-2.5,0.2l0,0c-0.1,0-0.3,0-0.4,0
						c-0.1,0-0.3,0-0.4,0c-0.9,0.1-1.9,0.2-3.1,0.3C-52.1,290.4-53.3,290.6-54.7,290.8z"/>
					<path d="M72.9,303.8c0.1,0.2,0.1,0.4,0,0.7c-0.1,0.3-0.2,0.5-0.4,0.8c-0.2,0.3-0.4,0.5-0.7,0.7c-0.3,0.3-0.6,0.4-1,0.6h-0.1
						h-0.1c-0.2,0.1-0.3,0.1-0.4,0.2c-0.2,0.1-0.4,0.2-0.7,0.3c-0.2,0.1-0.4,0.1-0.6,0.2c-0.2,0.1-0.5,0.2-0.8,0.3
						c-0.2,0.1-0.3,0.1-0.5,0.2c-0.2,0.1-0.4,0.1-0.5,0.2l-0.3,0.1l0,0c-0.7,0.3-1.8,0.6-3.1,1c-1.3,0.4-2.9,0.9-4.7,1.3
						c-1.9,0.5-4.3,1-7.2,1.5c-2.8,0.5-5.9,0.9-9.5,1.1c-0.4,0-0.8,0-1.1,0.1c-0.4,0.1-0.7,0-1,0.1c-0.4,0-0.7,0-1.1,0s-0.8,0-1.2,0
						v0.1c0,0,0,0,0,0.1c-0.2,0.4-0.3,0.7-0.4,1.1c-0.1,0.3-0.3,0.7-0.4,1.1c0.5,0.7,1.1,1.4,1.6,2.1c0.5,0.8,1.1,1.6,1.7,2.6
						c0,0.1,0.1,0.2,0.2,0.3c0.1,0.1,0.1,0.2,0.2,0.3c0.2,0.3,0.3,0.5,0.4,0.9s0.3,0.6,0.4,0.9c0,0.1,0,0.1,0,0.2
						c0.1,0.3,0.2,0.5,0.2,0.7c0.1,0.3,0.1,0.5,0.1,0.8c0,0.2,0,0.4-0.1,0.8c-0.1,0.3-0.3,0.6-0.5,1c-0.4,0.4-0.7,0.5-1.1,0.6
						c-0.4,0.1-0.6,0.1-0.9,0.1c-0.4,0-0.7-0.1-1-0.2c-0.3-0.1-0.5-0.2-0.8-0.4c-0.2-0.1-0.4-0.2-0.5-0.4c-0.3-0.2-0.4-0.4-0.6-0.4
						c-0.4-0.3-0.7-0.6-1.1-1c-0.4-0.4-0.7-0.7-1-1.1c-0.2-0.2-0.4-0.4-0.5-0.7c-0.2-0.3-0.4-0.6-0.5-1c-0.2-0.4-0.3-0.9-0.4-1.2
						c0-0.4,0-0.6,0-0.9c0,0,0,0,0-0.1v-0.1c0.1-0.5,0.2-1,0.3-1.5c0.1-0.4,0.3-0.9,0.4-1.3l0,0c0-0.1,0-0.1,0.1-0.2l0.1-0.1
						c0-0.1,0-0.2,0-0.2s0-0.2,0.1-0.3c-0.1-0.1-0.1-0.2-0.2-0.2c-0.1,0-0.1-0.1-0.2-0.2l0,0c-0.2-0.1-0.3-0.3-0.4-0.4l-0.1-0.1
						c0,0,0-0.1-0.1-0.1l-0.1-0.1c0,0,0-0.1-0.1-0.1l0.1,0.1l-0.4-0.4c-0.1-0.1-0.2-0.3-0.3-0.4c-0.1-0.1-0.2-0.2-0.2-0.3l-0.1-0.2
						c0,0-0.1-0.1-0.1-0.2c0-0.1-0.1-0.1-0.1-0.1l-1.2-2.7l5.4,0.3c0.2-0.4,0.4-0.9,0.6-1.3c0.2-0.4,0.4-0.9,0.6-1.3
						c0.1-0.2,0.2-0.4,0.3-0.6s0.2-0.4,0.3-0.6v-0.1v-0.1c0-0.1,0.1-0.1,0.1-0.2c0.2-0.4,0.3-0.7,0.4-0.9s0.2-0.4,0.3-0.6
						c0.1-0.2,0.2-0.4,0.4-0.7c0.2-0.3,0.4-0.7,0.6-1.3c-0.4,0.3-0.6,0.5-0.9,0.7c-0.3,0.2-0.5,0.4-0.7,0.6
						c-0.2,0.2-0.4,0.3-0.5,0.4c-0.2,0.1-0.4,0.3-0.4,0.4c-0.1,0.1-0.2,0.2-0.3,0.3s-0.2,0.2-0.3,0.2c-0.1,0.1-0.1,0.1-0.2,0.2
						c-0.1,0.1-0.1,0.1-0.1,0.1l-0.1,0.1l-0.1,0.1c-0.4,0.3-0.8,0.5-1.1,0.6c-0.4,0.1-0.8,0.2-1.1,0.2c-0.6,0-1.1-0.2-1.2-0.6l0,0
						c-0.2-0.2-0.2-0.4-0.2-0.7s0.1-0.5,0.3-0.8c0.2-0.3,0.4-0.5,0.5-0.9c0.3-0.3,0.5-0.5,0.8-0.8c0.1-0.1,0.3-0.2,0.4-0.3
						c0.1-0.1,0.2-0.2,0.3-0.2c0.1-0.1,0.2-0.2,0.4-0.2c0.1-0.1,0.3-0.2,0.4-0.3l0.1-0.2c0.1,0,0.1-0.1,0.2-0.1c0,0,0,0,0.1-0.1
						l0.1-0.1c0.4-0.3,0.8-0.6,1.3-1c0.5-0.4,1.1-0.9,1.9-1.5c0.6-0.5,1.2-1.1,2-1.7c0.7-0.6,1.5-1.4,2.4-2.2c0.7-1.4,1.6-3,2.5-4.8
						c0.9-1.8,1.9-3.6,3.2-5.7c0,0,0.1-0.1,0.1-0.2c0-0.1,0.1-0.2,0.1-0.3c0.4-0.7,0.8-1.4,1.2-2.1c0.4-0.7,0.8-1.3,1.2-1.9
						c0-0.1,0.1-0.1,0.2-0.3c0.1-0.1,0.2-0.2,0.3-0.4l0.1-0.1c0-0.1,0.1-0.1,0.2-0.2c0.1-0.1,0.2-0.1,0.3-0.2h0.1c0,0,0,0-0.1,0
						l0.3-0.3H53c0,0,0.1,0,0.1-0.1c0-0.1,0.2-0.1,0.4-0.2h0.4c0.1,0,0.1,0,0.2,0s0.2,0,0.3,0.1l0,0c0.4,0.2,0.7,0.4,0.8,0.6
						c0.1,0.3,0.3,0.4,0.4,0.7v0.2c0,0.1,0,0.2,0,0.3c0,0.1,0,0.2,0,0.2c0,0.2,0,0.4,0,0.4c0,0.2,0,0.3,0,0.4
						c-0.1,0.4-0.2,0.7-0.3,1.1c-0.1,0.4-0.3,0.7-0.4,1.1l-0.1,0.3c-0.5,1.4-1.2,2.7-1.9,3.9c-0.7,1.1-1.4,2.3-2.2,3.4
						c-1,1.4-2,2.7-3,3.7s-1.9,2.1-2.8,3c-0.4,0.7-0.6,1.3-0.9,1.9c-0.3,0.6-0.5,1.1-0.8,1.7l0,0c-0.9,1.9-1.7,3.6-2.3,5
						c-0.6,1.4-1.1,2.7-1.6,4l0,0l0,0l0,0c0.6,0,1.1,0,1.8-0.1c0.6-0.1,1.2-0.1,1.9-0.1c3-0.3,5.7-0.5,8-1s4.3-0.9,6-1.3
						c1.6-0.4,3-0.8,4.2-1.2c1.1-0.4,2.2-0.8,3.1-1.1c1-0.4,1.7-0.6,2.3-0.9c0.5-0.3,1.1-0.4,1.5-0.6c0.1,0,0.2-0.1,0.3-0.1
						c0.1,0,0.2-0.1,0.3-0.1s0.2-0.1,0.4-0.1c0.1,0,0.2-0.1,0.4-0.2l0,0c0.1-0.1,0.3-0.1,0.4-0.2s0.3-0.1,0.4-0.1l0,0
						c0.7-0.3,1.3-0.4,1.9-0.4c0.4,0,0.7,0.1,1,0.2C72.6,303.3,72.8,303.5,72.9,303.8L72.9,303.8z M37.9,322.1
						c-0.2-0.4-0.4-0.7-0.5-1c-0.2-0.3-0.4-0.5-0.4-0.8l0,0c-0.1-0.1-0.2-0.2-0.2-0.3c-0.1-0.1-0.1-0.2-0.2-0.3
						c-0.1-0.1-0.2-0.2-0.2-0.3c0,0-0.1-0.1-0.2-0.3c0,0.1,0,0.2,0,0.3s0,0.2,0,0.3s0,0.2,0,0.4c0,0.1,0,0.2,0,0.2
						c0.1,0.1,0.1,0.3,0.3,0.4c0.1,0.2,0.2,0.4,0.4,0.5c0.4,0.5,0.9,1.1,1.5,1.6c0,0,0-0.1-0.1-0.1c0,0,0-0.1-0.1-0.1
						c0-0.1-0.1-0.1-0.1-0.2C38,322.2,37.9,322.1,37.9,322.1L37.9,322.1z M53.3,282.1C53.3,282.2,53.3,282.2,53.3,282.1
						c-0.1,0.1-0.1,0.1-0.1,0.2C53.3,282.2,53.3,282.2,53.3,282.1z"/>
					<path d="M132.6,303.5c0.2,0.2,0.2,0.4,0.2,0.7c0,0.3-0.1,0.6-0.3,0.9c-0.2,0.4-0.4,0.6-0.7,1c-0.3,0.4-0.6,0.6-1.1,0.9
						c0,0-0.1,0.1-0.2,0.1c-0.1,0-0.1,0.1-0.2,0.1l0,0l-0.1,0.1l0,0c-0.2,0.1-0.4,0.3-0.5,0.4c-0.3,0.2-0.5,0.4-0.9,0.5
						c-0.5,0.4-1.2,0.8-2.1,1.3c-0.9,0.5-1.9,1.2-3.2,1.9c-0.7,0.4-1.4,0.8-2.3,1.2s-1.8,1-2.8,1.4c-1,0.4-2.1,1-3.4,1.6
						c-1.3,0.5-2.7,1.1-4.2,1.6c-0.8,0.3-1.7,0.5-2.5,0.7s-1.8,0.4-2.7,0.6c-0.7,0.1-1.4,0.2-2.1,0.3c-0.7,0.1-1.5,0.1-2.4,0.1
						c-0.3,0-0.5,0-0.8,0c-0.4,0-0.6,0-0.8-0.1c-1.1-0.1-2.3-0.3-3.4-0.5c-1.1-0.4-2.3-0.7-3.4-1.3c-1.1-0.6-2.2-1.3-3.3-2.3
						c-1.1-0.9-1.9-1.9-2.8-3.2c-0.7-1.1-1.3-2.2-1.9-3.4c-0.1-0.3-0.2-0.5-0.3-0.8c-0.1-0.3-0.2-0.5-0.3-0.8
						c-0.7,0.4-1.4,0.9-2,1.3c-0.6,0.4-1.3,0.8-1.9,1.2c-1.6,1-3,1.9-4.2,2.8c-1.3,0.9-2.5,1.7-3.6,2.5c-0.5,0.4-1.1,0.8-1.6,1.1
						c-0.5,0.4-1,0.7-1.4,1.1c-0.1,0-0.2,0.1-0.3,0.2c-0.1,0.1-0.2,0.2-0.3,0.3c-0.1,0.1-0.2,0.2-0.3,0.2c-0.1,0.1-0.3,0.2-0.5,0.4
						l-0.2,0.3c0,0.1-0.2,0.3-0.4,0.4c-0.2,0.3-0.4,0.4-0.7,0.4c-0.1,0.1-0.1,0.2-0.2,0.3c-0.1,0.1-0.1,0.2-0.1,0.2l-1.4-1.5v-0.5
						v-0.9c0,0,0,0,0.1,0c0,0,0.1,0,0.2-0.1l0.2-0.2c0.1-0.3,0.2-0.4,0.3-0.7c0.1-0.2,0.2-0.4,0.3-0.6l0,0c0.3-0.5,0.4-1.1,0.7-1.7
						c0.3-0.5,0.4-1.1,0.7-1.6l0,0c0.1-0.3,0.2-0.5,0.4-0.8c0.1-0.3,0.3-0.5,0.4-0.8l0,0c0.1-0.3,0.3-0.6,0.4-0.9s0.3-0.5,0.4-0.8
						c0.2-0.3,0.3-0.5,0.4-0.7c0.1-0.2,0.2-0.4,0.3-0.5c0-0.1,0.1-0.1,0.1-0.2v-0.1c0,0,0-0.1,0.1-0.2c0-0.1,0.1-0.2,0.1-0.3
						c-0.1-0.1-0.3-0.1-0.4-0.3c-0.2-0.1-0.3-0.2-0.3-0.3c-0.1-0.2-0.1-0.4-0.1-0.7c0.1-0.3,0.2-0.5,0.4-0.8s0.4-0.6,0.7-0.9
						c0.3-0.3,0.5-0.6,0.9-0.9c0.1-0.1,0.2-0.1,0.3-0.2c0.1-0.1,0.2-0.2,0.2-0.2s0.1-0.1,0.2-0.2c0.1-0.1,0.2-0.1,0.3-0.2
						c0.7-1.6,1.5-3.4,2.4-5.4s1.9-4.3,3.3-7.1c0.1-0.1,0.1-0.3,0.2-0.4c0.1-0.2,0.2-0.4,0.2-0.4c0.4-0.9,0.7-1.7,1.1-2.5
						c0.4-0.8,0.7-1.6,1.1-2.3c0.3-0.5,0.4-1,0.7-1.5c0.2-0.5,0.4-1,0.7-1.5c0.7-1.6,1.4-3.1,2-4.4c0.6-1.4,1.2-2.7,1.7-3.7
						c0-0.1,0.1-0.2,0.1-0.2l0,0v-0.1c0.1-0.2,0.2-0.4,0.3-0.5c0.1-0.2,0.2-0.4,0.3-0.5c0.2-0.3,0.3-0.6,0.4-0.9
						c0.1-0.3,0.3-0.5,0.4-0.8l0,0c0.1-0.3,0.2-0.5,0.4-0.7c0.1-0.3,0.3-0.4,0.4-0.7l0.2-0.4c0-0.1,0.1-0.1,0.2-0.3
						c0.1-0.2,0.1-0.2,0.2-0.3l0.1-0.1l0,0c0-0.1,0.1-0.2,0.1-0.2c0-0.1,0.1-0.1,0.1-0.2v0.1l0.1,0.1c0.1-0.2,0.2-0.3,0.2-0.4
						c0.1-0.1,0.1-0.2,0.2-0.2c0.1-0.1,0.3-0.2,0.5-0.3c0.2-0.1,0.4-0.1,0.7-0.1c0.4,0,0.6,0.2,0.9,0.4c0.3,0.3,0.4,0.4,0.4,0.6
						c0.1,0.3,0.2,0.4,0.2,0.7c0,0.2,0,0.4,0,0.5c0,0.3,0,0.5,0,0.8c0,0.3,0,0.5-0.1,0.7c0,0,0,0,0,0.1v0.1v0.3
						c-0.1,0.4-0.2,1-0.3,1.6c-0.2,0.6-0.3,1.2-0.4,1.9c-0.5,1.9-1.1,3.7-1.7,5.4c-0.6,1.7-1.1,3.2-1.8,4.6
						c-0.6,1.4-1.1,2.7-1.7,3.9c-0.5,1.1-1.1,2.3-1.6,3.3c-1.1,2-2,3.7-2.9,5c-0.9,1.3-1.5,2.5-2.2,3.4c-0.6,0.9-1.2,1.6-1.7,2.2
						c-0.5,0.6-1,1.1-1.3,1.5l0,0c-0.3,0.3-0.4,0.5-0.7,0.7c-0.3,0.2-0.4,0.4-0.7,0.7c-0.5,1.1-0.9,2-1.2,2.7
						c-0.4,0.7-0.6,1.4-0.9,1.9c-0.3,0.6-0.5,1.1-0.8,1.8c-0.3,0.5-0.6,1.2-1,1.9c0.4-0.4,0.9-0.6,1.4-1c0.4-0.4,1-0.7,1.5-1.1
						c1-0.7,2-1.4,3.2-2.1c1.1-0.7,2.4-1.6,3.8-2.5c0.3-0.2,0.5-0.4,0.8-0.5c0.3-0.2,0.5-0.4,0.8-0.5l0.3-0.2c0,0,0.1-0.1,0.2-0.1
						s0.1,0,0.1-0.1c0.2-0.1,0.4-0.3,0.5-0.4c0.2-0.1,0.4-0.3,0.5-0.4l-0.1,0.1c0,0,0,0,0.1,0c0,0,0,0,0.1,0l0.1-0.1
						c0,0,0.1-0.1,0.2-0.1s0.2-0.1,0.3-0.1c0.1-0.1,0.2-0.1,0.3-0.2l0.1,0.3v-0.3c0.1,0,0.2,0,0.3-0.1c0.1,0,0.2,0,0.2-0.1
						c0.2-0.1,0.4-0.1,0.4-0.2c0.1,0,0.3,0,0.4,0.1s0.3,0.2,0.4,0.4c0.1,0.2,0.3,0.4,0.4,0.8v0.1v0.1l0.1,0.2c0.3,0.8,0.5,1.7,1,2.6
						c0.4,0.9,0.9,1.7,1.4,2.5c0.5,0.8,1.2,1.5,1.9,2.2c0.7,0.6,1.4,1.2,2.2,1.7c0.7,0.4,1.5,0.8,2.4,1.1c0.8,0.3,1.7,0.5,2.5,0.7
						l0,0c0.5,0.1,1.1,0.2,1.7,0.2c0.5,0.1,1.1,0.1,1.5,0.1c1.1,0,2.2-0.1,3.2-0.3c1-0.2,1.9-0.4,2.9-0.5c1.4-0.4,2.7-0.7,3.9-1.1
						c1.2-0.4,2.4-0.9,3.4-1.4c0.4-0.2,0.9-0.4,1.4-0.6c0.4-0.3,1-0.4,1.4-0.7c0.4-0.3,1-0.4,1.4-0.7c0.4-0.3,0.8-0.4,1.1-0.6
						c1.4-0.8,2.7-1.6,3.7-2.2c1.1-0.6,1.9-1.2,2.7-1.7c0,0,0.1-0.1,0.2-0.1c0.1,0,0.1-0.1,0.1-0.1c0.7-0.4,1.2-0.8,1.7-1.1
						c0.4-0.3,0.7-0.4,0.9-0.6c0.4-0.3,0.8-0.4,1.1-0.7c0.4-0.2,0.8-0.3,1.1-0.4c0.4-0.1,0.6-0.1,0.9,0
						C132.2,303.2,132.4,303.2,132.6,303.5z M85.8,277.8c-0.1,0.3-0.3,0.5-0.4,0.8s-0.3,0.5-0.4,0.9c-0.2,0.4-0.4,0.8-0.5,1.2
						s-0.4,0.9-0.5,1.2c-0.3,0.6-0.5,1.1-0.8,1.8c-0.3,0.6-0.5,1.2-0.8,1.9c-0.3,0.6-0.4,1.1-0.6,1.5c-0.2,0.4-0.4,0.7-0.4,1.1
						c-0.1,0.4-0.3,0.6-0.4,0.9s-0.3,0.6-0.4,0.9c-0.1,0.3-0.4,0.7-0.5,1.2c-0.2,0.4-0.4,1.1-0.8,1.8c0.2-0.4,0.4-0.6,0.5-0.8
						c0.2-0.3,0.3-0.5,0.5-0.9c0.6-1.1,1.2-2.2,1.9-3.5c0.7-1.3,1.3-2.7,2-4.2c0.6-1.5,1.2-3.1,1.9-4.9c0.7-1.8,1.3-3.7,1.9-5.7
						c-0.3,0.7-0.6,1.3-0.9,2c-0.3,0.7-0.6,1.4-0.9,2.1l0,0c0,0.1-0.1,0.2-0.1,0.2c0,0.1-0.1,0.1-0.1,0.2L85.8,277.8L85.8,277.8z
						 M88.3,266.5l-0.2,0.2C88.2,266.6,88.2,266.6,88.3,266.5L88.3,266.5z"/>
					<path d="M128.3,303.4c0.3-0.1,0.5-0.2,0.7-0.3s0.4-0.1,0.5-0.2c0.2-0.1,0.4-0.1,0.6-0.2h0.1c0.5-0.1,1.1,0,1.5,0.3
						s0.7,0.7,0.8,1.1c0,0.4-0.1,0.9-0.4,1.2c-0.3,0.4-0.6,0.6-1.1,0.8l0,0c-0.1,0-0.2,0.1-0.3,0.1c-0.1,0-0.2,0-0.3,0
						c-0.1,0-0.2,0-0.4,0c-0.2,0-0.4,0.1-0.8,0.2c-0.2,0-0.3,0.1-0.4,0.1c-0.3,0.1-0.7,0.2-1.1,0.4c-0.4,0.2-0.9,0.4-1.4,0.8l0,0
						c-0.3,0.2-0.5,0.4-0.8,0.7c-0.3,0.3-0.4,0.6-0.6,1c0,0.2-0.1,0.3-0.1,0.4c0,0.1,0,0.3,0,0.4c0,0.4,0.1,0.7,0.2,1.1
						c0.1,0.4,0.3,0.8,0.4,1.1c0.3,0.5,0.7,1,1.4,1.4c0.4,0.3,0.8,0.4,1.1,0.7c0.4,0.2,0.9,0.4,1.3,0.5c1.9,0.6,4.3,1,7,1.1
						c0.8,0,1.5,0,2,0s1.1-0.1,1.6-0.1h0.3c0.5,0,1-0.1,1.4-0.1c0.4,0,0.9-0.1,1.4-0.2c0.5-0.1,1.1-0.2,1.7-0.3s1.2-0.3,1.9-0.4l0,0
						c0.8-0.3,1.7-0.5,2.7-0.9c1-0.4,2.2-0.9,3.5-1.5l0,0c1.3-0.6,2.6-1.3,3.6-1.9c1.1-0.6,2-1.2,2.9-1.8c0.9-0.6,1.7-1.1,2.3-1.6
						c0.6-0.4,1.1-0.9,1.6-1.2c0.8-0.6,1.4-1.1,1.9-1.5c0.4-0.4,0.8-0.6,1-0.8c0.1,0,0.1-0.1,0.1-0.1c0.4-0.3,0.8-0.4,1.2-0.4
						c0.3,0,0.5,0.1,0.8,0.2c0.3,0.1,0.4,0.3,0.6,0.4c0.3,0.4,0.4,0.7,0.4,1.1c0,0.3-0.1,0.5-0.2,0.8c-0.2,0.3-0.4,0.5-0.5,0.7
						c0,0,0,0-0.1,0l0,0c-0.1,0.1-0.2,0.2-0.4,0.3c-0.2,0.1-0.4,0.3-0.7,0.4c-0.1,0-0.2,0.1-0.2,0.1c-0.1,0.1-0.2,0.1-0.3,0.2
						c-0.1,0.1-0.3,0.2-0.4,0.3c-0.2,0.1-0.3,0.2-0.4,0.3c-0.1,0.1-0.2,0.2-0.4,0.2c-0.2,0-0.3,0.2-0.4,0.3c-0.1,0-0.2,0.1-0.2,0.2
						c-0.1,0.1-0.1,0.1-0.2,0.1l0,0c-0.4,0.3-0.9,0.5-1.4,0.9c-0.5,0.4-1.1,0.7-1.7,1.1c-1,0.5-2,1.2-3.4,1.9
						c-1.3,0.7-2.8,1.4-4.5,2.2c-1.7,0.7-3.1,1.3-4.2,1.7c-1.2,0.4-2.2,0.7-3.2,1.1c-0.9,0.3-1.7,0.4-2.4,0.7
						c-0.7,0.2-1.3,0.4-1.9,0.4c-0.5,0.1-1.1,0.2-1.6,0.3c-0.6,0.1-1.2,0.2-1.9,0.3c-0.3,0-0.5,0.1-0.8,0.1c-0.3,0-0.6,0-0.9,0
						c-0.5,0-1.1,0-1.7-0.1c-0.6-0.1-1.2-0.1-1.9-0.3c-1.4-0.2-2.7-0.5-3.7-0.9c-1.1-0.4-2-0.8-2.7-1.1c-0.4-0.2-0.7-0.4-1.1-0.6
						c-0.4-0.3-0.7-0.5-1.1-0.7c-0.4-0.3-0.7-0.6-1-1c-0.3-0.4-0.5-0.8-0.8-1.2l0,0c-0.3-0.5-0.5-1.1-0.6-1.7
						c-0.2-0.5-0.3-1.1-0.3-1.7c0-0.4,0-0.7,0.1-1c0.2-0.7,0.4-1.2,0.7-1.8c0.4-0.5,0.7-0.9,1.1-1.2c0.6-0.5,1.2-1,1.8-1.3
						s1.1-0.5,1.4-0.8l0,0C127.7,303.7,128.1,303.5,128.3,303.4z"/>
					<path d="M223.6,303.1c0.4-0.2,0.7-0.3,1.1-0.3c0.4,0,0.7,0.1,1,0.3c0.3,0.2,0.5,0.4,0.6,0.7c0.3,0.4,0.2,1,0,1.5
						c-0.2,0.5-0.7,0.9-1.2,1.1h-0.1c0,0,0,0-0.1,0c0,0-0.1,0-0.2,0.1c-0.1,0-0.1,0-0.1,0c-0.1,0-0.3,0.1-0.5,0.2
						c-0.3,0.1-0.6,0.3-1.1,0.4c-0.5,0.2-1.1,0.4-1.9,0.8c-0.8,0.4-1.8,0.8-3,1.3c-0.8,0.4-1.6,0.7-2.7,1.1c-1,0.4-2,0.9-3.2,1.4
						c-0.4,0.2-0.7,0.3-1,0.4c-0.3,0.2-0.7,0.3-1.1,0.4c-0.6,0.3-1.1,0.5-1.9,0.8c-0.6,0.3-1.2,0.6-1.9,0.9l-1.1,0.5l0,0
						c-0.4,0.2-0.7,0.4-1.1,0.4c-0.4,0.2-0.7,0.4-1.1,0.4c-0.7,0.3-1.3,0.6-2.1,0.9c-0.7,0.4-1.5,0.6-2.3,0.9
						c-0.8,0.3-1.7,0.5-2.6,0.8c-0.9,0.3-1.9,0.4-3,0.5c-0.4,0-0.7,0-1.1,0c-0.4,0-0.8-0.1-1.1-0.3c-0.3-0.1-0.4-0.3-0.7-0.4
						c-0.3-0.2-0.4-0.3-0.6-0.5c-0.4-0.4-0.6-0.8-0.8-1.2l0,0c-0.2-0.4-0.2-0.7-0.3-1.1c0-0.3,0-0.6,0-0.9s0.1-0.4,0.1-0.5
						c0-0.1,0-0.2,0.1-0.3c0,0,0,0,0-0.1c0,0,0,0,0-0.1l0.2-0.4c0.3-0.9,0.5-1.6,0.8-2.1c0.3-0.5,0.5-1.1,0.8-1.7
						c0.2-0.3,0.3-0.5,0.4-0.7c0.1-0.2,0.2-0.4,0.4-0.7c0.1-0.3,0.3-0.5,0.4-0.8c0.2-0.3,0.4-0.6,0.6-1.1c-0.5,0.2-1.1,0.3-1.7,0.4
						c-0.5,0.1-1.1,0.3-1.9,0.4c-1.9,0.4-3.8,0.6-5.5,0.7c-1.7,0.1-3.2,0.2-4.6,0.2c-1.4,0-2.7-0.1-3.7-0.2c-1.1-0.1-2-0.2-2.8-0.4
						c-1.4-0.3-2.6-0.4-3.4-0.7c-0.8-0.3-1.3-0.4-1.6-0.4h-0.1l0,0l0,0c-0.6-0.3-1.1-0.6-1.3-1.1c-0.3-0.5-0.3-1-0.1-1.4
						c0.2-0.4,0.5-0.7,1.1-0.9c0.4-0.2,1-0.1,1.5,0.1h-0.1c1.8,0.5,3,0.8,3.6,1c0.6,0.1,0.6,0.2-0.1,0.3c0.6,0.2,1.4,0.3,2.4,0.4
						c1,0.2,2.1,0.3,3.4,0.4c0.5,0,1.1,0.1,1.6,0.1s1.1,0,1.8,0c1,0,2.2-0.1,3.5-0.2c1.3-0.1,2.7-0.3,4.2-0.5c1.1-0.2,2.1-0.4,3-0.5
						c0.9-0.2,1.8-0.4,2.4-0.5c0,0,0.1,0,0.2,0c0.1,0,0.2,0,0.2-0.1h0.1h0.1l0,0l0.1-0.1c0.1,0,0.2,0,0.3,0c0.2,0,0.3,0,0.4-0.1
						c0.2-0.1,0.3-0.1,0.4-0.1s0.3-0.1,0.3-0.1l0.4,1.7c0,0,0,0.1-0.1,0.2c-0.1,0.1-0.2,0.3-0.2,0.4c0,0.1-0.2,0.3-0.2,0.4
						s-0.1,0.2-0.1,0.2l-0.1,0.2c0,0.1-0.1,0.2-0.2,0.3s-0.1,0.2-0.2,0.3l0,0c0,0.1-0.1,0.2-0.1,0.2s-0.1,0.1-0.1,0.3
						c-0.1,0.2-0.2,0.3-0.3,0.4c-0.1,0.2-0.2,0.4-0.3,0.4l0,0c-0.5,1.1-1,1.9-1.3,2.7c-0.4,0.8-0.6,1.6-0.9,2.2l0,0
						c-0.1,0.3-0.2,0.6-0.3,0.9c-0.1,0.3-0.2,0.6-0.3,1c0,0.2-0.1,0.3-0.1,0.4s0,0.3,0,0.4c0,0.2,0,0.4,0.1,0.5
						c0,0.1,0.2,0.1,0.4,0.2c0.2,0.1,0.4,0,0.7,0c0.5,0,1.1-0.1,1.6-0.2c0.6-0.1,1.1-0.3,1.8-0.4c0.7-0.2,1.5-0.4,2.3-0.7
						c0.8-0.3,1.6-0.5,2.2-0.8c0.2-0.1,0.4-0.2,0.5-0.2c0.2,0,0.4-0.2,0.5-0.3c0.2-0.1,0.4-0.2,0.6-0.3c0.3-0.1,0.4-0.1,0.5-0.2
						c0.1,0,0.2-0.1,0.2-0.1c0.1,0,0.2,0,0.2-0.1c0.1,0,0.2-0.1,0.3-0.1s0.2-0.1,0.3-0.1c0.4-0.2,0.9-0.4,1.2-0.5
						c0.4-0.2,0.8-0.4,1.2-0.5l0,0c0.3-0.1,0.4-0.2,0.7-0.3c0.3-0.1,0.4-0.2,0.7-0.3l0,0c0.3-0.1,0.4-0.2,0.8-0.4
						c0.3-0.1,0.5-0.3,0.8-0.4c3-1.4,5.4-2.6,7.2-3.4c1.8-0.9,3.2-1.6,4-2c0.4-0.2,0.7-0.4,1-0.5c0.3-0.2,0.4-0.3,0.7-0.4
						c0,0,0.1,0,0.1-0.1c0,0,0.1,0,0.1-0.1l0,0c0.2-0.1,0.4-0.3,0.6-0.4C223.1,303.3,223.3,303.2,223.6,303.1L223.6,303.1z"/>
					<path d="M222,303.4c0.3-0.1,0.5-0.2,0.7-0.3s0.4-0.1,0.5-0.2c0.2-0.1,0.4-0.1,0.6-0.2h0.1c0.5-0.1,1.1,0,1.5,0.3
						s0.7,0.7,0.8,1.1c0,0.4-0.1,0.9-0.4,1.2c-0.3,0.4-0.6,0.6-1.1,0.8l0,0c-0.1,0-0.2,0.1-0.3,0.1c-0.1,0-0.2,0-0.3,0s-0.3,0-0.4,0
						s-0.4,0.1-0.8,0.2c-0.2,0-0.3,0.1-0.4,0.1c-0.3,0.1-0.7,0.2-1.1,0.4c-0.4,0.2-0.9,0.4-1.4,0.8l0,0c-0.3,0.2-0.5,0.4-0.8,0.7
						c-0.3,0.3-0.4,0.6-0.6,1c0,0.2-0.1,0.3-0.1,0.4c0,0.1,0,0.3,0,0.4c0,0.4,0.1,0.7,0.2,1.1c0.1,0.4,0.3,0.8,0.4,1.1
						c0.3,0.5,0.7,1,1.4,1.4c0.4,0.3,0.8,0.4,1.1,0.7c0.4,0.2,0.9,0.4,1.3,0.5c1.9,0.6,4.3,1,7,1.1c0.8,0,1.5,0,2,0
						c0.6,0,1.1-0.1,1.6-0.1h0.3c0.5,0,1-0.1,1.4-0.1s0.9-0.1,1.4-0.2c0.5-0.1,1.1-0.2,1.7-0.3c0.5-0.1,1.2-0.3,1.9-0.4l0,0
						c0.8-0.3,1.7-0.5,2.7-0.9s2.2-0.9,3.5-1.5l0,0c1.3-0.6,2.6-1.3,3.6-1.9c1.1-0.6,2-1.2,2.9-1.8c0.9-0.6,1.7-1.1,2.3-1.6
						c0.6-0.4,1.1-0.9,1.6-1.2c0.8-0.6,1.4-1.1,1.9-1.5c0.4-0.4,0.8-0.6,1-0.8c0.1,0,0.1-0.1,0.2-0.1c0.4-0.3,0.8-0.4,1.2-0.4
						c0.3,0,0.5,0.1,0.8,0.2c0.3,0.1,0.4,0.3,0.6,0.4c0.3,0.4,0.4,0.7,0.4,1.1c0,0.3-0.1,0.5-0.2,0.8c-0.2,0.3-0.4,0.5-0.5,0.7
						c0,0,0,0-0.1,0c-0.1,0,0,0,0,0c-0.1,0.1-0.2,0.2-0.4,0.3c-0.2,0.1-0.4,0.3-0.7,0.4c-0.1,0-0.2,0.1-0.2,0.1
						c-0.1,0.1-0.2,0.1-0.3,0.2c-0.1,0.1-0.3,0.2-0.4,0.3c-0.2,0.1-0.3,0.2-0.4,0.3c-0.1,0.1-0.2,0.2-0.4,0.2
						c-0.2,0-0.2,0.2-0.4,0.3c-0.1,0-0.2,0.1-0.2,0.2c-0.1,0.1-0.1,0.1-0.2,0.1l0,0c-0.4,0.3-0.9,0.5-1.4,0.9
						c-0.5,0.4-1.1,0.7-1.7,1.1c-1,0.5-2,1.2-3.4,1.9c-1.3,0.7-2.8,1.4-4.5,2.2c-1.7,0.7-3.1,1.3-4.2,1.7c-1.1,0.4-2.2,0.7-3.2,1.1
						c-0.9,0.3-1.7,0.4-2.4,0.7c-0.7,0.2-1.3,0.4-1.9,0.4c-0.5,0.1-1.1,0.2-1.6,0.3c-0.6,0.1-1.2,0.2-1.9,0.3
						c-0.3,0-0.5,0.1-0.8,0.1c-0.4,0-0.6,0-0.9,0c-0.5,0-1.1,0-1.7-0.1c-0.6-0.1-1.2-0.1-1.9-0.3c-1.4-0.2-2.7-0.5-3.7-0.9
						c-1.1-0.4-2-0.8-2.7-1.1c-0.4-0.2-0.7-0.4-1.1-0.6c-0.4-0.3-0.7-0.5-1.1-0.7c-0.4-0.3-0.7-0.6-1-1c-0.3-0.4-0.5-0.8-0.8-1.2
						l0,0c-0.3-0.5-0.5-1.1-0.6-1.7c-0.2-0.5-0.3-1.1-0.3-1.7c0-0.4,0-0.7,0.1-1c0.2-0.7,0.4-1.2,0.7-1.8c0.4-0.5,0.7-0.9,1.1-1.2
						c0.6-0.5,1.2-1,1.8-1.3c0.5-0.4,1.1-0.5,1.4-0.8l0,0C221.4,303.7,221.7,303.5,222,303.4z"/>
					<path d="M260,322.9c-0.3-0.3-0.4-0.5-0.5-0.8c-0.1-0.4-0.1-0.6-0.1-1c0-0.2,0-0.4,0-0.4c0-0.1,0-0.3,0-0.3
						c0.1,0,0.3-0.1,0.4-0.1c0.2,0,0.4,0,0.8,0c0.3,0,0.6,0,0.9,0.1c0.3,0.1,0.5,0.2,0.7,0.4c0.2,0.2,0.3,0.4,0.4,0.5
						c0.1,0.3,0.1,0.4,0.1,0.7s0,0.5-0.1,0.8c-0.1,0.3-0.1,0.4-0.2,0.5c-0.1,0-0.2,0-0.4,0c-0.1,0-0.3,0-0.4,0c-0.3,0-0.6,0-0.9-0.1
						S260.3,323.1,260,322.9L260,322.9z M262.3,309.5c-0.4,2.1-0.8,3.2-1.3,3.2c-0.3,0-0.5-0.4-0.7-1.1c-0.2-0.8-0.3-1.9-0.3-3.5
						c0-0.7,0-1.6,0.1-2.6c0.1-0.8,0.2-1.8,0.3-2.7c0.1-1.1,0.3-2.1,0.4-3.3c0.2-1.1,0.4-2.3,0.6-3.5s0.5-2.5,0.8-3.7l0,0
						c0.4-1.7,0.8-3.4,1.2-5c0.4-1.7,0.9-3.3,1.4-4.8c0.5-1.5,1-3,1.4-4.3c0.4-1.3,0.9-2.6,1.3-3.5c0.4-1,0.8-1.9,1.1-2.6
						c0.4-0.7,0.5-1.1,0.7-1.2c0.5-0.4,1-0.6,1.3-0.6c0.9,0,1.2,0.6,1.2,1.8c0,0.6-0.2,1.4-0.5,2.4c-0.4,1-0.9,2-1.7,3.2
						c-0.3,0.4-0.5,0.8-0.8,1.5c-0.3,0.7-0.6,1.4-1,2.3c-0.4,0.9-0.7,1.9-1.1,3c-0.4,1.1-0.7,2.2-1.1,3.4c-0.4,1.1-0.7,2.4-1,3.6
						c-0.4,1.2-0.6,2.5-0.9,3.6c-0.2,0.9-0.4,1.9-0.5,2.7c-0.2,1-0.4,1.9-0.4,2.7c-0.2,0.9-0.3,1.7-0.4,2.5
						c-0.1,0.8-0.2,1.5-0.3,2.1c-0.1,0.7-0.1,1.2-0.2,1.8c0,0.5,0,1-0.1,1.4c0,0.4,0,0.9,0,1.2v0.1H262.3z"/>
				</g>
			</g>
		</g>
	</g>
</g>
</svg>
