<?xml version="1.0" encoding="utf-8"?>
<!-- Generator: Adobe Illustrator 19.1.0, SVG Export Plug-In . SVG Version: 6.00 Build 0)  -->
<svg version="1.1" id="Layer_1" xmlns="http://www.w3.org/2000/svg" xmlns:xlink="http://www.w3.org/1999/xlink" x="0px" y="0px"
	 viewBox="0 0 67 67" style="enable-background:new 0 0 67 67;" xml:space="preserve">
<style type="text/css">
	.st0{clip-path:url(#SVGID_2_);fill:#FFFFFF;}
</style>
<g>
	<defs>
		<rect id="SVGID_1_" width="67" height="67"/>
	</defs>
	<clipPath id="SVGID_2_">
		<use xlink:href="#SVGID_1_"  style="overflow:visible;"/>
	</clipPath>
	<path class="st0" d="M51.3,48.9H34.9V36.3c0-4.7,1-8.3,2.9-11c1.9-2.7,5.3-5.1,10-7.1l3.5,6.7c-2.9,1.4-4.9,2.7-6,4.1
		c-1.1,1.3-1.7,2.9-1.8,4.8h7.9V48.9z M32.1,48.9H15.7V36.3c0-4.7,1-8.3,2.9-11c1.9-2.7,5.3-5.1,10-7.1l3.5,6.7
		c-2.9,1.4-4.9,2.7-6,4.1c-1.1,1.3-1.7,2.9-1.8,4.8h7.9V48.9z M67,33.5C67,15,52,0,33.5,0S0,15,0,33.5S15,67,33.5,67S67,52,67,33.5"
		/>
</g>
</svg>
