<?xml version="1.0" encoding="utf-8"?>
<!-- Generator: Adobe Illustrator 19.1.0, SVG Export Plug-In . SVG Version: 6.00 Build 0)  -->
<svg version="1.1" id="Layer_1" xmlns="http://www.w3.org/2000/svg" xmlns:xlink="http://www.w3.org/1999/xlink" x="0px" y="0px"
	 viewBox="0 0 60 60" style="enable-background:new 0 0 60 60;" xml:space="preserve">
<style type="text/css">
	.st0{fill:#FFFFFF;}
</style>
<g>
	<g>
		<path d="M55.9,29.4c0,14.5-11.6,26.2-26.1,26.2c-14.1,0-25.7-11.8-25.7-26.1C4.1,15.1,15.7,3.3,30,3.3C44.3,3.3,55.9,15,55.9,29.4
			z M27.6,22.5c0,5.5,0,10.9,0,16.3c1.8,0,3.4,0,5,0c0-3.2,0-6.2,0-9.3c0-1.9,1.1-3.2,2.7-3.2c1.5,0,2.5,1.1,2.5,3.1
			c0.1,2.3,0,4.6,0,6.8c0,0.9,0,1.7,0,2.6c1.8,0,3.4,0,5,0c0-3.7,0.2-7.3,0-10.9c-0.3-4.6-4.1-7.1-8.1-5.4c-0.9,0.4-1.8,1.2-2.7,1.8
			c-0.1-0.6-0.2-1.2-0.3-1.8C30.3,22.5,29,22.5,27.6,22.5z M19.6,22.4c0,5.5,0,10.9,0,16.3c1.7,0,3.3,0,4.9,0c0-5.5,0-10.9,0-16.3
			C22.9,22.4,21.3,22.4,19.6,22.4z M24.8,17.9c0-1.6-1-2.6-2.6-2.6c-1.6,0-2.7,1-2.7,2.5c0,1.5,1,2.5,2.6,2.6
			C23.6,20.4,24.7,19.4,24.8,17.9z"/>
		<path class="st0" d="M27.6,22.5c1.4,0,2.7,0,4.2,0c0.1,0.6,0.2,1.2,0.3,1.8c0.9-0.6,1.7-1.4,2.7-1.8c4-1.7,7.8,0.8,8.1,5.4
			c0.2,3.6,0,7.2,0,10.9c-1.6,0-3.3,0-5,0c0-0.9,0-1.7,0-2.6c0-2.3,0-4.6,0-6.8c-0.1-2.1-1-3.2-2.5-3.1c-1.6,0-2.7,1.3-2.7,3.2
			c0,3.1,0,6.1,0,9.3c-1.7,0-3.3,0-5,0C27.6,33.4,27.6,28,27.6,22.5z"/>
		<path class="st0" d="M19.6,22.4c1.7,0,3.3,0,4.9,0c0,5.4,0,10.8,0,16.3c-1.6,0-3.2,0-4.9,0C19.6,33.3,19.6,27.9,19.6,22.4z"/>
		<path class="st0" d="M24.8,17.9c0,1.5-1.1,2.5-2.8,2.5c-1.5,0-2.6-1.1-2.6-2.6c0-1.5,1.1-2.6,2.7-2.5
			C23.7,15.3,24.8,16.4,24.8,17.9z"/>
	</g>
</g>
</svg>
