<?xml version="1.0" encoding="utf-8"?>
<!-- Generator: Adobe Illustrator 19.1.0, SVG Export Plug-In . SVG Version: 6.00 Build 0)  -->
<svg version="1.1" id="Layer_1" xmlns="http://www.w3.org/2000/svg" xmlns:xlink="http://www.w3.org/1999/xlink" x="0px" y="0px"
	 viewBox="-193 262.2 455 71.1" style="enable-background:new -193 262.2 455 71.1;" xml:space="preserve">
<style type="text/css">
	.st0{clip-path:url(#SVGID_2_);fill:#FFFFFF;}
	.st1{clip-path:url(#SVGID_4_);}
	.st2{enable-background:new    ;}
</style>
<g>
	<g>
		<defs>
			<rect id="SVGID_1_" x="-192.4" y="261.3" width="67" height="67"/>
		</defs>
		<clipPath id="SVGID_2_">
			<use xlink:href="#SVGID_1_"  style="overflow:visible;"/>
		</clipPath>
		<path class="st0" d="M-141.1,310.2h-16.4v-12.6c0-4.7,1-8.3,2.9-11c1.9-2.7,5.3-5.1,10-7.1l3.5,6.7c-2.9,1.4-4.9,2.7-6,4.1
			c-1.1,1.3-1.7,2.9-1.8,4.8h7.9v15.1H-141.1z M-160.2,310.2h-16.4v-12.6c0-4.7,1-8.3,2.9-11c1.9-2.7,5.3-5.1,10-7.1l3.5,6.7
			c-2.9,1.4-4.9,2.7-6,4.1c-1.1,1.3-1.7,2.9-1.8,4.8h7.9L-160.2,310.2L-160.2,310.2z M-125.4,294.8c0-18.5-15-33.5-33.5-33.5
			s-33.5,15-33.5,33.5s15,33.5,33.5,33.5S-125.4,313.3-125.4,294.8"/>
	</g>
</g>
<g>
	<g>
		<defs>
			<rect id="SVGID_3_" x="-208.4" y="256" width="602.3" height="123.6"/>
		</defs>
		<clipPath id="SVGID_4_">
			<use xlink:href="#SVGID_3_"  style="overflow:visible;"/>
		</clipPath>
		<g class="st1">
			<g class="st2">
				<path d="M-116.6,304.8c0.2,0.2,0.2,0.5,0.2,0.8c0,0.3-0.1,0.7-0.3,1c-0.2,0.4-0.4,0.7-0.8,1.1c-0.3,0.4-0.7,0.7-1.2,1
					c0,0-0.1,0.1-0.2,0.1c-0.1,0-0.1,0.1-0.2,0.1l0,0c0,0-0.1,0.1-0.1,0.1l0,0c-0.2,0.1-0.4,0.3-0.6,0.4c-0.3,0.2-0.6,0.4-1,0.6
					c-0.6,0.4-1.4,0.9-2.4,1.5c-1,0.6-2.2,1.4-3.6,2.1c-0.8,0.4-1.6,0.9-2.6,1.4c-1,0.5-2,1.1-3.2,1.6c-1.1,0.5-2.4,1.1-3.9,1.8
					c-1.5,0.6-3.1,1.2-4.8,1.8c-0.9,0.3-1.9,0.6-2.8,0.8s-2,0.5-3,0.7c-0.8,0.1-1.6,0.2-2.4,0.3s-1.7,0.1-2.7,0.1
					c-0.3,0-0.6,0-0.9,0c-0.4,0-0.7,0-0.9-0.1c-1.3-0.1-2.6-0.3-3.9-0.6c-1.4-0.4-2.6-0.8-3.9-1.5c-1.3-0.7-2.5-1.5-3.7-2.6
					c-1.2-1-2.2-2.2-3.2-3.6c-0.8-1.3-1.5-2.5-2.1-3.8c-0.1-0.3-0.2-0.6-0.3-0.9c-0.1-0.3-0.2-0.6-0.3-0.9c-0.8,0.5-1.6,1-2.3,1.5
					c-0.7,0.5-1.5,0.9-2.2,1.4c-1.8,1.1-3.4,2.2-4.8,3.2c-1.5,1-2.8,1.9-4.1,2.8c-0.6,0.4-1.2,0.9-1.8,1.3c-0.6,0.4-1.1,0.8-1.6,1.2
					c-0.1,0-0.2,0.1-0.3,0.2c-0.1,0.1-0.2,0.2-0.3,0.3c-0.1,0.1-0.2,0.2-0.3,0.2c-0.1,0.1-0.3,0.2-0.6,0.5l-0.1,0.1
					c0,0.1-0.2,0.3-0.4,0.5c-0.2,0.3-0.5,0.4-0.8,0.5c-0.1,0.1-0.1,0.2-0.2,0.3c-0.1,0.1-0.1,0.2-0.1,0.2l-1.6-1.7l0-0.6l0-1
					c0,0,0,0,0.1,0c0,0,0.1,0,0.2-0.1l0.2-0.2c0.1-0.3,0.2-0.5,0.3-0.8c0.1-0.2,0.2-0.5,0.3-0.7v0c0.3-0.6,0.5-1.3,0.8-1.9
					c0.3-0.6,0.5-1.2,0.8-1.8l0,0c0.1-0.3,0.2-0.6,0.4-0.9c0.1-0.3,0.3-0.6,0.4-0.9h0c0.1-0.3,0.3-0.7,0.4-1s0.3-0.6,0.4-0.9
					c0.2-0.3,0.3-0.6,0.4-0.8c0.1-0.2,0.2-0.4,0.3-0.6c0-0.1,0.1-0.1,0.1-0.2c0,0,0-0.1,0-0.1c0,0,0-0.1,0.1-0.2
					c0-0.1,0.1-0.2,0.1-0.3c-0.1-0.1-0.3-0.1-0.5-0.3c-0.2-0.1-0.3-0.2-0.3-0.3c-0.1-0.2-0.1-0.5-0.1-0.8c0.1-0.3,0.2-0.6,0.4-0.9
					c0.2-0.3,0.5-0.7,0.8-1c0.3-0.3,0.6-0.7,1-1c0.1-0.1,0.2-0.1,0.3-0.2c0.1-0.1,0.2-0.2,0.2-0.2c0,0,0.1-0.1,0.2-0.2
					c0.1-0.1,0.2-0.1,0.3-0.2c0.8-1.8,1.7-3.8,2.7-6.1c1-2.3,2.2-4.9,3.7-8c0.1-0.1,0.1-0.3,0.2-0.5c0.1-0.2,0.2-0.4,0.2-0.5
					c0.4-1,0.8-1.9,1.3-2.8c0.4-0.9,0.8-1.8,1.2-2.6c0.3-0.6,0.5-1.1,0.8-1.7c0.2-0.6,0.5-1.1,0.8-1.7c0.8-1.8,1.6-3.5,2.3-5
					c0.7-1.6,1.4-3,1.9-4.2c0-0.1,0.1-0.2,0.1-0.2c0,0,0,0,0,0c0,0,0-0.1,0-0.1c0.1-0.2,0.2-0.4,0.3-0.6c0.1-0.2,0.2-0.4,0.3-0.6
					c0.2-0.3,0.3-0.7,0.4-1c0.1-0.3,0.3-0.6,0.5-0.9v0c0.1-0.3,0.2-0.6,0.4-0.8c0.1-0.3,0.3-0.5,0.4-0.8l0.2-0.4
					c0-0.1,0.1-0.1,0.2-0.3c0.1-0.1,0.1-0.2,0.2-0.3l0.1-0.1l0,0c0-0.1,0.1-0.2,0.1-0.2c0-0.1,0.1-0.1,0.1-0.2v0.1l0.1,0.1
					c0.1-0.2,0.2-0.3,0.2-0.4c0.1-0.1,0.1-0.2,0.2-0.2c0.1-0.1,0.3-0.2,0.6-0.3c0.2-0.1,0.5-0.1,0.8-0.1c0.4,0,0.7,0.2,1,0.5
					c0.3,0.3,0.4,0.5,0.5,0.7c0.1,0.3,0.2,0.5,0.2,0.8c0,0.2,0,0.4,0,0.6c0,0.3,0,0.6,0,0.9c0,0.3,0,0.6-0.1,0.8c0,0,0,0,0,0.1
					c0,0,0,0.1,0,0.1v0.3c-0.1,0.5-0.2,1.1-0.3,1.8c-0.2,0.7-0.3,1.4-0.5,2.2c-0.6,2.2-1.2,4.2-1.9,6.1c-0.7,1.9-1.3,3.6-2,5.2
					c-0.7,1.6-1.3,3-1.9,4.4c-0.6,1.3-1.2,2.6-1.8,3.7c-1.2,2.3-2.3,4.2-3.3,5.7c-1,1.5-1.9,2.8-2.6,3.9c-0.7,1-1.4,1.8-1.9,2.5
					c-0.6,0.7-1.1,1.2-1.5,1.7l0,0c-0.3,0.3-0.5,0.6-0.8,0.8c-0.3,0.2-0.5,0.5-0.8,0.8c-0.6,1.2-1,2.3-1.4,3.1
					c-0.4,0.8-0.7,1.6-1,2.2c-0.3,0.7-0.6,1.3-0.9,2c-0.3,0.6-0.7,1.4-1.1,2.2c0.5-0.4,1-0.7,1.6-1.1s1.1-0.8,1.7-1.2
					c1.1-0.8,2.3-1.6,3.6-2.4c1.3-0.8,2.7-1.8,4.3-2.8c0.3-0.2,0.6-0.4,0.9-0.6c0.3-0.2,0.6-0.4,0.9-0.6l0.3-0.2
					c0,0,0.1-0.1,0.1-0.1c0.1,0,0.1,0,0.1-0.1c0.2-0.1,0.4-0.3,0.6-0.4c0.2-0.1,0.4-0.3,0.6-0.4l-0.1,0.1c0,0,0,0,0.1,0
					c0,0,0,0,0.1,0c0,0,0.1-0.1,0.1-0.1c0,0,0.1-0.1,0.2-0.1c0.1,0,0.2-0.1,0.3-0.1c0.1-0.1,0.2-0.1,0.3-0.2l0.1,0.3v-0.3
					c0.1,0,0.2,0,0.3-0.1c0.1,0,0.1,0,0.2-0.1c0.2-0.1,0.4-0.1,0.5-0.2c0.1,0,0.3,0,0.4,0.1c0.1,0.1,0.3,0.2,0.4,0.4
					c0.1,0.2,0.3,0.5,0.5,0.9l0,0.1l0,0.1l0.1,0.2c0.3,0.9,0.6,1.9,1.1,2.9c0.5,1,1,1.9,1.6,2.8c0.6,0.9,1.4,1.7,2.1,2.5
					c0.8,0.7,1.6,1.4,2.5,1.9c0.8,0.5,1.7,0.9,2.7,1.3c0.9,0.3,1.9,0.6,2.8,0.8h0c0.6,0.1,1.3,0.2,1.9,0.2c0.6,0.1,1.2,0.1,1.7,0.1
					c1.3,0,2.5-0.1,3.6-0.3c1.1-0.2,2.2-0.4,3.3-0.6c1.6-0.4,3-0.8,4.4-1.3c1.4-0.5,2.7-1,3.9-1.6c0.5-0.2,1-0.5,1.6-0.7
					c0.5-0.3,1.1-0.5,1.6-0.8c0.5-0.3,1.1-0.5,1.6-0.8c0.5-0.3,0.9-0.5,1.4-0.7c1.6-0.9,3-1.8,4.2-2.5c1.2-0.8,2.2-1.4,3-1.9
					c0,0,0.1-0.1,0.1-0.1s0.1-0.1,0.1-0.1c0.8-0.5,1.4-0.9,1.9-1.3c0.5-0.3,0.8-0.5,1-0.7c0.4-0.3,0.9-0.5,1.4-0.8
					c0.5-0.2,0.9-0.3,1.3-0.4c0.4-0.1,0.7-0.1,1.1,0C-117,304.4-116.8,304.5-116.6,304.8z M-169.6,275.7c-0.1,0.3-0.3,0.6-0.4,0.9
					c-0.1,0.3-0.3,0.6-0.4,1c-0.2,0.5-0.4,0.9-0.6,1.4c-0.2,0.5-0.4,1-0.6,1.4c-0.3,0.7-0.6,1.3-0.9,2c-0.3,0.7-0.6,1.4-0.9,2.1
					s-0.5,1.3-0.7,1.7c-0.2,0.5-0.4,0.8-0.5,1.2c-0.1,0.3-0.3,0.7-0.4,1c-0.1,0.3-0.3,0.7-0.4,1c-0.2,0.4-0.4,0.8-0.6,1.4
					c-0.2,0.5-0.5,1.2-0.9,2c0.2-0.4,0.4-0.7,0.6-0.9c0.2-0.3,0.3-0.6,0.6-1c0.7-1.2,1.4-2.5,2.1-4c0.8-1.5,1.5-3.1,2.3-4.8
					c0.7-1.7,1.4-3.5,2.2-5.6c0.8-2,1.5-4.2,2.1-6.5c-0.3,0.8-0.7,1.5-1,2.3c-0.3,0.8-0.7,1.6-1,2.4l0,0c0,0.1-0.1,0.2-0.1,0.2
					c0,0.1-0.1,0.1-0.1,0.2L-169.6,275.7L-169.6,275.7z M-166.7,262.9l-0.2,0.2C-166.9,263-166.8,263-166.7,262.9
					C-166.8,262.9-166.8,262.9-166.7,262.9z"/>
				<path d="M-61.4,304.9c0.2,0.5,0.2,1-0.1,1.6c-0.3,0.5-0.7,0.9-1.2,1.2c-0.1,0.1-0.3,0.1-0.6,0.2c0,0,0,0,0,0c0,0,0,0,0,0
					c-0.1,0-0.2,0-0.3,0.1c-0.1,0-0.3,0.1-0.5,0.2c-0.2,0.1-0.5,0.2-0.9,0.3c-0.4,0.1-0.8,0.3-1.4,0.5c-0.9,0.3-2,0.7-3.3,1.2
					c-1.4,0.5-3.1,1.1-5.1,1.9c-2.1,0.8-4.5,1.6-7.3,2.7s-6.2,2.1-10,3.3c-3.9,1.2-7.5,2.1-10.8,2.8c-3.3,0.7-6.3,1-9,1.1
					c-1.4,0-2.7-0.1-4-0.3c-1.3-0.2-2.5-0.6-3.5-1.2c-1.2-0.7-2-1.5-2.6-2.5c-0.3-0.5-0.5-1-0.7-1.6s-0.3-1-0.3-1.4
					c-0.1-0.9,0-1.7,0.1-2.5c0.1-0.7,0.3-1.4,0.4-2c0.2-0.7,0.4-1.3,0.5-1.7c0.1-0.4,0.3-0.8,0.4-1c0.2-0.5,0.4-1,0.6-1.4
					s0.4-0.7,0.5-0.9c0.2-0.3,0.4-0.5,0.6-0.7c0.2-0.2,0.5-0.3,0.8-0.4c0.3-0.1,0.5-0.1,0.8-0.1s0.5,0.1,0.8,0.3
					c0.4,0.3,0.7,0.7,0.8,1.2c0.1,0.5,0.1,1-0.2,1.5v0c-0.1,0.2-0.2,0.4-0.2,0.4c0,0,0,0-0.1,0.1c-0.1,0.1-0.1,0.2-0.2,0.4
					c-0.1,0.1-0.2,0.3-0.4,0.5c-0.1,0.1-0.2,0.3-0.3,0.6c-0.1,0.2-0.3,0.5-0.4,0.9v0c-0.2,0.4-0.3,0.8-0.5,1.2
					c-0.2,0.4-0.3,0.9-0.4,1.5h0c-0.1,0.3-0.1,0.6-0.1,0.9c0,0.3-0.1,0.6-0.1,0.9c0,0.3,0.1,0.6,0.1,0.9c0.1,0.3,0.2,0.6,0.3,0.9
					c0.2,0.3,0.4,0.6,0.7,0.8c0.3,0.3,0.6,0.5,1,0.7c0.9,0.5,2,0.8,3.1,0.9c0.9,0.1,1.8,0.2,2.7,0.2c0.9,0,2-0.1,3.1-0.2
					s2.3-0.3,3.5-0.5c0.9-0.1,1.8-0.3,2.8-0.5c1-0.2,2-0.4,3.1-0.7c1-0.3,2.1-0.5,3.2-0.8s2.1-0.6,3.1-0.9c1.6-0.5,3.1-1,4.7-1.5
					c1.5-0.5,3-1,4.4-1.5c1.4-0.5,2.7-1,3.9-1.4c1.2-0.5,2.2-0.9,3.1-1.2c1.8-0.7,3.3-1.3,4.7-1.9s2.5-1.1,3.3-1.4h0
					c1-0.5,1.8-0.8,2.3-1.1c0.5-0.3,0.9-0.5,1.3-0.6c0.2-0.1,0.5-0.2,0.7-0.3c0.2-0.1,0.4-0.2,0.7-0.3c0.6-0.2,1.1-0.2,1.7-0.1
					C-62,304.2-61.6,304.5-61.4,304.9z M-107.7,290.4c-0.2,0-0.4,0-0.5,0.1c-0.2,0-0.4,0-0.5,0.1c-0.1,0-0.2,0-0.4,0
					c-0.1,0-0.2,0-0.3,0c-1.1,0.1-2.1,0.2-2.8,0.3c-0.8,0.1-1.4,0.1-1.9,0.1c-1,0-1.6-0.2-2-0.5c-0.4-0.3-0.6-0.8-0.6-1.4
					c0-0.6,0.1-1.1,0.4-1.5c0.3-0.4,0.6-0.6,1-0.6c0,0,0.1,0,0.2,0c0.1,0,0.2,0,0.3,0.1l0,0c0.1,0,0.4,0.1,0.8,0.1s1.1,0.1,2.2,0.1
					c0.9,0,1.9,0,3.3-0.1c1.3,0,3-0.1,5-0.2c1.5-0.1,2.8-0.2,3.8-0.3c1-0.1,1.8-0.2,2.4-0.3c0.6-0.1,1-0.2,1.3-0.2
					c0.3-0.1,0.5-0.1,0.6-0.2c0.1,0,0.2-0.1,0.3-0.1c0.1,0,0.2,0,0.3,0c0.2-0.1,0.4-0.1,0.7-0.2c0.2,0,0.5,0,0.7,0
					c0.2,0.1,0.4,0.2,0.5,0.4c0.1,0.2,0.2,0.5,0.3,1c0,0.5-0.1,0.9-0.3,1.2c-0.3,0.3-0.6,0.5-1.2,0.7c-0.5,0.2-1.2,0.3-2,0.4
					c-0.8,0.1-1.7,0.2-2.8,0.2h0c-0.1,0-0.3,0-0.4,0c-0.1,0-0.3,0-0.4,0c-1,0.1-2.2,0.2-3.5,0.3C-104.7,290-106.1,290.2-107.7,290.4
					z"/>
				<path d="M36.8,305.1c0.1,0.2,0.1,0.5,0,0.8c-0.1,0.3-0.2,0.6-0.4,0.9s-0.5,0.6-0.8,0.8c-0.3,0.3-0.7,0.5-1.1,0.7
					c0,0-0.1,0-0.1,0c0,0-0.1,0-0.1,0c-0.2,0.1-0.3,0.1-0.5,0.2c-0.2,0.1-0.5,0.2-0.8,0.3c-0.2,0.1-0.4,0.1-0.7,0.2
					c-0.2,0.1-0.6,0.2-0.9,0.3c-0.2,0.1-0.3,0.1-0.6,0.2c-0.2,0.1-0.4,0.1-0.6,0.2l-0.3,0.1h0c-0.8,0.3-2,0.7-3.5,1.1
					c-1.5,0.5-3.3,1-5.3,1.5c-2.2,0.6-4.9,1.1-8.1,1.7c-3.2,0.6-6.7,1-10.7,1.2c-0.5,0-0.9,0-1.3,0.1s-0.8,0-1.1,0.1
					c-0.4,0-0.8,0-1.2,0c-0.4,0-0.9,0-1.4,0c0,0,0,0.1,0,0.1s0,0,0,0.1c-0.2,0.4-0.3,0.8-0.5,1.2c-0.1,0.3-0.3,0.8-0.5,1.3
					c0.6,0.8,1.2,1.6,1.8,2.4c0.6,0.9,1.2,1.8,1.9,2.9c0,0.1,0.1,0.2,0.2,0.3c0.1,0.1,0.1,0.2,0.2,0.3c0.2,0.3,0.3,0.6,0.5,1
					s0.3,0.7,0.5,1c0,0.1,0,0.1,0,0.2c0.1,0.3,0.2,0.6,0.2,0.8c0.1,0.3,0.1,0.6,0.1,0.9c0,0.2,0,0.5-0.1,0.9
					c-0.1,0.3-0.3,0.7-0.6,1.1c-0.4,0.4-0.8,0.6-1.2,0.7s-0.7,0.1-1,0.1c-0.5,0-0.8-0.1-1.1-0.2s-0.6-0.2-0.9-0.4
					c-0.2-0.1-0.4-0.2-0.6-0.4c-0.3-0.2-0.5-0.4-0.7-0.5c-0.4-0.3-0.8-0.7-1.2-1.1c-0.4-0.4-0.8-0.8-1.1-1.2
					c-0.2-0.2-0.4-0.5-0.6-0.8s-0.4-0.7-0.6-1.1c-0.2-0.5-0.3-1-0.4-1.4c0-0.4,0-0.7,0-1c0,0,0,0,0-0.1c0,0,0-0.1,0-0.1
					c0.1-0.6,0.2-1.1,0.3-1.7c0.1-0.5,0.3-1,0.4-1.5v0c0-0.1,0-0.1,0.1-0.2l0.1-0.1c0-0.1,0-0.2,0-0.2s0-0.2,0.1-0.3
					c-0.1-0.1-0.1-0.2-0.2-0.2c-0.1,0-0.1-0.1-0.2-0.2l0,0c-0.2-0.1-0.3-0.3-0.4-0.5c0,0-0.1-0.1-0.1-0.1c0,0,0-0.1-0.1-0.1
					c0,0-0.1-0.1-0.1-0.1c0,0,0-0.1-0.1-0.1l0.1,0.1l-0.4-0.5c-0.1-0.1-0.2-0.3-0.3-0.4c-0.1-0.1-0.2-0.2-0.2-0.3l-0.1-0.2
					c0,0-0.1-0.1-0.1-0.2c0-0.1-0.1-0.1-0.1-0.1l-1.4-3.1l6.1,0.3c0.2-0.5,0.5-1,0.7-1.5c0.2-0.5,0.5-1,0.7-1.5
					c0.1-0.2,0.2-0.5,0.3-0.7s0.2-0.5,0.3-0.7c0,0,0-0.1,0-0.1c0,0,0-0.1,0-0.1c0-0.1,0.1-0.1,0.1-0.2c0.2-0.5,0.3-0.8,0.4-1
					s0.2-0.4,0.3-0.7c0.1-0.2,0.2-0.5,0.4-0.8s0.4-0.8,0.7-1.5c-0.4,0.3-0.7,0.6-1,0.8c-0.3,0.2-0.6,0.4-0.8,0.7
					c-0.2,0.2-0.4,0.3-0.6,0.5c-0.2,0.1-0.4,0.3-0.5,0.4c-0.1,0.1-0.2,0.2-0.3,0.3c-0.1,0.1-0.2,0.2-0.3,0.2
					c-0.1,0.1-0.1,0.1-0.2,0.2c-0.1,0.1-0.1,0.1-0.1,0.1c0,0-0.1,0.1-0.1,0.1c0,0-0.1,0.1-0.1,0.1c-0.4,0.3-0.9,0.6-1.3,0.7
					s-0.9,0.2-1.2,0.2c-0.7,0-1.2-0.2-1.4-0.7v0c-0.2-0.2-0.2-0.5-0.2-0.8s0.1-0.6,0.3-0.9c0.2-0.3,0.4-0.6,0.6-1
					c0.3-0.3,0.6-0.6,0.9-0.9c0.1-0.1,0.3-0.2,0.4-0.3c0.1-0.1,0.2-0.2,0.3-0.2c0.1-0.1,0.2-0.2,0.4-0.2c0.1-0.1,0.3-0.2,0.5-0.3
					l0.1-0.2c0.1,0,0.1-0.1,0.2-0.1c0,0,0,0,0.1-0.1c0,0,0.1-0.1,0.1-0.1c0.4-0.3,0.9-0.7,1.5-1.1c0.6-0.4,1.3-1,2.1-1.7
					c0.7-0.6,1.4-1.2,2.3-1.9c0.8-0.7,1.7-1.6,2.7-2.5c0.8-1.6,1.8-3.4,2.8-5.4s2.2-4.1,3.6-6.5c0,0,0.1-0.1,0.1-0.2
					c0-0.1,0.1-0.2,0.1-0.3c0.5-0.8,0.9-1.6,1.4-2.4s0.9-1.5,1.4-2.2c0-0.1,0.1-0.1,0.2-0.3c0.1-0.1,0.2-0.2,0.3-0.4l0.1-0.1
					c0-0.1,0.1-0.1,0.2-0.2c0.1-0.1,0.2-0.1,0.3-0.2l0.1,0c0,0,0,0-0.1,0l0.3-0.3c0,0,0.1,0,0.1,0c0,0,0.1,0,0.1-0.1
					s0.2-0.1,0.4-0.2h0.4c0.1,0,0.1,0,0.2,0c0.1,0,0.2,0,0.3,0.1l0,0c0.5,0.2,0.8,0.5,0.9,0.7c0.1,0.3,0.3,0.5,0.4,0.8l0,0.2
					c0,0.1,0,0.2,0,0.3s0,0.2,0,0.2c0,0.2,0,0.4,0,0.5c0,0.2,0,0.3,0,0.4c-0.1,0.4-0.2,0.8-0.3,1.3c-0.1,0.4-0.3,0.8-0.4,1.2
					l-0.1,0.3c-0.6,1.6-1.4,3.1-2.2,4.4c-0.8,1.3-1.6,2.6-2.5,3.8c-1.1,1.6-2.3,3-3.4,4.2s-2.2,2.4-3.2,3.4c-0.4,0.8-0.7,1.5-1,2.1
					c-0.3,0.7-0.6,1.3-0.9,1.9v0c-1,2.2-1.9,4.1-2.6,5.7c-0.7,1.6-1.3,3.1-1.8,4.5l0,0c0,0,0,0,0,0c0,0,0,0,0,0c0.7,0,1.3,0,2-0.1
					s1.4-0.1,2.2-0.1c3.4-0.3,6.4-0.6,9.1-1.1c2.7-0.5,4.9-1,6.8-1.5c1.8-0.5,3.4-0.9,4.7-1.4c1.3-0.5,2.5-0.9,3.5-1.3
					c1.1-0.4,1.9-0.7,2.6-1c0.6-0.3,1.2-0.5,1.7-0.7c0.1,0,0.2-0.1,0.3-0.1c0.1,0,0.2-0.1,0.3-0.1c0.1,0,0.2-0.1,0.4-0.1
					c0.1,0,0.2-0.1,0.4-0.2h0c0.1-0.1,0.3-0.1,0.4-0.2c0.1-0.1,0.3-0.1,0.4-0.1l0,0c0.8-0.3,1.5-0.5,2.1-0.5c0.4,0,0.8,0.1,1.1,0.2
					C36.4,304.6,36.6,304.8,36.8,305.1L36.8,305.1z M-2.8,325.8c-0.2-0.4-0.4-0.8-0.6-1.1s-0.4-0.6-0.5-0.9l0,0
					c-0.1-0.1-0.2-0.2-0.2-0.3c-0.1-0.1-0.1-0.2-0.2-0.3c-0.1-0.1-0.2-0.2-0.2-0.3c0,0-0.1-0.1-0.2-0.3c0,0.1,0,0.2,0,0.3
					c0,0.1,0,0.2,0,0.3c0,0.1,0,0.2,0,0.4c0,0.1,0,0.2,0,0.2c0.1,0.1,0.1,0.3,0.3,0.4c0.1,0.2,0.2,0.4,0.4,0.6
					c0.4,0.6,1,1.2,1.7,1.8c0,0,0-0.1-0.1-0.1c0,0,0-0.1-0.1-0.1c0-0.1-0.1-0.1-0.1-0.2C-2.7,325.9-2.8,325.8-2.8,325.8L-2.8,325.8z
					 M14.6,280.6C14.6,280.7,14.6,280.7,14.6,280.6c-0.1,0.1-0.1,0.1-0.1,0.2C14.6,280.7,14.6,280.7,14.6,280.6z"/>
				<path d="M104.3,304.8c0.2,0.2,0.2,0.5,0.2,0.8c0,0.3-0.1,0.7-0.3,1c-0.2,0.4-0.4,0.7-0.8,1.1c-0.3,0.4-0.7,0.7-1.2,1
					c0,0-0.1,0.1-0.2,0.1c-0.1,0-0.1,0.1-0.2,0.1l0,0c0,0-0.1,0.1-0.1,0.1l0,0c-0.2,0.1-0.4,0.3-0.6,0.4c-0.3,0.2-0.6,0.4-1,0.6
					c-0.6,0.4-1.4,0.9-2.4,1.5c-1,0.6-2.2,1.4-3.6,2.1c-0.8,0.4-1.6,0.9-2.6,1.4c-1,0.5-2,1.1-3.2,1.6c-1.1,0.5-2.4,1.1-3.9,1.8
					c-1.5,0.6-3.1,1.2-4.8,1.8c-0.9,0.3-1.9,0.6-2.8,0.8s-2,0.5-3,0.7c-0.8,0.1-1.6,0.2-2.4,0.3c-0.8,0.1-1.7,0.1-2.7,0.1
					c-0.3,0-0.6,0-0.9,0c-0.4,0-0.7,0-0.9-0.1c-1.3-0.1-2.6-0.3-3.9-0.6c-1.3-0.4-2.6-0.8-3.9-1.5c-1.3-0.7-2.5-1.5-3.7-2.6
					c-1.2-1-2.2-2.2-3.2-3.6c-0.8-1.3-1.5-2.5-2.1-3.8c-0.1-0.3-0.2-0.6-0.3-0.9c-0.1-0.3-0.2-0.6-0.3-0.9c-0.8,0.5-1.6,1-2.3,1.5
					c-0.7,0.5-1.5,0.9-2.2,1.4c-1.8,1.1-3.4,2.2-4.8,3.2c-1.5,1-2.8,1.9-4.1,2.8c-0.6,0.4-1.2,0.9-1.8,1.3c-0.6,0.4-1.1,0.8-1.6,1.2
					c-0.1,0-0.2,0.1-0.3,0.2c-0.1,0.1-0.2,0.2-0.3,0.3c-0.1,0.1-0.2,0.2-0.3,0.2c-0.1,0.1-0.3,0.2-0.6,0.5L31,321
					c0,0.1-0.2,0.3-0.4,0.5c-0.2,0.3-0.5,0.4-0.8,0.5c-0.1,0.1-0.1,0.2-0.2,0.3c-0.1,0.1-0.1,0.2-0.1,0.2l-1.6-1.7l0-0.6l0-1
					c0,0,0,0,0.1,0c0,0,0.1,0,0.2-0.1l0.2-0.2c0.1-0.3,0.2-0.5,0.3-0.8c0.1-0.2,0.2-0.5,0.3-0.7v0c0.3-0.6,0.5-1.3,0.8-1.9
					c0.3-0.6,0.5-1.2,0.8-1.8l0,0c0.1-0.3,0.2-0.6,0.4-0.9c0.1-0.3,0.3-0.6,0.4-0.9h0c0.1-0.3,0.3-0.7,0.4-1s0.3-0.6,0.4-0.9
					c0.2-0.3,0.3-0.6,0.4-0.8c0.1-0.2,0.2-0.4,0.3-0.6c0-0.1,0.1-0.1,0.1-0.2c0,0,0-0.1,0-0.1c0,0,0-0.1,0.1-0.2
					c0-0.1,0.1-0.2,0.1-0.3c-0.1-0.1-0.3-0.1-0.5-0.3c-0.2-0.1-0.3-0.2-0.3-0.3c-0.1-0.2-0.1-0.5-0.1-0.8c0.1-0.3,0.2-0.6,0.4-0.9
					c0.2-0.3,0.5-0.7,0.8-1c0.3-0.3,0.6-0.7,1-1c0.1-0.1,0.2-0.1,0.3-0.2c0.1-0.1,0.2-0.2,0.2-0.2c0,0,0.1-0.1,0.2-0.2
					c0.1-0.1,0.2-0.1,0.3-0.2c0.8-1.8,1.7-3.8,2.7-6.1c1-2.3,2.2-4.9,3.7-8c0.1-0.1,0.1-0.3,0.2-0.5c0.1-0.2,0.2-0.4,0.2-0.5
					c0.4-1,0.8-1.9,1.3-2.8c0.4-0.9,0.8-1.8,1.2-2.6c0.3-0.6,0.5-1.1,0.8-1.7c0.2-0.6,0.5-1.1,0.8-1.7c0.8-1.8,1.6-3.5,2.3-5
					c0.7-1.6,1.4-3,1.9-4.2c0-0.1,0.1-0.2,0.1-0.2c0,0,0,0,0,0c0,0,0-0.1,0-0.1c0.1-0.2,0.2-0.4,0.3-0.6c0.1-0.2,0.2-0.4,0.3-0.6
					c0.2-0.3,0.3-0.7,0.4-1c0.1-0.3,0.3-0.6,0.5-0.9v0c0.1-0.3,0.2-0.6,0.4-0.8c0.1-0.3,0.3-0.5,0.4-0.8l0.2-0.4
					c0-0.1,0.1-0.1,0.2-0.3s0.1-0.2,0.2-0.3l0.1-0.1l0,0c0-0.1,0.1-0.2,0.1-0.2c0-0.1,0.1-0.1,0.1-0.2v0.1l0.1,0.1
					c0.1-0.2,0.2-0.3,0.2-0.4c0.1-0.1,0.1-0.2,0.2-0.2c0.1-0.1,0.3-0.2,0.6-0.3c0.2-0.1,0.5-0.1,0.8-0.1c0.4,0,0.7,0.2,1,0.5
					c0.3,0.3,0.4,0.5,0.5,0.7c0.1,0.3,0.2,0.5,0.2,0.8c0,0.2,0,0.4,0,0.6c0,0.3,0,0.6,0,0.9c0,0.3,0,0.6-0.1,0.8c0,0,0,0,0,0.1
					c0,0,0,0.1,0,0.1v0.3c-0.1,0.5-0.2,1.1-0.3,1.8c-0.2,0.7-0.3,1.4-0.5,2.2c-0.6,2.2-1.2,4.2-1.9,6.1c-0.7,1.9-1.3,3.6-2,5.2
					c-0.7,1.6-1.3,3-1.9,4.4c-0.6,1.3-1.2,2.6-1.8,3.7c-1.2,2.3-2.3,4.2-3.3,5.7S44,299,43.2,300c-0.7,1-1.4,1.8-1.9,2.5
					c-0.6,0.7-1.1,1.2-1.5,1.7l0,0c-0.3,0.3-0.5,0.6-0.8,0.8c-0.3,0.2-0.5,0.5-0.8,0.8c-0.6,1.2-1,2.3-1.4,3.1
					c-0.4,0.8-0.7,1.6-1,2.2c-0.3,0.7-0.6,1.3-0.9,2c-0.3,0.6-0.7,1.4-1.1,2.2c0.5-0.4,1-0.7,1.6-1.1c0.5-0.4,1.1-0.8,1.7-1.2
					c1.1-0.8,2.3-1.6,3.6-2.4c1.3-0.8,2.7-1.8,4.3-2.8c0.3-0.2,0.6-0.4,0.9-0.6c0.3-0.2,0.6-0.4,0.9-0.6l0.3-0.2
					c0,0,0.1-0.1,0.2-0.1c0.1,0,0.1,0,0.1-0.1c0.2-0.1,0.4-0.3,0.6-0.4c0.2-0.1,0.4-0.3,0.6-0.4l-0.1,0.1c0,0,0,0,0.1,0
					c0,0,0,0,0.1,0c0,0,0.1-0.1,0.1-0.1c0,0,0.1-0.1,0.2-0.1c0.1,0,0.2-0.1,0.3-0.1c0.1-0.1,0.2-0.1,0.3-0.2l0.1,0.3v-0.3
					c0.1,0,0.2,0,0.3-0.1c0.1,0,0.2,0,0.2-0.1c0.2-0.1,0.4-0.1,0.5-0.2c0.1,0,0.3,0,0.4,0.1s0.3,0.2,0.4,0.4
					c0.1,0.2,0.3,0.5,0.5,0.9l0,0.1l0,0.1l0.1,0.2c0.3,0.9,0.6,1.9,1.1,2.9c0.5,1,1,1.9,1.6,2.8c0.6,0.9,1.4,1.7,2.1,2.5
					c0.8,0.7,1.6,1.4,2.5,1.9c0.8,0.5,1.7,0.9,2.7,1.3c0.9,0.3,1.9,0.6,2.8,0.8h0c0.6,0.1,1.3,0.2,1.9,0.2c0.6,0.1,1.2,0.1,1.7,0.1
					c1.3,0,2.5-0.1,3.6-0.3c1.1-0.2,2.2-0.4,3.3-0.6c1.6-0.4,3-0.8,4.4-1.3c1.4-0.5,2.7-1,3.9-1.6c0.5-0.2,1-0.5,1.6-0.7
					c0.5-0.3,1.1-0.5,1.6-0.8c0.5-0.3,1.1-0.5,1.6-0.8c0.5-0.3,0.9-0.5,1.3-0.7c1.6-0.9,3-1.8,4.2-2.5s2.2-1.4,3-1.9
					c0,0,0.1-0.1,0.2-0.1c0.1,0,0.1-0.1,0.1-0.1c0.8-0.5,1.4-0.9,1.9-1.3c0.5-0.3,0.8-0.5,1-0.7c0.4-0.3,0.9-0.5,1.3-0.8
					c0.5-0.2,0.9-0.3,1.3-0.4s0.7-0.1,1,0C103.9,304.4,104.1,304.5,104.3,304.8z M51.4,275.7c-0.1,0.3-0.3,0.6-0.4,0.9
					c-0.1,0.3-0.3,0.6-0.4,1c-0.2,0.5-0.4,0.9-0.6,1.4c-0.2,0.5-0.4,1-0.6,1.4c-0.3,0.7-0.6,1.3-0.9,2c-0.3,0.7-0.6,1.4-0.9,2.1
					s-0.5,1.3-0.7,1.7s-0.4,0.8-0.5,1.2s-0.3,0.7-0.4,1c-0.1,0.3-0.3,0.7-0.4,1s-0.4,0.8-0.6,1.4c-0.2,0.5-0.5,1.2-0.9,2
					c0.2-0.4,0.4-0.7,0.6-0.9c0.2-0.3,0.3-0.6,0.6-1c0.7-1.2,1.4-2.5,2.1-4c0.8-1.5,1.5-3.1,2.3-4.8c0.7-1.7,1.4-3.5,2.2-5.6
					c0.8-2,1.5-4.2,2.1-6.5c-0.3,0.8-0.7,1.5-1,2.3c-0.3,0.8-0.7,1.6-1,2.4l0,0c0,0.1-0.1,0.2-0.1,0.2c0,0.1-0.1,0.1-0.1,0.2
					L51.4,275.7L51.4,275.7z M54.2,262.9l-0.2,0.2C54.1,263,54.1,263,54.2,262.9C54.2,262.9,54.2,262.9,54.2,262.9z"/>
				<path d="M99.5,304.7c0.3-0.1,0.6-0.2,0.8-0.3c0.2-0.1,0.4-0.1,0.6-0.2c0.2-0.1,0.4-0.1,0.7-0.2l0.1,0c0.6-0.1,1.2,0,1.7,0.3
					c0.5,0.3,0.8,0.8,0.9,1.3c0,0.5-0.1,1-0.4,1.4s-0.7,0.7-1.2,0.9h0c-0.1,0-0.2,0.1-0.3,0.1c-0.1,0-0.2,0-0.3,0
					c-0.1,0-0.2,0-0.5,0c-0.2,0-0.5,0.1-0.9,0.2c-0.2,0-0.3,0.1-0.4,0.1c-0.3,0.1-0.8,0.2-1.2,0.4c-0.5,0.2-1,0.5-1.6,0.9v0
					c-0.3,0.2-0.6,0.4-0.9,0.8c-0.3,0.3-0.5,0.7-0.7,1.1c0,0.2-0.1,0.3-0.1,0.5c0,0.1,0,0.3,0,0.5c0,0.4,0.1,0.8,0.2,1.2
					c0.1,0.4,0.3,0.9,0.5,1.3c0.3,0.6,0.8,1.1,1.6,1.6c0.4,0.3,0.9,0.5,1.3,0.8c0.5,0.2,1,0.4,1.5,0.6c2.2,0.7,4.9,1.1,7.9,1.2
					c0.9,0,1.7,0,2.3,0s1.3-0.1,1.8-0.1h0.3c0.6,0,1.1-0.1,1.6-0.1c0.5,0,1-0.1,1.6-0.2c0.6-0.1,1.3-0.2,1.9-0.3
					c0.6-0.1,1.4-0.3,2.1-0.5h0c0.9-0.3,1.9-0.6,3-1c1.1-0.4,2.5-1,4-1.7h0c1.5-0.7,2.9-1.5,4.1-2.1c1.2-0.7,2.3-1.4,3.3-2
					c1-0.7,1.9-1.2,2.6-1.8c0.7-0.5,1.3-1,1.8-1.4c0.9-0.7,1.6-1.2,2.1-1.7c0.5-0.4,0.9-0.7,1.1-0.9c0.1,0,0.1-0.1,0.1-0.1
					c0.4-0.3,0.9-0.5,1.4-0.5c0.3,0,0.6,0.1,0.9,0.2c0.3,0.1,0.5,0.3,0.7,0.5c0.3,0.4,0.4,0.8,0.4,1.2c0,0.3-0.1,0.6-0.2,0.9
					c-0.2,0.3-0.4,0.6-0.6,0.8c0,0,0,0-0.1,0c0,0,0,0,0,0c-0.1,0.1-0.2,0.2-0.4,0.3c-0.2,0.1-0.5,0.3-0.8,0.5
					c-0.1,0-0.2,0.1-0.2,0.1c-0.1,0.1-0.2,0.1-0.3,0.2c-0.1,0.1-0.3,0.2-0.4,0.3c-0.2,0.1-0.3,0.2-0.5,0.3c-0.1,0.1-0.2,0.2-0.4,0.2
					s-0.3,0.2-0.4,0.3c-0.1,0-0.2,0.1-0.2,0.2c-0.1,0.1-0.1,0.1-0.2,0.1h0c-0.5,0.3-1,0.6-1.6,1c-0.6,0.4-1.2,0.8-1.9,1.2
					c-1.1,0.6-2.3,1.4-3.8,2.2s-3.2,1.6-5.1,2.5c-1.9,0.8-3.5,1.5-4.8,1.9c-1.4,0.5-2.5,0.8-3.6,1.2c-1,0.3-1.9,0.5-2.7,0.8
					c-0.8,0.2-1.5,0.4-2.2,0.5c-0.6,0.1-1.2,0.2-1.8,0.3c-0.7,0.1-1.4,0.2-2.1,0.3c-0.3,0-0.6,0.1-0.9,0.1s-0.7,0-1,0
					c-0.6,0-1.2,0-1.9-0.1c-0.7-0.1-1.4-0.1-2.1-0.3c-1.6-0.2-3-0.6-4.2-1c-1.3-0.5-2.3-0.9-3.1-1.3c-0.4-0.2-0.8-0.4-1.2-0.7
					c-0.5-0.3-0.8-0.6-1.2-0.8c-0.4-0.3-0.8-0.7-1.1-1.1c-0.3-0.4-0.6-0.9-0.9-1.4v0c-0.3-0.6-0.6-1.3-0.7-1.9
					c-0.2-0.6-0.3-1.3-0.3-1.9c0-0.5,0-0.8,0.1-1.1c0.2-0.8,0.4-1.4,0.8-2c0.4-0.6,0.8-1,1.2-1.4c0.7-0.6,1.4-1.1,2-1.5
					c0.6-0.4,1.2-0.6,1.6-0.9l0,0C98.8,305,99.2,304.8,99.5,304.7z"/>
				<path d="M207.3,304.3c0.4-0.2,0.8-0.3,1.2-0.3c0.4,0,0.8,0.1,1.1,0.3c0.3,0.2,0.6,0.4,0.7,0.8c0.3,0.5,0.2,1.1,0,1.7
					s-0.8,1-1.4,1.3c0,0-0.1,0-0.1,0c0,0,0,0-0.1,0c0,0-0.1,0-0.2,0.1c-0.1,0-0.1,0-0.1,0c-0.1,0-0.3,0.1-0.6,0.2
					c-0.3,0.1-0.7,0.3-1.3,0.5c-0.6,0.2-1.3,0.5-2.2,0.9c-0.9,0.4-2,0.9-3.4,1.5c-0.9,0.4-1.8,0.8-3,1.3c-1.1,0.5-2.3,1-3.6,1.6
					c-0.4,0.2-0.8,0.3-1.1,0.5s-0.8,0.3-1.2,0.5c-0.7,0.3-1.3,0.6-2.1,0.9c-0.7,0.3-1.4,0.7-2.2,1l-1.3,0.6h0
					c-0.4,0.2-0.8,0.4-1.2,0.5c-0.4,0.2-0.8,0.4-1.2,0.5c-0.8,0.3-1.5,0.7-2.4,1c-0.8,0.4-1.7,0.7-2.6,1c-0.9,0.3-1.9,0.6-2.9,0.9
					c-1,0.3-2.1,0.5-3.4,0.6c-0.4,0-0.8,0-1.3,0c-0.4,0-0.9-0.1-1.3-0.3c-0.3-0.1-0.5-0.3-0.8-0.4c-0.3-0.2-0.5-0.3-0.7-0.6
					c-0.4-0.4-0.7-0.9-0.9-1.4v0c-0.2-0.4-0.2-0.8-0.3-1.2c0-0.3,0-0.7,0-1c0-0.3,0.1-0.5,0.1-0.6c0-0.1,0-0.2,0.1-0.3
					c0,0,0,0,0-0.1c0,0,0,0,0-0.1l0.2-0.5c0.3-1,0.6-1.8,0.9-2.4c0.3-0.6,0.6-1.3,0.9-1.9c0.2-0.3,0.3-0.6,0.4-0.8
					c0.1-0.2,0.2-0.5,0.4-0.8c0.1-0.3,0.3-0.6,0.5-0.9c0.2-0.3,0.4-0.7,0.7-1.2c-0.6,0.2-1.3,0.3-1.9,0.4c-0.6,0.1-1.3,0.3-2.1,0.4
					c-2.2,0.4-4.3,0.7-6.2,0.8c-1.9,0.1-3.6,0.2-5.2,0.2c-1.6,0-3-0.1-4.2-0.2c-1.2-0.1-2.3-0.2-3.2-0.4c-1.6-0.3-2.9-0.5-3.8-0.8
					s-1.5-0.4-1.8-0.5c0,0-0.1,0-0.1,0c0,0,0,0,0,0c0,0,0,0,0,0c-0.7-0.3-1.2-0.7-1.5-1.2c-0.3-0.6-0.3-1.1-0.1-1.6
					c0.2-0.5,0.6-0.8,1.2-1c0.5-0.2,1.1-0.1,1.7,0.1h-0.1c2,0.6,3.4,0.9,4.1,1.1c0.7,0.1,0.7,0.2-0.1,0.3c0.7,0.2,1.6,0.3,2.7,0.5
					c1.1,0.2,2.4,0.3,3.8,0.5c0.6,0,1.2,0.1,1.8,0.1c0.6,0,1.3,0,2,0c1.1,0,2.5-0.1,4-0.2c1.5-0.1,3.1-0.3,4.7-0.6
					c1.2-0.2,2.4-0.4,3.4-0.6s2-0.4,2.7-0.6c0,0,0.1,0,0.2,0c0.1,0,0.2,0,0.2-0.1c0,0,0.1,0,0.1,0c0,0,0.1,0,0.1,0c0,0,0,0,0,0
					l0.1-0.1c0.1,0,0.2,0,0.3,0c0.2,0,0.3,0,0.5-0.1s0.3-0.1,0.5-0.1s0.3-0.1,0.3-0.1l0.4,1.9c0,0,0,0.1-0.1,0.2
					c-0.1,0.1-0.2,0.3-0.2,0.4s-0.2,0.3-0.2,0.4s-0.1,0.2-0.1,0.2l-0.1,0.2c0,0.1-0.1,0.2-0.2,0.3c-0.1,0.1-0.1,0.2-0.2,0.3l0,0
					c0,0.1-0.1,0.2-0.1,0.2c0,0-0.1,0.1-0.1,0.3c-0.1,0.2-0.2,0.3-0.3,0.5c-0.1,0.2-0.2,0.4-0.3,0.5l0,0c-0.6,1.2-1.1,2.2-1.5,3.1
					s-0.7,1.8-1,2.5v0c-0.1,0.3-0.2,0.7-0.3,1c-0.1,0.3-0.2,0.7-0.3,1.1c0,0.2-0.1,0.3-0.1,0.5c0,0.2,0,0.3,0,0.4
					c0,0.2,0,0.4,0.1,0.6c0,0.1,0.2,0.1,0.4,0.2s0.5,0,0.8,0c0.6,0,1.2-0.1,1.8-0.2c0.7-0.1,1.3-0.3,2-0.4c0.8-0.2,1.7-0.5,2.6-0.8
					s1.8-0.6,2.5-0.9c0.2-0.1,0.4-0.2,0.6-0.2s0.4-0.2,0.6-0.3s0.4-0.2,0.7-0.3s0.4-0.1,0.6-0.2c0.1,0,0.2-0.1,0.2-0.1
					c0.1,0,0.2,0,0.2-0.1c0.1,0,0.2-0.1,0.3-0.1c0.1,0,0.2-0.1,0.3-0.1c0.5-0.2,1-0.4,1.4-0.6c0.5-0.2,0.9-0.4,1.4-0.6h0
					c0.3-0.1,0.5-0.2,0.8-0.3c0.3-0.1,0.5-0.2,0.8-0.3h0c0.3-0.1,0.5-0.2,0.9-0.4c0.3-0.1,0.6-0.3,0.9-0.4c3.4-1.6,6.1-2.9,8.2-3.9
					c2-1,3.6-1.8,4.5-2.3c0.4-0.2,0.8-0.4,1.1-0.6c0.3-0.2,0.5-0.3,0.8-0.4c0,0,0.1,0,0.1-0.1c0,0,0.1,0,0.1-0.1l0,0
					c0.2-0.1,0.5-0.3,0.7-0.4C206.8,304.6,207,304.5,207.3,304.3L207.3,304.3z"/>
				<path d="M205.5,304.7c0.3-0.1,0.6-0.2,0.8-0.3c0.2-0.1,0.4-0.1,0.6-0.2c0.2-0.1,0.4-0.1,0.7-0.2l0.1,0c0.6-0.1,1.2,0,1.7,0.3
					s0.8,0.8,0.9,1.3c0,0.5-0.1,1-0.4,1.4c-0.3,0.4-0.7,0.7-1.2,0.9h0c-0.1,0-0.2,0.1-0.3,0.1c-0.1,0-0.2,0-0.3,0
					c-0.1,0-0.3,0-0.5,0c-0.2,0-0.5,0.1-0.9,0.2c-0.2,0-0.3,0.1-0.4,0.1c-0.3,0.1-0.8,0.2-1.2,0.4c-0.5,0.2-1,0.5-1.6,0.9v0
					c-0.3,0.2-0.6,0.4-0.9,0.8c-0.3,0.3-0.5,0.7-0.7,1.1c0,0.2-0.1,0.3-0.1,0.5c0,0.1,0,0.3,0,0.5c0,0.4,0.1,0.8,0.2,1.2
					s0.3,0.9,0.5,1.3c0.3,0.6,0.8,1.1,1.6,1.6c0.4,0.3,0.9,0.5,1.3,0.8c0.5,0.2,1,0.4,1.5,0.6c2.2,0.7,4.9,1.1,7.9,1.2
					c0.9,0,1.7,0,2.3,0c0.7,0,1.3-0.1,1.8-0.1h0.3c0.6,0,1.1-0.1,1.6-0.1c0.5,0,1-0.1,1.6-0.2c0.6-0.1,1.3-0.2,1.9-0.3
					c0.6-0.1,1.4-0.3,2.1-0.5h0c0.9-0.3,1.9-0.6,3-1c1.1-0.4,2.5-1,4-1.7h0c1.5-0.7,2.9-1.5,4.1-2.1c1.2-0.7,2.3-1.4,3.3-2
					c1-0.7,1.9-1.2,2.6-1.8c0.7-0.5,1.3-1,1.8-1.4c0.9-0.7,1.6-1.2,2.1-1.7c0.5-0.4,0.9-0.7,1.1-0.9c0.1,0,0.1-0.1,0.2-0.1
					c0.4-0.3,0.9-0.5,1.4-0.5c0.3,0,0.6,0.1,0.9,0.2c0.3,0.1,0.5,0.3,0.7,0.5c0.3,0.4,0.4,0.8,0.4,1.2c0,0.3-0.1,0.6-0.2,0.9
					c-0.2,0.3-0.4,0.6-0.6,0.8c0,0,0,0-0.1,0s0,0,0,0c-0.1,0.1-0.2,0.2-0.4,0.3c-0.2,0.1-0.5,0.3-0.8,0.5c-0.1,0-0.2,0.1-0.2,0.1
					c-0.1,0.1-0.2,0.1-0.3,0.2c-0.1,0.1-0.3,0.2-0.5,0.3c-0.2,0.1-0.3,0.2-0.5,0.3c-0.1,0.1-0.2,0.2-0.4,0.2s-0.2,0.2-0.4,0.3
					c-0.1,0-0.2,0.1-0.2,0.2c-0.1,0.1-0.1,0.1-0.2,0.1h0c-0.5,0.3-1,0.6-1.6,1c-0.6,0.4-1.2,0.8-1.9,1.2c-1.1,0.6-2.3,1.4-3.8,2.2
					s-3.2,1.6-5.1,2.5c-1.9,0.8-3.5,1.5-4.8,1.9s-2.5,0.8-3.6,1.2c-1,0.3-1.9,0.5-2.7,0.8c-0.8,0.2-1.5,0.4-2.2,0.5
					c-0.6,0.1-1.2,0.2-1.8,0.3c-0.7,0.1-1.4,0.2-2.1,0.3c-0.3,0-0.6,0.1-0.9,0.1c-0.4,0-0.7,0-1,0c-0.6,0-1.2,0-1.9-0.1
					c-0.7-0.1-1.4-0.1-2.1-0.3c-1.6-0.2-3-0.6-4.2-1c-1.3-0.5-2.3-0.9-3.1-1.3c-0.4-0.2-0.8-0.4-1.2-0.7c-0.5-0.3-0.8-0.6-1.2-0.8
					c-0.4-0.3-0.8-0.7-1.1-1.1c-0.3-0.4-0.6-0.9-0.9-1.4v0c-0.3-0.6-0.6-1.3-0.7-1.9c-0.2-0.6-0.3-1.3-0.3-1.9c0-0.5,0-0.8,0.1-1.1
					c0.2-0.8,0.4-1.4,0.8-2c0.4-0.6,0.8-1,1.2-1.4c0.7-0.6,1.4-1.1,2-1.5c0.6-0.4,1.2-0.6,1.6-0.9l0,0
					C204.8,305,205.2,304.8,205.5,304.7z"/>
				<path d="M248.5,326.8c-0.3-0.3-0.5-0.6-0.6-0.9c-0.1-0.4-0.1-0.7-0.1-1.1c0-0.2,0-0.4,0-0.5c0-0.1,0-0.3,0-0.3
					c0.1,0,0.3-0.1,0.5-0.1c0.2,0,0.5,0,0.9,0c0.3,0,0.7,0,1,0.1c0.3,0.1,0.6,0.2,0.8,0.4c0.2,0.2,0.3,0.4,0.4,0.6
					c0.1,0.3,0.1,0.5,0.1,0.8c0,0.3,0,0.6-0.1,0.9c-0.1,0.3-0.1,0.5-0.2,0.6c-0.1,0-0.2,0-0.4,0c-0.1,0-0.3,0-0.5,0
					c-0.3,0-0.7,0-1-0.1S248.8,327,248.5,326.8L248.5,326.8z M251.1,311.6c-0.4,2.4-0.9,3.6-1.5,3.6c-0.3,0-0.6-0.4-0.8-1.3
					c-0.2-0.9-0.3-2.2-0.3-4c0-0.8,0-1.8,0.1-2.9c0.1-0.9,0.2-2,0.3-3.1c0.1-1.2,0.3-2.4,0.5-3.7c0.2-1.3,0.4-2.6,0.7-4
					c0.3-1.4,0.6-2.8,0.9-4.2v0c0.4-1.9,0.9-3.8,1.4-5.7c0.5-1.9,1-3.7,1.6-5.4s1.1-3.4,1.6-4.9c0.5-1.5,1-2.9,1.5-4
					s0.9-2.1,1.2-2.9c0.4-0.8,0.6-1.2,0.8-1.4c0.6-0.4,1.1-0.7,1.5-0.7c1,0,1.4,0.7,1.4,2c0,0.7-0.2,1.6-0.6,2.7
					c-0.4,1.1-1,2.3-1.9,3.6c-0.3,0.4-0.6,0.9-0.9,1.7s-0.7,1.6-1.1,2.6c-0.4,1-0.8,2.1-1.2,3.4c-0.4,1.2-0.8,2.5-1.2,3.9
					c-0.4,1.3-0.8,2.7-1.1,4.1c-0.4,1.4-0.7,2.8-1,4.1c-0.2,1-0.4,2.1-0.6,3.1c-0.2,1.1-0.4,2.1-0.5,3.1c-0.2,1-0.3,1.9-0.4,2.8
					c-0.1,0.9-0.2,1.7-0.3,2.4c-0.1,0.8-0.1,1.4-0.2,2c0,0.6,0,1.1-0.1,1.6c0,0.5,0,1,0,1.4V311.6z"/>
			</g>
		</g>
	</g>
</g>
</svg>
